<?xml version="1.0" encoding="utf-8" standalone="no"?>
<!DOCTYPE svg PUBLIC "-//W3C//DTD SVG 1.1//EN"
  "http://www.w3.org/Graphics/SVG/1.1/DTD/svg11.dtd">
<svg xmlns:xlink="http://www.w3.org/1999/xlink" width="432pt" height="288pt" viewBox="0 0 432 288" xmlns="http://www.w3.org/2000/svg" version="1.1">
 <metadata>
  <rdf:RDF xmlns:dc="http://purl.org/dc/elements/1.1/" xmlns:cc="http://creativecommons.org/ns#" xmlns:rdf="http://www.w3.org/1999/02/22-rdf-syntax-ns#">
   <cc:Work>
    <dc:type rdf:resource="http://purl.org/dc/dcmitype/StillImage"/>
    <dc:date>2023-09-27T22:07:55.311946</dc:date>
    <dc:format>image/svg+xml</dc:format>
    <dc:creator>
     <cc:Agent>
      <dc:title>Matplotlib v3.5.2, https://matplotlib.org/</dc:title>
     </cc:Agent>
    </dc:creator>
   </cc:Work>
  </rdf:RDF>
 </metadata>
 <defs>
  <style type="text/css">*{stroke-linejoin: round; stroke-linecap: butt}</style>
 </defs>
 <g id="figure_1">
  <g id="patch_1">
   <path d="M 0 288 
L 432 288 
L 432 0 
L 0 0 
z
" style="fill: #ffffff"/>
  </g>
  <g id="patch_2">
   <path d="M 54 219.370909 
L 206.181818 219.370909 
L 206.181818 67.189091 
L 54 67.189091 
z
" style="fill: #ffffff"/>
  </g>
  <g id="pane3d_1">
   <g id="patch_3">
    <path d="M 65.490777 181.84775 
L 115.746183 139.722672 
L 115.047585 78.970778 
L 62.387198 117.39993 
" style="fill: #f2f2f2; opacity: 0.5; stroke: #f2f2f2; stroke-linejoin: miter"/>
   </g>
  </g>
  <g id="pane3d_2">
   <g id="patch_4">
    <path d="M 115.746183 139.722672 
L 196.388179 163.162116 
L 199.266008 100.317694 
L 115.047585 78.970778 
" style="fill: #e6e6e6; opacity: 0.5; stroke: #e6e6e6; stroke-linejoin: miter"/>
   </g>
  </g>
  <g id="pane3d_3">
   <g id="patch_5">
    <path d="M 65.490777 181.84775 
L 150.975231 209.766972 
L 196.388179 163.162116 
L 115.746183 139.722672 
" style="fill: #ececec; opacity: 0.5; stroke: #ececec; stroke-linejoin: miter"/>
   </g>
  </g>
  <g id="axis3d_1">
   <g id="line2d_1">
    <path d="M 65.490777 181.84775 
L 150.975231 209.766972 
" style="fill: none; stroke: #000000; stroke-width: 0.8; stroke-linecap: square"/>
   </g>
   <g id="text_1">
    <!-- Cross entropy -->
    <g transform="translate(63.689703 224.428547)rotate(-341.912962)scale(0.08 -0.08)">
     <defs>
      <path id="DejaVuSans-43" d="M 4122 4306 
L 4122 3641 
Q 3803 3938 3442 4084 
Q 3081 4231 2675 4231 
Q 1875 4231 1450 3742 
Q 1025 3253 1025 2328 
Q 1025 1406 1450 917 
Q 1875 428 2675 428 
Q 3081 428 3442 575 
Q 3803 722 4122 1019 
L 4122 359 
Q 3791 134 3420 21 
Q 3050 -91 2638 -91 
Q 1578 -91 968 557 
Q 359 1206 359 2328 
Q 359 3453 968 4101 
Q 1578 4750 2638 4750 
Q 3056 4750 3426 4639 
Q 3797 4528 4122 4306 
z
" transform="scale(0.015625)"/>
      <path id="DejaVuSans-72" d="M 2631 2963 
Q 2534 3019 2420 3045 
Q 2306 3072 2169 3072 
Q 1681 3072 1420 2755 
Q 1159 2438 1159 1844 
L 1159 0 
L 581 0 
L 581 3500 
L 1159 3500 
L 1159 2956 
Q 1341 3275 1631 3429 
Q 1922 3584 2338 3584 
Q 2397 3584 2469 3576 
Q 2541 3569 2628 3553 
L 2631 2963 
z
" transform="scale(0.015625)"/>
      <path id="DejaVuSans-6f" d="M 1959 3097 
Q 1497 3097 1228 2736 
Q 959 2375 959 1747 
Q 959 1119 1226 758 
Q 1494 397 1959 397 
Q 2419 397 2687 759 
Q 2956 1122 2956 1747 
Q 2956 2369 2687 2733 
Q 2419 3097 1959 3097 
z
M 1959 3584 
Q 2709 3584 3137 3096 
Q 3566 2609 3566 1747 
Q 3566 888 3137 398 
Q 2709 -91 1959 -91 
Q 1206 -91 779 398 
Q 353 888 353 1747 
Q 353 2609 779 3096 
Q 1206 3584 1959 3584 
z
" transform="scale(0.015625)"/>
      <path id="DejaVuSans-73" d="M 2834 3397 
L 2834 2853 
Q 2591 2978 2328 3040 
Q 2066 3103 1784 3103 
Q 1356 3103 1142 2972 
Q 928 2841 928 2578 
Q 928 2378 1081 2264 
Q 1234 2150 1697 2047 
L 1894 2003 
Q 2506 1872 2764 1633 
Q 3022 1394 3022 966 
Q 3022 478 2636 193 
Q 2250 -91 1575 -91 
Q 1294 -91 989 -36 
Q 684 19 347 128 
L 347 722 
Q 666 556 975 473 
Q 1284 391 1588 391 
Q 1994 391 2212 530 
Q 2431 669 2431 922 
Q 2431 1156 2273 1281 
Q 2116 1406 1581 1522 
L 1381 1569 
Q 847 1681 609 1914 
Q 372 2147 372 2553 
Q 372 3047 722 3315 
Q 1072 3584 1716 3584 
Q 2034 3584 2315 3537 
Q 2597 3491 2834 3397 
z
" transform="scale(0.015625)"/>
      <path id="DejaVuSans-20" transform="scale(0.015625)"/>
      <path id="DejaVuSans-65" d="M 3597 1894 
L 3597 1613 
L 953 1613 
Q 991 1019 1311 708 
Q 1631 397 2203 397 
Q 2534 397 2845 478 
Q 3156 559 3463 722 
L 3463 178 
Q 3153 47 2828 -22 
Q 2503 -91 2169 -91 
Q 1331 -91 842 396 
Q 353 884 353 1716 
Q 353 2575 817 3079 
Q 1281 3584 2069 3584 
Q 2775 3584 3186 3129 
Q 3597 2675 3597 1894 
z
M 3022 2063 
Q 3016 2534 2758 2815 
Q 2500 3097 2075 3097 
Q 1594 3097 1305 2825 
Q 1016 2553 972 2059 
L 3022 2063 
z
" transform="scale(0.015625)"/>
      <path id="DejaVuSans-6e" d="M 3513 2113 
L 3513 0 
L 2938 0 
L 2938 2094 
Q 2938 2591 2744 2837 
Q 2550 3084 2163 3084 
Q 1697 3084 1428 2787 
Q 1159 2491 1159 1978 
L 1159 0 
L 581 0 
L 581 3500 
L 1159 3500 
L 1159 2956 
Q 1366 3272 1645 3428 
Q 1925 3584 2291 3584 
Q 2894 3584 3203 3211 
Q 3513 2838 3513 2113 
z
" transform="scale(0.015625)"/>
      <path id="DejaVuSans-74" d="M 1172 4494 
L 1172 3500 
L 2356 3500 
L 2356 3053 
L 1172 3053 
L 1172 1153 
Q 1172 725 1289 603 
Q 1406 481 1766 481 
L 2356 481 
L 2356 0 
L 1766 0 
Q 1100 0 847 248 
Q 594 497 594 1153 
L 594 3053 
L 172 3053 
L 172 3500 
L 594 3500 
L 594 4494 
L 1172 4494 
z
" transform="scale(0.015625)"/>
      <path id="DejaVuSans-70" d="M 1159 525 
L 1159 -1331 
L 581 -1331 
L 581 3500 
L 1159 3500 
L 1159 2969 
Q 1341 3281 1617 3432 
Q 1894 3584 2278 3584 
Q 2916 3584 3314 3078 
Q 3713 2572 3713 1747 
Q 3713 922 3314 415 
Q 2916 -91 2278 -91 
Q 1894 -91 1617 61 
Q 1341 213 1159 525 
z
M 3116 1747 
Q 3116 2381 2855 2742 
Q 2594 3103 2138 3103 
Q 1681 3103 1420 2742 
Q 1159 2381 1159 1747 
Q 1159 1113 1420 752 
Q 1681 391 2138 391 
Q 2594 391 2855 752 
Q 3116 1113 3116 1747 
z
" transform="scale(0.015625)"/>
      <path id="DejaVuSans-79" d="M 2059 -325 
Q 1816 -950 1584 -1140 
Q 1353 -1331 966 -1331 
L 506 -1331 
L 506 -850 
L 844 -850 
Q 1081 -850 1212 -737 
Q 1344 -625 1503 -206 
L 1606 56 
L 191 3500 
L 800 3500 
L 1894 763 
L 2988 3500 
L 3597 3500 
L 2059 -325 
z
" transform="scale(0.015625)"/>
     </defs>
     <use xlink:href="#DejaVuSans-43"/>
     <use xlink:href="#DejaVuSans-72" x="69.824219"/>
     <use xlink:href="#DejaVuSans-6f" x="108.6875"/>
     <use xlink:href="#DejaVuSans-73" x="169.869141"/>
     <use xlink:href="#DejaVuSans-73" x="221.96875"/>
     <use xlink:href="#DejaVuSans-20" x="274.068359"/>
     <use xlink:href="#DejaVuSans-65" x="305.855469"/>
     <use xlink:href="#DejaVuSans-6e" x="367.378906"/>
     <use xlink:href="#DejaVuSans-74" x="430.757812"/>
     <use xlink:href="#DejaVuSans-72" x="469.966797"/>
     <use xlink:href="#DejaVuSans-6f" x="508.830078"/>
     <use xlink:href="#DejaVuSans-70" x="570.011719"/>
     <use xlink:href="#DejaVuSans-79" x="633.488281"/>
    </g>
   </g>
   <g id="Line3DCollection_1">
    <path d="M 74.839669 184.901098 
L 124.600226 142.296192 
L 124.276937 81.31015 
" style="fill: none; stroke: #b0b0b0; stroke-width: 0.8"/>
    <path d="M 88.8511 189.477231 
L 137.853986 146.148537 
L 138.100495 84.814019 
" style="fill: none; stroke: #b0b0b0; stroke-width: 0.8"/>
    <path d="M 103.112002 194.134842 
L 151.324025 150.063746 
L 152.159457 88.377556 
" style="fill: none; stroke: #b0b0b0; stroke-width: 0.8"/>
    <path d="M 117.629099 198.876126 
L 165.01568 154.043369 
L 166.459887 92.002298 
" style="fill: none; stroke: #b0b0b0; stroke-width: 0.8"/>
    <path d="M 132.409355 203.703357 
L 178.934465 158.08901 
L 181.008061 95.689836 
" style="fill: none; stroke: #b0b0b0; stroke-width: 0.8"/>
    <path d="M 147.459993 208.618895 
L 193.086079 162.202326 
L 195.810473 99.441816 
" style="fill: none; stroke: #b0b0b0; stroke-width: 0.8"/>
   </g>
   <g id="xtick_1">
    <g id="line2d_2">
     <path d="M 75.273074 184.530018 
L 73.970995 185.644856 
" style="fill: none; stroke: #000000; stroke-width: 0.8; stroke-linecap: square"/>
    </g>
    <g id="text_2">
     <!-- 20 -->
     <g transform="translate(62.843105 206.025232)scale(0.07 -0.07)">
      <defs>
       <path id="DejaVuSans-32" d="M 1228 531 
L 3431 531 
L 3431 0 
L 469 0 
L 469 531 
Q 828 903 1448 1529 
Q 2069 2156 2228 2338 
Q 2531 2678 2651 2914 
Q 2772 3150 2772 3378 
Q 2772 3750 2511 3984 
Q 2250 4219 1831 4219 
Q 1534 4219 1204 4116 
Q 875 4013 500 3803 
L 500 4441 
Q 881 4594 1212 4672 
Q 1544 4750 1819 4750 
Q 2544 4750 2975 4387 
Q 3406 4025 3406 3419 
Q 3406 3131 3298 2873 
Q 3191 2616 2906 2266 
Q 2828 2175 2409 1742 
Q 1991 1309 1228 531 
z
" transform="scale(0.015625)"/>
       <path id="DejaVuSans-30" d="M 2034 4250 
Q 1547 4250 1301 3770 
Q 1056 3291 1056 2328 
Q 1056 1369 1301 889 
Q 1547 409 2034 409 
Q 2525 409 2770 889 
Q 3016 1369 3016 2328 
Q 3016 3291 2770 3770 
Q 2525 4250 2034 4250 
z
M 2034 4750 
Q 2819 4750 3233 4129 
Q 3647 3509 3647 2328 
Q 3647 1150 3233 529 
Q 2819 -91 2034 -91 
Q 1250 -91 836 529 
Q 422 1150 422 2328 
Q 422 3509 836 4129 
Q 1250 4750 2034 4750 
z
" transform="scale(0.015625)"/>
      </defs>
      <use xlink:href="#DejaVuSans-32"/>
      <use xlink:href="#DejaVuSans-30" x="63.623047"/>
     </g>
    </g>
   </g>
   <g id="xtick_2">
    <g id="line2d_3">
     <path d="M 89.278213 189.099576 
L 87.995022 190.234182 
" style="fill: none; stroke: #000000; stroke-width: 0.8; stroke-linecap: square"/>
    </g>
    <g id="text_3">
     <!-- 40 -->
     <g transform="translate(76.879927 210.771921)scale(0.07 -0.07)">
      <defs>
       <path id="DejaVuSans-34" d="M 2419 4116 
L 825 1625 
L 2419 1625 
L 2419 4116 
z
M 2253 4666 
L 3047 4666 
L 3047 1625 
L 3713 1625 
L 3713 1100 
L 3047 1100 
L 3047 0 
L 2419 0 
L 2419 1100 
L 313 1100 
L 313 1709 
L 2253 4666 
z
" transform="scale(0.015625)"/>
      </defs>
      <use xlink:href="#DejaVuSans-34"/>
      <use xlink:href="#DejaVuSans-30" x="63.623047"/>
     </g>
    </g>
   </g>
   <g id="xtick_3">
    <g id="line2d_4">
     <path d="M 103.532529 193.750435 
L 102.269108 194.90534 
" style="fill: none; stroke: #000000; stroke-width: 0.8; stroke-linecap: square"/>
    </g>
    <g id="text_4">
     <!-- 60 -->
     <g transform="translate(91.168335 215.603687)scale(0.07 -0.07)">
      <defs>
       <path id="DejaVuSans-36" d="M 2113 2584 
Q 1688 2584 1439 2293 
Q 1191 2003 1191 1497 
Q 1191 994 1439 701 
Q 1688 409 2113 409 
Q 2538 409 2786 701 
Q 3034 994 3034 1497 
Q 3034 2003 2786 2293 
Q 2538 2584 2113 2584 
z
M 3366 4563 
L 3366 3988 
Q 3128 4100 2886 4159 
Q 2644 4219 2406 4219 
Q 1781 4219 1451 3797 
Q 1122 3375 1075 2522 
Q 1259 2794 1537 2939 
Q 1816 3084 2150 3084 
Q 2853 3084 3261 2657 
Q 3669 2231 3669 1497 
Q 3669 778 3244 343 
Q 2819 -91 2113 -91 
Q 1303 -91 875 529 
Q 447 1150 447 2328 
Q 447 3434 972 4092 
Q 1497 4750 2381 4750 
Q 2619 4750 2861 4703 
Q 3103 4656 3366 4563 
z
" transform="scale(0.015625)"/>
      </defs>
      <use xlink:href="#DejaVuSans-36"/>
      <use xlink:href="#DejaVuSans-30" x="63.623047"/>
     </g>
    </g>
   </g>
   <g id="xtick_4">
    <g id="line2d_5">
     <path d="M 118.042732 198.484784 
L 116.800004 199.660538 
" style="fill: none; stroke: #000000; stroke-width: 0.8; stroke-linecap: square"/>
    </g>
    <g id="text_5">
     <!-- 80 -->
     <g transform="translate(105.715153 220.522837)scale(0.07 -0.07)">
      <defs>
       <path id="DejaVuSans-38" d="M 2034 2216 
Q 1584 2216 1326 1975 
Q 1069 1734 1069 1313 
Q 1069 891 1326 650 
Q 1584 409 2034 409 
Q 2484 409 2743 651 
Q 3003 894 3003 1313 
Q 3003 1734 2745 1975 
Q 2488 2216 2034 2216 
z
M 1403 2484 
Q 997 2584 770 2862 
Q 544 3141 544 3541 
Q 544 4100 942 4425 
Q 1341 4750 2034 4750 
Q 2731 4750 3128 4425 
Q 3525 4100 3525 3541 
Q 3525 3141 3298 2862 
Q 3072 2584 2669 2484 
Q 3125 2378 3379 2068 
Q 3634 1759 3634 1313 
Q 3634 634 3220 271 
Q 2806 -91 2034 -91 
Q 1263 -91 848 271 
Q 434 634 434 1313 
Q 434 1759 690 2068 
Q 947 2378 1403 2484 
z
M 1172 3481 
Q 1172 3119 1398 2916 
Q 1625 2713 2034 2713 
Q 2441 2713 2670 2916 
Q 2900 3119 2900 3481 
Q 2900 3844 2670 4047 
Q 2441 4250 2034 4250 
Q 1625 4250 1398 4047 
Q 1172 3844 1172 3481 
z
" transform="scale(0.015625)"/>
      </defs>
      <use xlink:href="#DejaVuSans-38"/>
      <use xlink:href="#DejaVuSans-30" x="63.623047"/>
     </g>
    </g>
   </g>
   <g id="xtick_5">
    <g id="line2d_6">
     <path d="M 132.815776 203.304892 
L 131.594701 204.502064 
" style="fill: none; stroke: #000000; stroke-width: 0.8; stroke-linecap: square"/>
    </g>
    <g id="text_6">
     <!-- 100 -->
     <g transform="translate(118.300582 225.531764)scale(0.07 -0.07)">
      <defs>
       <path id="DejaVuSans-31" d="M 794 531 
L 1825 531 
L 1825 4091 
L 703 3866 
L 703 4441 
L 1819 4666 
L 2450 4666 
L 2450 531 
L 3481 531 
L 3481 0 
L 794 0 
L 794 531 
z
" transform="scale(0.015625)"/>
      </defs>
      <use xlink:href="#DejaVuSans-31"/>
      <use xlink:href="#DejaVuSans-30" x="63.623047"/>
      <use xlink:href="#DejaVuSans-30" x="127.246094"/>
     </g>
    </g>
   </g>
   <g id="xtick_6">
    <g id="line2d_7">
     <path d="M 147.858867 208.21311 
L 146.660449 209.432291 
" style="fill: none; stroke: #000000; stroke-width: 0.8; stroke-linecap: square"/>
    </g>
    <g id="text_7">
     <!-- 120 -->
     <g transform="translate(133.385707 230.632947)scale(0.07 -0.07)">
      <use xlink:href="#DejaVuSans-31"/>
      <use xlink:href="#DejaVuSans-32" x="63.623047"/>
      <use xlink:href="#DejaVuSans-30" x="127.246094"/>
     </g>
    </g>
   </g>
  </g>
  <g id="axis3d_2">
   <g id="line2d_8">
    <path d="M 196.388179 163.162116 
L 150.975231 209.766972 
" style="fill: none; stroke: #000000; stroke-width: 0.8; stroke-linecap: square"/>
   </g>
   <g id="text_8">
    <!-- $-\log\det(P)$ -->
    <g transform="translate(187.748029 230.922973)rotate(-45.742112)scale(0.08 -0.08)">
     <defs>
      <path id="DejaVuSans-2212" d="M 678 2272 
L 4684 2272 
L 4684 1741 
L 678 1741 
L 678 2272 
z
" transform="scale(0.015625)"/>
      <path id="DejaVuSans-6c" d="M 603 4863 
L 1178 4863 
L 1178 0 
L 603 0 
L 603 4863 
z
" transform="scale(0.015625)"/>
      <path id="DejaVuSans-67" d="M 2906 1791 
Q 2906 2416 2648 2759 
Q 2391 3103 1925 3103 
Q 1463 3103 1205 2759 
Q 947 2416 947 1791 
Q 947 1169 1205 825 
Q 1463 481 1925 481 
Q 2391 481 2648 825 
Q 2906 1169 2906 1791 
z
M 3481 434 
Q 3481 -459 3084 -895 
Q 2688 -1331 1869 -1331 
Q 1566 -1331 1297 -1286 
Q 1028 -1241 775 -1147 
L 775 -588 
Q 1028 -725 1275 -790 
Q 1522 -856 1778 -856 
Q 2344 -856 2625 -561 
Q 2906 -266 2906 331 
L 2906 616 
Q 2728 306 2450 153 
Q 2172 0 1784 0 
Q 1141 0 747 490 
Q 353 981 353 1791 
Q 353 2603 747 3093 
Q 1141 3584 1784 3584 
Q 2172 3584 2450 3431 
Q 2728 3278 2906 2969 
L 2906 3500 
L 3481 3500 
L 3481 434 
z
" transform="scale(0.015625)"/>
      <path id="DejaVuSans-64" d="M 2906 2969 
L 2906 4863 
L 3481 4863 
L 3481 0 
L 2906 0 
L 2906 525 
Q 2725 213 2448 61 
Q 2172 -91 1784 -91 
Q 1150 -91 751 415 
Q 353 922 353 1747 
Q 353 2572 751 3078 
Q 1150 3584 1784 3584 
Q 2172 3584 2448 3432 
Q 2725 3281 2906 2969 
z
M 947 1747 
Q 947 1113 1208 752 
Q 1469 391 1925 391 
Q 2381 391 2643 752 
Q 2906 1113 2906 1747 
Q 2906 2381 2643 2742 
Q 2381 3103 1925 3103 
Q 1469 3103 1208 2742 
Q 947 2381 947 1747 
z
" transform="scale(0.015625)"/>
      <path id="DejaVuSans-28" d="M 1984 4856 
Q 1566 4138 1362 3434 
Q 1159 2731 1159 2009 
Q 1159 1288 1364 580 
Q 1569 -128 1984 -844 
L 1484 -844 
Q 1016 -109 783 600 
Q 550 1309 550 2009 
Q 550 2706 781 3412 
Q 1013 4119 1484 4856 
L 1984 4856 
z
" transform="scale(0.015625)"/>
      <path id="DejaVuSans-Oblique-50" d="M 1081 4666 
L 2541 4666 
Q 3178 4666 3512 4369 
Q 3847 4072 3847 3500 
Q 3847 2731 3353 2303 
Q 2859 1875 1966 1875 
L 1172 1875 
L 806 0 
L 172 0 
L 1081 4666 
z
M 1613 4147 
L 1275 2394 
L 2069 2394 
Q 2606 2394 2893 2669 
Q 3181 2944 3181 3456 
Q 3181 3784 2986 3965 
Q 2791 4147 2438 4147 
L 1613 4147 
z
" transform="scale(0.015625)"/>
      <path id="DejaVuSans-29" d="M 513 4856 
L 1013 4856 
Q 1481 4119 1714 3412 
Q 1947 2706 1947 2009 
Q 1947 1309 1714 600 
Q 1481 -109 1013 -844 
L 513 -844 
Q 928 -128 1133 580 
Q 1338 1288 1338 2009 
Q 1338 2731 1133 3434 
Q 928 4138 513 4856 
z
" transform="scale(0.015625)"/>
     </defs>
     <use xlink:href="#DejaVuSans-2212" transform="translate(0 0.015625)"/>
     <use xlink:href="#DejaVuSans-6c" transform="translate(83.789062 0.015625)"/>
     <use xlink:href="#DejaVuSans-6f" transform="translate(111.572266 0.015625)"/>
     <use xlink:href="#DejaVuSans-67" transform="translate(172.753906 0.015625)"/>
     <use xlink:href="#DejaVuSans-64" transform="translate(252.466145 0.015625)"/>
     <use xlink:href="#DejaVuSans-65" transform="translate(315.942708 0.015625)"/>
     <use xlink:href="#DejaVuSans-74" transform="translate(377.466145 0.015625)"/>
     <use xlink:href="#DejaVuSans-28" transform="translate(416.675129 0.015625)"/>
     <use xlink:href="#DejaVuSans-Oblique-50" transform="translate(455.688801 0.015625)"/>
     <use xlink:href="#DejaVuSans-29" transform="translate(515.991536 0.015625)"/>
    </g>
   </g>
   <g id="Line3DCollection_2">
    <path d="M 67.578086 113.611857 
L 70.427668 177.70955 
L 155.454211 205.170437 
" style="fill: none; stroke: #b0b0b0; stroke-width: 0.8"/>
    <path d="M 76.00597 107.46157 
L 78.45103 170.984208 
L 162.725087 197.70873 
" style="fill: none; stroke: #b0b0b0; stroke-width: 0.8"/>
    <path d="M 84.205245 101.478113 
L 86.266111 164.433453 
L 169.797357 190.450842 
" style="fill: none; stroke: #b0b0b0; stroke-width: 0.8"/>
    <path d="M 92.185087 95.654788 
L 93.880915 158.050573 
L 176.679048 183.388533 
" style="fill: none; stroke: #b0b0b0; stroke-width: 0.8"/>
    <path d="M 99.954188 89.985252 
L 101.303046 151.829196 
L 183.377762 176.514004 
" style="fill: none; stroke: #b0b0b0; stroke-width: 0.8"/>
    <path d="M 107.520787 84.463492 
L 108.539723 145.763269 
L 189.900701 169.819864 
" style="fill: none; stroke: #b0b0b0; stroke-width: 0.8"/>
   </g>
   <g id="xtick_7">
    <g id="line2d_9">
     <path d="M 154.737782 204.939053 
L 156.888918 205.633802 
" style="fill: none; stroke: #000000; stroke-width: 0.8; stroke-linecap: square"/>
    </g>
    <g id="text_9">
     <!-- −225000 -->
     <g transform="translate(152.015122 223.883086)scale(0.07 -0.07)">
      <defs>
       <path id="DejaVuSans-35" d="M 691 4666 
L 3169 4666 
L 3169 4134 
L 1269 4134 
L 1269 2991 
Q 1406 3038 1543 3061 
Q 1681 3084 1819 3084 
Q 2600 3084 3056 2656 
Q 3513 2228 3513 1497 
Q 3513 744 3044 326 
Q 2575 -91 1722 -91 
Q 1428 -91 1123 -41 
Q 819 9 494 109 
L 494 744 
Q 775 591 1075 516 
Q 1375 441 1709 441 
Q 2250 441 2565 725 
Q 2881 1009 2881 1497 
Q 2881 1984 2565 2268 
Q 2250 2553 1709 2553 
Q 1456 2553 1204 2497 
Q 953 2441 691 2322 
L 691 4666 
z
" transform="scale(0.015625)"/>
      </defs>
      <use xlink:href="#DejaVuSans-2212"/>
      <use xlink:href="#DejaVuSans-32" x="83.789062"/>
      <use xlink:href="#DejaVuSans-32" x="147.412109"/>
      <use xlink:href="#DejaVuSans-35" x="211.035156"/>
      <use xlink:href="#DejaVuSans-30" x="274.658203"/>
      <use xlink:href="#DejaVuSans-30" x="338.28125"/>
      <use xlink:href="#DejaVuSans-30" x="401.904297"/>
     </g>
    </g>
   </g>
   <g id="xtick_8">
    <g id="line2d_10">
     <path d="M 162.015495 197.483708 
L 164.146076 198.159346 
" style="fill: none; stroke: #000000; stroke-width: 0.8; stroke-linecap: square"/>
    </g>
    <g id="text_10">
     <!-- −200000 -->
     <g transform="translate(159.115305 216.22804)scale(0.07 -0.07)">
      <use xlink:href="#DejaVuSans-2212"/>
      <use xlink:href="#DejaVuSans-32" x="83.789062"/>
      <use xlink:href="#DejaVuSans-30" x="147.412109"/>
      <use xlink:href="#DejaVuSans-30" x="211.035156"/>
      <use xlink:href="#DejaVuSans-30" x="274.658203"/>
      <use xlink:href="#DejaVuSans-30" x="338.28125"/>
      <use xlink:href="#DejaVuSans-30" x="401.904297"/>
     </g>
    </g>
   </g>
   <g id="xtick_9">
    <g id="line2d_11">
     <path d="M 169.094498 190.231923 
L 171.204837 190.889228 
" style="fill: none; stroke: #000000; stroke-width: 0.8; stroke-linecap: square"/>
    </g>
    <g id="text_11">
     <!-- −175000 -->
     <g transform="translate(166.021348 208.782306)scale(0.07 -0.07)">
      <defs>
       <path id="DejaVuSans-37" d="M 525 4666 
L 3525 4666 
L 3525 4397 
L 1831 0 
L 1172 0 
L 2766 4134 
L 525 4134 
L 525 4666 
z
" transform="scale(0.015625)"/>
      </defs>
      <use xlink:href="#DejaVuSans-2212"/>
      <use xlink:href="#DejaVuSans-31" x="83.789062"/>
      <use xlink:href="#DejaVuSans-37" x="147.412109"/>
      <use xlink:href="#DejaVuSans-35" x="211.035156"/>
      <use xlink:href="#DejaVuSans-30" x="274.658203"/>
      <use xlink:href="#DejaVuSans-30" x="338.28125"/>
      <use xlink:href="#DejaVuSans-30" x="401.904297"/>
     </g>
    </g>
   </g>
   <g id="xtick_10">
    <g id="line2d_12">
     <path d="M 175.98282 183.175473 
L 178.073227 183.815181 
" style="fill: none; stroke: #000000; stroke-width: 0.8; stroke-linecap: square"/>
    </g>
    <g id="text_12">
     <!-- −150000 -->
     <g transform="translate(172.741105 201.537415)scale(0.07 -0.07)">
      <use xlink:href="#DejaVuSans-2212"/>
      <use xlink:href="#DejaVuSans-31" x="83.789062"/>
      <use xlink:href="#DejaVuSans-35" x="147.412109"/>
      <use xlink:href="#DejaVuSans-30" x="211.035156"/>
      <use xlink:href="#DejaVuSans-30" x="274.658203"/>
      <use xlink:href="#DejaVuSans-30" x="338.28125"/>
      <use xlink:href="#DejaVuSans-30" x="401.904297"/>
     </g>
    </g>
   </g>
   <g id="xtick_11">
    <g id="line2d_13">
     <path d="M 182.688064 176.30657 
L 184.758844 176.929379 
" style="fill: none; stroke: #000000; stroke-width: 0.8; stroke-linecap: square"/>
    </g>
    <g id="text_13">
     <!-- −125000 -->
     <g transform="translate(179.282014 194.485349)scale(0.07 -0.07)">
      <use xlink:href="#DejaVuSans-2212"/>
      <use xlink:href="#DejaVuSans-31" x="83.789062"/>
      <use xlink:href="#DejaVuSans-32" x="147.412109"/>
      <use xlink:href="#DejaVuSans-35" x="211.035156"/>
      <use xlink:href="#DejaVuSans-30" x="274.658203"/>
      <use xlink:href="#DejaVuSans-30" x="338.28125"/>
      <use xlink:href="#DejaVuSans-30" x="401.904297"/>
     </g>
    </g>
   </g>
   <g id="xtick_12">
    <g id="line2d_14">
     <path d="M 189.217431 169.617837 
L 191.26889 170.224407 
" style="fill: none; stroke: #000000; stroke-width: 0.8; stroke-linecap: square"/>
    </g>
    <g id="text_14">
     <!-- −100000 -->
     <g transform="translate(185.651121 187.618511)scale(0.07 -0.07)">
      <use xlink:href="#DejaVuSans-2212"/>
      <use xlink:href="#DejaVuSans-31" x="83.789062"/>
      <use xlink:href="#DejaVuSans-30" x="147.412109"/>
      <use xlink:href="#DejaVuSans-30" x="211.035156"/>
      <use xlink:href="#DejaVuSans-30" x="274.658203"/>
      <use xlink:href="#DejaVuSans-30" x="338.28125"/>
      <use xlink:href="#DejaVuSans-30" x="401.904297"/>
     </g>
    </g>
   </g>
  </g>
  <g id="axis3d_3">
   <g id="line2d_15">
    <path d="M 196.388179 163.162116 
L 199.266008 100.317694 
" style="fill: none; stroke: #000000; stroke-width: 0.8; stroke-linecap: square"/>
   </g>
   <g id="Line3DCollection_3">
    <path d="M 196.647717 157.494478 
L 115.683059 134.233216 
L 65.211309 176.044419 
" style="fill: none; stroke: #b0b0b0; stroke-width: 0.8"/>
    <path d="M 197.164452 146.210298 
L 115.557451 123.310022 
L 64.65464 164.484824 
" style="fill: none; stroke: #b0b0b0; stroke-width: 0.8"/>
    <path d="M 197.689534 134.743854 
L 115.429912 112.218879 
L 64.088634 152.731347 
" style="fill: none; stroke: #b0b0b0; stroke-width: 0.8"/>
    <path d="M 198.223166 123.090695 
L 115.300396 100.955883 
L 63.513055 140.77907 
" style="fill: none; stroke: #b0b0b0; stroke-width: 0.8"/>
    <path d="M 198.765559 111.246223 
L 115.168858 89.517009 
L 62.927657 128.622906 
" style="fill: none; stroke: #b0b0b0; stroke-width: 0.8"/>
   </g>
   <g id="xtick_13">
    <g id="line2d_16">
     <path d="M 195.968072 157.299215 
L 198.00863 157.88547 
" style="fill: none; stroke: #000000; stroke-width: 0.8; stroke-linecap: square"/>
    </g>
    <g id="text_15">
     <!-- 0.0075 -->
     <g transform="translate(202.680579 160.233542)scale(0.07 -0.07)">
      <defs>
       <path id="DejaVuSans-2e" d="M 684 794 
L 1344 794 
L 1344 0 
L 684 0 
L 684 794 
z
" transform="scale(0.015625)"/>
      </defs>
      <use xlink:href="#DejaVuSans-30"/>
      <use xlink:href="#DejaVuSans-2e" x="63.623047"/>
      <use xlink:href="#DejaVuSans-30" x="95.410156"/>
      <use xlink:href="#DejaVuSans-30" x="159.033203"/>
      <use xlink:href="#DejaVuSans-37" x="222.65625"/>
      <use xlink:href="#DejaVuSans-35" x="286.279297"/>
     </g>
    </g>
   </g>
   <g id="xtick_14">
    <g id="line2d_17">
     <path d="M 196.479157 146.017993 
L 198.536691 146.595371 
" style="fill: none; stroke: #000000; stroke-width: 0.8; stroke-linecap: square"/>
    </g>
    <g id="text_16">
     <!-- 0.0080 -->
     <g transform="translate(203.340248 148.988541)scale(0.07 -0.07)">
      <use xlink:href="#DejaVuSans-30"/>
      <use xlink:href="#DejaVuSans-2e" x="63.623047"/>
      <use xlink:href="#DejaVuSans-30" x="95.410156"/>
      <use xlink:href="#DejaVuSans-30" x="159.033203"/>
      <use xlink:href="#DejaVuSans-38" x="222.65625"/>
      <use xlink:href="#DejaVuSans-30" x="286.279297"/>
     </g>
    </g>
   </g>
   <g id="xtick_15">
    <g id="line2d_18">
     <path d="M 196.998495 134.554628 
L 199.073289 135.122765 
" style="fill: none; stroke: #000000; stroke-width: 0.8; stroke-linecap: square"/>
    </g>
    <g id="text_17">
     <!-- 0.0085 -->
     <g transform="translate(204.010515 137.562879)scale(0.07 -0.07)">
      <use xlink:href="#DejaVuSans-30"/>
      <use xlink:href="#DejaVuSans-2e" x="63.623047"/>
      <use xlink:href="#DejaVuSans-30" x="95.410156"/>
      <use xlink:href="#DejaVuSans-30" x="159.033203"/>
      <use xlink:href="#DejaVuSans-38" x="222.65625"/>
      <use xlink:href="#DejaVuSans-35" x="286.279297"/>
     </g>
    </g>
   </g>
   <g id="xtick_16">
    <g id="line2d_19">
     <path d="M 197.526286 122.904675 
L 199.618631 123.463191 
" style="fill: none; stroke: #000000; stroke-width: 0.8; stroke-linecap: square"/>
    </g>
    <g id="text_18">
     <!-- 0.0090 -->
     <g transform="translate(204.691638 125.952167)scale(0.07 -0.07)">
      <defs>
       <path id="DejaVuSans-39" d="M 703 97 
L 703 672 
Q 941 559 1184 500 
Q 1428 441 1663 441 
Q 2288 441 2617 861 
Q 2947 1281 2994 2138 
Q 2813 1869 2534 1725 
Q 2256 1581 1919 1581 
Q 1219 1581 811 2004 
Q 403 2428 403 3163 
Q 403 3881 828 4315 
Q 1253 4750 1959 4750 
Q 2769 4750 3195 4129 
Q 3622 3509 3622 2328 
Q 3622 1225 3098 567 
Q 2575 -91 1691 -91 
Q 1453 -91 1209 -44 
Q 966 3 703 97 
z
M 1959 2075 
Q 2384 2075 2632 2365 
Q 2881 2656 2881 3163 
Q 2881 3666 2632 3958 
Q 2384 4250 1959 4250 
Q 1534 4250 1286 3958 
Q 1038 3666 1038 3163 
Q 1038 2656 1286 2365 
Q 1534 2075 1959 2075 
z
" transform="scale(0.015625)"/>
      </defs>
      <use xlink:href="#DejaVuSans-30"/>
      <use xlink:href="#DejaVuSans-2e" x="63.623047"/>
      <use xlink:href="#DejaVuSans-30" x="95.410156"/>
      <use xlink:href="#DejaVuSans-30" x="159.033203"/>
      <use xlink:href="#DejaVuSans-39" x="222.65625"/>
      <use xlink:href="#DejaVuSans-30" x="286.279297"/>
     </g>
    </g>
   </g>
   <g id="xtick_17">
    <g id="line2d_20">
     <path d="M 198.062738 111.063539 
L 200.172934 111.612041 
" style="fill: none; stroke: #000000; stroke-width: 0.8; stroke-linecap: square"/>
    </g>
    <g id="text_19">
     <!-- 0.0095 -->
     <g transform="translate(205.383883 114.151871)scale(0.07 -0.07)">
      <use xlink:href="#DejaVuSans-30"/>
      <use xlink:href="#DejaVuSans-2e" x="63.623047"/>
      <use xlink:href="#DejaVuSans-30" x="95.410156"/>
      <use xlink:href="#DejaVuSans-30" x="159.033203"/>
      <use xlink:href="#DejaVuSans-39" x="222.65625"/>
      <use xlink:href="#DejaVuSans-35" x="286.279297"/>
     </g>
    </g>
   </g>
  </g>
  <g id="axes_1">
   <g id="line2d_21">
    <path d="M 188.59257 143.356093 
L 82.042402 149.756055 
" clip-path="url(#p5f511fa775)" style="fill: none; stroke: #000000; stroke-linecap: square"/>
   </g>
   <g id="line2d_22">
    <path d="M 84.0187 150.355056 
L 82.042402 149.756055 
" clip-path="url(#p5f511fa775)" style="fill: none; stroke: #000000; stroke-linecap: square"/>
   </g>
   <g id="line2d_23">
    <path d="M 83.380285 148.675339 
L 82.042402 149.756055 
" clip-path="url(#p5f511fa775)" style="fill: none; stroke: #000000; stroke-linecap: square"/>
   </g>
   <g id="line2d_24">
    <path d="M 82.052489 150.04117 
L 82.042402 149.756055 
" clip-path="url(#p5f511fa775)" style="fill: none; stroke: #000000; stroke-linecap: square"/>
   </g>
   <g id="line2d_25">
    <path d="M 176.803868 131.341433 
L 87.126063 164.606536 
" clip-path="url(#p5f511fa775)" style="fill: none; stroke: #000000; stroke-linecap: square"/>
   </g>
   <g id="line2d_26">
    <path d="M 88.631184 165.075245 
L 87.126063 164.606536 
" clip-path="url(#p5f511fa775)" style="fill: none; stroke: #000000; stroke-linecap: square"/>
   </g>
   <g id="line2d_27">
    <path d="M 88.406142 163.53162 
L 87.126063 164.606536 
" clip-path="url(#p5f511fa775)" style="fill: none; stroke: #000000; stroke-linecap: square"/>
   </g>
   <g id="line2d_28">
    <path d="M 87.112577 164.186738 
L 87.126063 164.606536 
" clip-path="url(#p5f511fa775)" style="fill: none; stroke: #000000; stroke-linecap: square"/>
   </g>
   <g id="line2d_29">
    <path d="M 181.300071 127.565775 
L 92.450837 181.850783 
" clip-path="url(#p5f511fa775)" style="fill: none; stroke: #000000; stroke-linecap: square"/>
   </g>
   <g id="line2d_30">
    <path d="M 93.931407 182.32622 
L 92.450837 181.850783 
" clip-path="url(#p5f511fa775)" style="fill: none; stroke: #000000; stroke-linecap: square"/>
   </g>
   <g id="line2d_31">
    <path d="M 93.706169 180.750295 
L 92.450837 181.850783 
" clip-path="url(#p5f511fa775)" style="fill: none; stroke: #000000; stroke-linecap: square"/>
   </g>
   <g id="line2d_32">
    <path d="M 92.421374 180.823467 
L 92.450837 181.850783 
" clip-path="url(#p5f511fa775)" style="fill: none; stroke: #000000; stroke-linecap: square"/>
   </g>
   <g id="line2d_33">
    <path d="M 153.031322 121.030848 
L 74.061674 179.386036 
" clip-path="url(#p5f511fa775)" style="fill: none; stroke: #000000; stroke-linecap: square"/>
   </g>
   <g id="line2d_34">
    <path d="M 75.191216 179.7512 
L 74.061674 179.386036 
" clip-path="url(#p5f511fa775)" style="fill: none; stroke: #000000; stroke-linecap: square"/>
   </g>
   <g id="line2d_35">
    <path d="M 75.402443 178.251736 
L 74.061674 179.386036 
" clip-path="url(#p5f511fa775)" style="fill: none; stroke: #000000; stroke-linecap: square"/>
   </g>
   <g id="line2d_36">
    <path d="M 74.018769 178.361813 
L 74.061674 179.386036 
" clip-path="url(#p5f511fa775)" style="fill: none; stroke: #000000; stroke-linecap: square"/>
   </g>
   <g id="line2d_37">
    <path d="M 180.230129 100.753099 
L 89.255305 147.923944 
" clip-path="url(#p5f511fa775)" style="fill: none; stroke: #000000; stroke-linecap: square"/>
   </g>
   <g id="line2d_38">
    <path d="M 90.895355 148.416917 
L 89.255305 147.923944 
" clip-path="url(#p5f511fa775)" style="fill: none; stroke: #000000; stroke-linecap: square"/>
   </g>
   <g id="line2d_39">
    <path d="M 90.392771 146.997437 
L 89.255305 147.923944 
" clip-path="url(#p5f511fa775)" style="fill: none; stroke: #000000; stroke-linecap: square"/>
   </g>
   <g id="line2d_40">
    <path d="M 89.225368 146.934168 
L 89.255305 147.923944 
" clip-path="url(#p5f511fa775)" style="fill: none; stroke: #000000; stroke-linecap: square"/>
   </g>
   <g id="line2d_41">
    <path d="M 168.63459 113.229139 
L 85.592385 164.278158 
" clip-path="url(#p5f511fa775)" style="fill: none; stroke: #000000; stroke-linecap: square"/>
   </g>
   <g id="line2d_42">
    <path d="M 86.953773 164.702234 
L 85.592385 164.278158 
" clip-path="url(#p5f511fa775)" style="fill: none; stroke: #000000; stroke-linecap: square"/>
   </g>
   <g id="line2d_43">
    <path d="M 86.792926 163.273294 
L 85.592385 164.278158 
" clip-path="url(#p5f511fa775)" style="fill: none; stroke: #000000; stroke-linecap: square"/>
   </g>
   <g id="line2d_44">
    <path d="M 85.560059 163.304832 
L 85.592385 164.278158 
" clip-path="url(#p5f511fa775)" style="fill: none; stroke: #000000; stroke-linecap: square"/>
   </g>
   <g id="line2d_45">
    <path d="M 175.783481 131.113588 
L 87.631344 172.005933 
" clip-path="url(#p5f511fa775)" style="fill: none; stroke: #000000; stroke-linecap: square"/>
   </g>
   <g id="line2d_46">
    <path d="M 89.187354 172.497529 
L 87.631344 172.005933 
" clip-path="url(#p5f511fa775)" style="fill: none; stroke: #000000; stroke-linecap: square"/>
   </g>
   <g id="line2d_47">
    <path d="M 88.781303 171.025108 
L 87.631344 172.005933 
" clip-path="url(#p5f511fa775)" style="fill: none; stroke: #000000; stroke-linecap: square"/>
   </g>
   <g id="line2d_48">
    <path d="M 87.60729 171.252699 
L 87.631344 172.005933 
" clip-path="url(#p5f511fa775)" style="fill: none; stroke: #000000; stroke-linecap: square"/>
   </g>
   <g id="line2d_49">
    <path d="M 168.963072 133.123232 
L 94.957398 178.03186 
" clip-path="url(#p5f511fa775)" style="fill: none; stroke: #000000; stroke-linecap: square"/>
   </g>
   <g id="line2d_50">
    <path d="M 96.110256 178.398748 
L 94.957398 178.03186 
" clip-path="url(#p5f511fa775)" style="fill: none; stroke: #000000; stroke-linecap: square"/>
   </g>
   <g id="line2d_51">
    <path d="M 96.094401 177.038254 
L 94.957398 178.03186 
" clip-path="url(#p5f511fa775)" style="fill: none; stroke: #000000; stroke-linecap: square"/>
   </g>
   <g id="line2d_52">
    <path d="M 94.937311 177.282164 
L 94.957398 178.03186 
" clip-path="url(#p5f511fa775)" style="fill: none; stroke: #000000; stroke-linecap: square"/>
   </g>
   <g id="line2d_53">
    <path d="M 185.186982 110.941209 
L 90.534816 147.389716 
" clip-path="url(#p5f511fa775)" style="fill: none; stroke: #000000; stroke-linecap: square"/>
   </g>
   <g id="line2d_54">
    <path d="M 92.238681 147.900895 
L 90.534816 147.389716 
" clip-path="url(#p5f511fa775)" style="fill: none; stroke: #000000; stroke-linecap: square"/>
   </g>
   <g id="line2d_55">
    <path d="M 91.739071 146.40777 
L 90.534816 147.389716 
" clip-path="url(#p5f511fa775)" style="fill: none; stroke: #000000; stroke-linecap: square"/>
   </g>
   <g id="line2d_56">
    <path d="M 90.516047 146.749863 
L 90.534816 147.389716 
" clip-path="url(#p5f511fa775)" style="fill: none; stroke: #000000; stroke-linecap: square"/>
   </g>
   <g id="line2d_57">
    <path d="M 159.988321 145.027064 
L 104.173891 183.05602 
" clip-path="url(#p5f511fa775)" style="fill: none; stroke: #000000; stroke-linecap: square"/>
   </g>
   <g id="line2d_58">
    <path d="M 104.771179 183.246875 
L 104.173891 183.05602 
" clip-path="url(#p5f511fa775)" style="fill: none; stroke: #000000; stroke-linecap: square"/>
   </g>
   <g id="line2d_59">
    <path d="M 105.333978 182.015919 
L 104.173891 183.05602 
" clip-path="url(#p5f511fa775)" style="fill: none; stroke: #000000; stroke-linecap: square"/>
   </g>
   <g id="line2d_60">
    <path d="M 104.166958 182.713249 
L 104.173891 183.05602 
" clip-path="url(#p5f511fa775)" style="fill: none; stroke: #000000; stroke-linecap: square"/>
   </g>
   <g id="text_20">
    <!-- PSGD $\leftarrow$ Adam, weight decay=0 -->
    <g transform="translate(56.470909 61.189091)scale(0.09 -0.09)">
     <defs>
      <path id="DejaVuSans-50" d="M 1259 4147 
L 1259 2394 
L 2053 2394 
Q 2494 2394 2734 2622 
Q 2975 2850 2975 3272 
Q 2975 3691 2734 3919 
Q 2494 4147 2053 4147 
L 1259 4147 
z
M 628 4666 
L 2053 4666 
Q 2838 4666 3239 4311 
Q 3641 3956 3641 3272 
Q 3641 2581 3239 2228 
Q 2838 1875 2053 1875 
L 1259 1875 
L 1259 0 
L 628 0 
L 628 4666 
z
" transform="scale(0.015625)"/>
      <path id="DejaVuSans-53" d="M 3425 4513 
L 3425 3897 
Q 3066 4069 2747 4153 
Q 2428 4238 2131 4238 
Q 1616 4238 1336 4038 
Q 1056 3838 1056 3469 
Q 1056 3159 1242 3001 
Q 1428 2844 1947 2747 
L 2328 2669 
Q 3034 2534 3370 2195 
Q 3706 1856 3706 1288 
Q 3706 609 3251 259 
Q 2797 -91 1919 -91 
Q 1588 -91 1214 -16 
Q 841 59 441 206 
L 441 856 
Q 825 641 1194 531 
Q 1563 422 1919 422 
Q 2459 422 2753 634 
Q 3047 847 3047 1241 
Q 3047 1584 2836 1778 
Q 2625 1972 2144 2069 
L 1759 2144 
Q 1053 2284 737 2584 
Q 422 2884 422 3419 
Q 422 4038 858 4394 
Q 1294 4750 2059 4750 
Q 2388 4750 2728 4690 
Q 3069 4631 3425 4513 
z
" transform="scale(0.015625)"/>
      <path id="DejaVuSans-47" d="M 3809 666 
L 3809 1919 
L 2778 1919 
L 2778 2438 
L 4434 2438 
L 4434 434 
Q 4069 175 3628 42 
Q 3188 -91 2688 -91 
Q 1594 -91 976 548 
Q 359 1188 359 2328 
Q 359 3472 976 4111 
Q 1594 4750 2688 4750 
Q 3144 4750 3555 4637 
Q 3966 4525 4313 4306 
L 4313 3634 
Q 3963 3931 3569 4081 
Q 3175 4231 2741 4231 
Q 1884 4231 1454 3753 
Q 1025 3275 1025 2328 
Q 1025 1384 1454 906 
Q 1884 428 2741 428 
Q 3075 428 3337 486 
Q 3600 544 3809 666 
z
" transform="scale(0.015625)"/>
      <path id="DejaVuSans-44" d="M 1259 4147 
L 1259 519 
L 2022 519 
Q 2988 519 3436 956 
Q 3884 1394 3884 2338 
Q 3884 3275 3436 3711 
Q 2988 4147 2022 4147 
L 1259 4147 
z
M 628 4666 
L 1925 4666 
Q 3281 4666 3915 4102 
Q 4550 3538 4550 2338 
Q 4550 1131 3912 565 
Q 3275 0 1925 0 
L 628 0 
L 628 4666 
z
" transform="scale(0.015625)"/>
      <path id="DejaVuSans-2190" d="M 313 1866 
L 313 2147 
L 1541 3375 
L 1916 3000 
L 1188 2272 
L 4997 2272 
L 4997 1741 
L 1188 1741 
L 1916 1013 
L 1541 638 
L 313 1866 
z
" transform="scale(0.015625)"/>
      <path id="DejaVuSans-41" d="M 2188 4044 
L 1331 1722 
L 3047 1722 
L 2188 4044 
z
M 1831 4666 
L 2547 4666 
L 4325 0 
L 3669 0 
L 3244 1197 
L 1141 1197 
L 716 0 
L 50 0 
L 1831 4666 
z
" transform="scale(0.015625)"/>
      <path id="DejaVuSans-61" d="M 2194 1759 
Q 1497 1759 1228 1600 
Q 959 1441 959 1056 
Q 959 750 1161 570 
Q 1363 391 1709 391 
Q 2188 391 2477 730 
Q 2766 1069 2766 1631 
L 2766 1759 
L 2194 1759 
z
M 3341 1997 
L 3341 0 
L 2766 0 
L 2766 531 
Q 2569 213 2275 61 
Q 1981 -91 1556 -91 
Q 1019 -91 701 211 
Q 384 513 384 1019 
Q 384 1609 779 1909 
Q 1175 2209 1959 2209 
L 2766 2209 
L 2766 2266 
Q 2766 2663 2505 2880 
Q 2244 3097 1772 3097 
Q 1472 3097 1187 3025 
Q 903 2953 641 2809 
L 641 3341 
Q 956 3463 1253 3523 
Q 1550 3584 1831 3584 
Q 2591 3584 2966 3190 
Q 3341 2797 3341 1997 
z
" transform="scale(0.015625)"/>
      <path id="DejaVuSans-6d" d="M 3328 2828 
Q 3544 3216 3844 3400 
Q 4144 3584 4550 3584 
Q 5097 3584 5394 3201 
Q 5691 2819 5691 2113 
L 5691 0 
L 5113 0 
L 5113 2094 
Q 5113 2597 4934 2840 
Q 4756 3084 4391 3084 
Q 3944 3084 3684 2787 
Q 3425 2491 3425 1978 
L 3425 0 
L 2847 0 
L 2847 2094 
Q 2847 2600 2669 2842 
Q 2491 3084 2119 3084 
Q 1678 3084 1418 2786 
Q 1159 2488 1159 1978 
L 1159 0 
L 581 0 
L 581 3500 
L 1159 3500 
L 1159 2956 
Q 1356 3278 1631 3431 
Q 1906 3584 2284 3584 
Q 2666 3584 2933 3390 
Q 3200 3197 3328 2828 
z
" transform="scale(0.015625)"/>
      <path id="DejaVuSans-2c" d="M 750 794 
L 1409 794 
L 1409 256 
L 897 -744 
L 494 -744 
L 750 256 
L 750 794 
z
" transform="scale(0.015625)"/>
      <path id="DejaVuSans-77" d="M 269 3500 
L 844 3500 
L 1563 769 
L 2278 3500 
L 2956 3500 
L 3675 769 
L 4391 3500 
L 4966 3500 
L 4050 0 
L 3372 0 
L 2619 2869 
L 1863 0 
L 1184 0 
L 269 3500 
z
" transform="scale(0.015625)"/>
      <path id="DejaVuSans-69" d="M 603 3500 
L 1178 3500 
L 1178 0 
L 603 0 
L 603 3500 
z
M 603 4863 
L 1178 4863 
L 1178 4134 
L 603 4134 
L 603 4863 
z
" transform="scale(0.015625)"/>
      <path id="DejaVuSans-68" d="M 3513 2113 
L 3513 0 
L 2938 0 
L 2938 2094 
Q 2938 2591 2744 2837 
Q 2550 3084 2163 3084 
Q 1697 3084 1428 2787 
Q 1159 2491 1159 1978 
L 1159 0 
L 581 0 
L 581 4863 
L 1159 4863 
L 1159 2956 
Q 1366 3272 1645 3428 
Q 1925 3584 2291 3584 
Q 2894 3584 3203 3211 
Q 3513 2838 3513 2113 
z
" transform="scale(0.015625)"/>
      <path id="DejaVuSans-63" d="M 3122 3366 
L 3122 2828 
Q 2878 2963 2633 3030 
Q 2388 3097 2138 3097 
Q 1578 3097 1268 2742 
Q 959 2388 959 1747 
Q 959 1106 1268 751 
Q 1578 397 2138 397 
Q 2388 397 2633 464 
Q 2878 531 3122 666 
L 3122 134 
Q 2881 22 2623 -34 
Q 2366 -91 2075 -91 
Q 1284 -91 818 406 
Q 353 903 353 1747 
Q 353 2603 823 3093 
Q 1294 3584 2113 3584 
Q 2378 3584 2631 3529 
Q 2884 3475 3122 3366 
z
" transform="scale(0.015625)"/>
      <path id="DejaVuSans-3d" d="M 678 2906 
L 4684 2906 
L 4684 2381 
L 678 2381 
L 678 2906 
z
M 678 1631 
L 4684 1631 
L 4684 1100 
L 678 1100 
L 678 1631 
z
" transform="scale(0.015625)"/>
     </defs>
     <use xlink:href="#DejaVuSans-50" transform="translate(0 0.015625)"/>
     <use xlink:href="#DejaVuSans-53" transform="translate(60.302734 0.015625)"/>
     <use xlink:href="#DejaVuSans-47" transform="translate(123.779297 0.015625)"/>
     <use xlink:href="#DejaVuSans-44" transform="translate(201.269531 0.015625)"/>
     <use xlink:href="#DejaVuSans-20" transform="translate(278.271484 0.015625)"/>
     <use xlink:href="#DejaVuSans-2190" transform="translate(329.541016 0.015625)"/>
     <use xlink:href="#DejaVuSans-20" transform="translate(432.8125 0.015625)"/>
     <use xlink:href="#DejaVuSans-41" transform="translate(464.599609 0.015625)"/>
     <use xlink:href="#DejaVuSans-64" transform="translate(533.007812 0.015625)"/>
     <use xlink:href="#DejaVuSans-61" transform="translate(596.484375 0.015625)"/>
     <use xlink:href="#DejaVuSans-6d" transform="translate(657.763672 0.015625)"/>
     <use xlink:href="#DejaVuSans-2c" transform="translate(755.175781 0.015625)"/>
     <use xlink:href="#DejaVuSans-20" transform="translate(786.962891 0.015625)"/>
     <use xlink:href="#DejaVuSans-77" transform="translate(818.75 0.015625)"/>
     <use xlink:href="#DejaVuSans-65" transform="translate(900.537109 0.015625)"/>
     <use xlink:href="#DejaVuSans-69" transform="translate(962.060547 0.015625)"/>
     <use xlink:href="#DejaVuSans-67" transform="translate(989.84375 0.015625)"/>
     <use xlink:href="#DejaVuSans-68" transform="translate(1053.320312 0.015625)"/>
     <use xlink:href="#DejaVuSans-74" transform="translate(1116.699219 0.015625)"/>
     <use xlink:href="#DejaVuSans-20" transform="translate(1155.908203 0.015625)"/>
     <use xlink:href="#DejaVuSans-64" transform="translate(1187.695312 0.015625)"/>
     <use xlink:href="#DejaVuSans-65" transform="translate(1251.171875 0.015625)"/>
     <use xlink:href="#DejaVuSans-63" transform="translate(1312.695312 0.015625)"/>
     <use xlink:href="#DejaVuSans-61" transform="translate(1367.675781 0.015625)"/>
     <use xlink:href="#DejaVuSans-79" transform="translate(1428.955078 0.015625)"/>
     <use xlink:href="#DejaVuSans-3d" transform="translate(1488.134766 0.015625)"/>
     <use xlink:href="#DejaVuSans-30" transform="translate(1571.923828 0.015625)"/>
    </g>
   </g>
  </g>
  <g id="patch_6">
   <path d="M 236.618182 219.370909 
L 388.8 219.370909 
L 388.8 67.189091 
L 236.618182 67.189091 
z
" style="fill: #ffffff"/>
  </g>
  <g id="pane3d_4">
   <g id="patch_7">
    <path d="M 248.108959 181.84775 
L 298.364365 139.722672 
L 297.665767 78.970778 
L 245.00538 117.39993 
" style="fill: #f2f2f2; opacity: 0.5; stroke: #f2f2f2; stroke-linejoin: miter"/>
   </g>
  </g>
  <g id="pane3d_5">
   <g id="patch_8">
    <path d="M 298.364365 139.722672 
L 379.006361 163.162116 
L 381.88419 100.317694 
L 297.665767 78.970778 
" style="fill: #e6e6e6; opacity: 0.5; stroke: #e6e6e6; stroke-linejoin: miter"/>
   </g>
  </g>
  <g id="pane3d_6">
   <g id="patch_9">
    <path d="M 248.108959 181.84775 
L 333.593413 209.766972 
L 379.006361 163.162116 
L 298.364365 139.722672 
" style="fill: #ececec; opacity: 0.5; stroke: #ececec; stroke-linejoin: miter"/>
   </g>
  </g>
  <g id="axis3d_4">
   <g id="line2d_61">
    <path d="M 248.108959 181.84775 
L 333.593413 209.766972 
" style="fill: none; stroke: #000000; stroke-width: 0.8; stroke-linecap: square"/>
   </g>
   <g id="text_21">
    <!-- Cross entropy -->
    <g transform="translate(246.307885 224.428547)rotate(-341.912962)scale(0.08 -0.08)">
     <use xlink:href="#DejaVuSans-43"/>
     <use xlink:href="#DejaVuSans-72" x="69.824219"/>
     <use xlink:href="#DejaVuSans-6f" x="108.6875"/>
     <use xlink:href="#DejaVuSans-73" x="169.869141"/>
     <use xlink:href="#DejaVuSans-73" x="221.96875"/>
     <use xlink:href="#DejaVuSans-20" x="274.068359"/>
     <use xlink:href="#DejaVuSans-65" x="305.855469"/>
     <use xlink:href="#DejaVuSans-6e" x="367.378906"/>
     <use xlink:href="#DejaVuSans-74" x="430.757812"/>
     <use xlink:href="#DejaVuSans-72" x="469.966797"/>
     <use xlink:href="#DejaVuSans-6f" x="508.830078"/>
     <use xlink:href="#DejaVuSans-70" x="570.011719"/>
     <use xlink:href="#DejaVuSans-79" x="633.488281"/>
    </g>
   </g>
   <g id="Line3DCollection_4">
    <path d="M 252.268723 183.206329 
L 302.305006 140.86806 
L 301.772917 80.011821 
" style="fill: none; stroke: #b0b0b0; stroke-width: 0.8"/>
    <path d="M 265.595579 187.55888 
L 314.918424 144.534283 
L 314.925003 83.345492 
" style="fill: none; stroke: #b0b0b0; stroke-width: 0.8"/>
    <path d="M 279.148771 191.985352 
L 327.728244 148.257592 
L 328.290764 86.733323 
" style="fill: none; stroke: #b0b0b0; stroke-width: 0.8"/>
    <path d="M 292.934116 196.487646 
L 340.739089 152.039331 
L 341.875451 90.176645 
" style="fill: none; stroke: #b0b0b0; stroke-width: 0.8"/>
    <path d="M 306.957629 201.067726 
L 353.955728 155.880886 
L 355.684487 93.676833 
" style="fill: none; stroke: #b0b0b0; stroke-width: 0.8"/>
    <path d="M 321.225538 205.727624 
L 367.383082 159.783688 
L 369.723476 97.235307 
" style="fill: none; stroke: #b0b0b0; stroke-width: 0.8"/>
   </g>
   <g id="xtick_18">
    <g id="line2d_62">
     <path d="M 252.704414 182.837669 
L 251.395474 183.94523 
" style="fill: none; stroke: #000000; stroke-width: 0.8; stroke-linecap: square"/>
    </g>
    <g id="text_22">
     <!-- 140 -->
     <g transform="translate(238.036292 204.267436)scale(0.07 -0.07)">
      <use xlink:href="#DejaVuSans-31"/>
      <use xlink:href="#DejaVuSans-34" x="63.623047"/>
      <use xlink:href="#DejaVuSans-30" x="127.246094"/>
     </g>
    </g>
   </g>
   <g id="xtick_19">
    <g id="line2d_63">
     <path d="M 266.02535 187.183987 
L 264.734176 188.310286 
" style="fill: none; stroke: #000000; stroke-width: 0.8; stroke-linecap: square"/>
    </g>
    <g id="text_23">
     <!-- 160 -->
     <g transform="translate(251.386689 208.782005)scale(0.07 -0.07)">
      <use xlink:href="#DejaVuSans-31"/>
      <use xlink:href="#DejaVuSans-36" x="63.623047"/>
      <use xlink:href="#DejaVuSans-30" x="127.246094"/>
     </g>
    </g>
   </g>
   <g id="xtick_20">
    <g id="line2d_64">
     <path d="M 279.572359 191.604068 
L 278.299746 192.749583 
" style="fill: none; stroke: #000000; stroke-width: 0.8; stroke-linecap: square"/>
    </g>
    <g id="text_24">
     <!-- 180 -->
     <g transform="translate(264.965326 213.373754)scale(0.07 -0.07)">
      <use xlink:href="#DejaVuSans-31"/>
      <use xlink:href="#DejaVuSans-38" x="63.623047"/>
      <use xlink:href="#DejaVuSans-30" x="127.246094"/>
     </g>
    </g>
   </g>
   <g id="xtick_21">
    <g id="line2d_65">
     <path d="M 293.351245 196.099805 
L 292.098022 197.265033 
" style="fill: none; stroke: #000000; stroke-width: 0.8; stroke-linecap: square"/>
    </g>
    <g id="text_25">
     <!-- 200 -->
     <g transform="translate(278.778105 218.044682)scale(0.07 -0.07)">
      <use xlink:href="#DejaVuSans-32"/>
      <use xlink:href="#DejaVuSans-30" x="63.623047"/>
      <use xlink:href="#DejaVuSans-30" x="127.246094"/>
     </g>
    </g>
   </g>
   <g id="xtick_22">
    <g id="line2d_66">
     <path d="M 307.368013 200.673158 
L 306.135042 201.858612 
" style="fill: none; stroke: #000000; stroke-width: 0.8; stroke-linecap: square"/>
    </g>
    <g id="text_26">
     <!-- 220 -->
     <g transform="translate(292.831136 222.796853)scale(0.07 -0.07)">
      <use xlink:href="#DejaVuSans-32"/>
      <use xlink:href="#DejaVuSans-32" x="63.623047"/>
      <use xlink:href="#DejaVuSans-30" x="127.246094"/>
     </g>
    </g>
   </g>
   <g id="xtick_23">
    <g id="line2d_67">
     <path d="M 321.628876 205.326153 
L 320.417057 206.532364 
" style="fill: none; stroke: #000000; stroke-width: 0.8; stroke-linecap: square"/>
    </g>
    <g id="text_27">
     <!-- 240 -->
     <g transform="translate(307.130741 227.632405)scale(0.07 -0.07)">
      <use xlink:href="#DejaVuSans-32"/>
      <use xlink:href="#DejaVuSans-34" x="63.623047"/>
      <use xlink:href="#DejaVuSans-30" x="127.246094"/>
     </g>
    </g>
   </g>
  </g>
  <g id="axis3d_5">
   <g id="line2d_68">
    <path d="M 379.006361 163.162116 
L 333.593413 209.766972 
" style="fill: none; stroke: #000000; stroke-width: 0.8; stroke-linecap: square"/>
   </g>
   <g id="text_28">
    <!-- $-\log\det(P)$ -->
    <g transform="translate(370.36621 230.922973)rotate(-45.742112)scale(0.08 -0.08)">
     <use xlink:href="#DejaVuSans-2212" transform="translate(0 0.015625)"/>
     <use xlink:href="#DejaVuSans-6c" transform="translate(83.789062 0.015625)"/>
     <use xlink:href="#DejaVuSans-6f" transform="translate(111.572266 0.015625)"/>
     <use xlink:href="#DejaVuSans-67" transform="translate(172.753906 0.015625)"/>
     <use xlink:href="#DejaVuSans-64" transform="translate(252.466145 0.015625)"/>
     <use xlink:href="#DejaVuSans-65" transform="translate(315.942708 0.015625)"/>
     <use xlink:href="#DejaVuSans-74" transform="translate(377.466145 0.015625)"/>
     <use xlink:href="#DejaVuSans-28" transform="translate(416.675129 0.015625)"/>
     <use xlink:href="#DejaVuSans-Oblique-50" transform="translate(455.688801 0.015625)"/>
     <use xlink:href="#DejaVuSans-29" transform="translate(515.991536 0.015625)"/>
    </g>
   </g>
   <g id="Line3DCollection_5">
    <path d="M 251.801641 112.440328 
L 254.573418 176.429112 
L 339.457487 203.748991 
" style="fill: none; stroke: #b0b0b0; stroke-width: 0.8"/>
    <path d="M 264.155094 103.425341 
L 266.339976 166.566149 
L 350.114122 192.812661 
" style="fill: none; stroke: #b0b0b0; stroke-width: 0.8"/>
    <path d="M 276.0192 94.767457 
L 277.660176 157.077333 
L 360.345717 182.312527 
" style="fill: none; stroke: #b0b0b0; stroke-width: 0.8"/>
    <path d="M 287.422471 86.445869 
L 288.558943 147.941771 
L 370.177205 172.223003 
" style="fill: none; stroke: #b0b0b0; stroke-width: 0.8"/>
   </g>
   <g id="xtick_24">
    <g id="line2d_69">
     <path d="M 338.742353 203.518825 
L 340.889593 204.209913 
" style="fill: none; stroke: #000000; stroke-width: 0.8; stroke-linecap: square"/>
    </g>
    <g id="text_29">
     <!-- −120000 -->
     <g transform="translate(335.985896 222.424792)scale(0.07 -0.07)">
      <use xlink:href="#DejaVuSans-2212"/>
      <use xlink:href="#DejaVuSans-31" x="83.789062"/>
      <use xlink:href="#DejaVuSans-32" x="147.412109"/>
      <use xlink:href="#DejaVuSans-30" x="211.035156"/>
      <use xlink:href="#DejaVuSans-30" x="274.658203"/>
      <use xlink:href="#DejaVuSans-30" x="338.28125"/>
      <use xlink:href="#DejaVuSans-30" x="401.904297"/>
     </g>
    </g>
   </g>
   <g id="xtick_25">
    <g id="line2d_70">
     <path d="M 349.409064 192.591765 
L 351.526016 193.255008 
" style="fill: none; stroke: #000000; stroke-width: 0.8; stroke-linecap: square"/>
    </g>
    <g id="text_30">
     <!-- −110000 -->
     <g transform="translate(346.392227 211.20523)scale(0.07 -0.07)">
      <use xlink:href="#DejaVuSans-2212"/>
      <use xlink:href="#DejaVuSans-31" x="83.789062"/>
      <use xlink:href="#DejaVuSans-31" x="147.412109"/>
      <use xlink:href="#DejaVuSans-30" x="211.035156"/>
      <use xlink:href="#DejaVuSans-30" x="274.658203"/>
      <use xlink:href="#DejaVuSans-30" x="338.28125"/>
      <use xlink:href="#DejaVuSans-30" x="401.904297"/>
     </g>
    </g>
   </g>
   <g id="xtick_26">
    <g id="line2d_71">
     <path d="M 359.650507 182.100352 
L 361.737856 182.7374 
" style="fill: none; stroke: #000000; stroke-width: 0.8; stroke-linecap: square"/>
    </g>
    <g id="text_31">
     <!-- −100000 -->
     <g transform="translate(356.383086 200.433608)scale(0.07 -0.07)">
      <use xlink:href="#DejaVuSans-2212"/>
      <use xlink:href="#DejaVuSans-31" x="83.789062"/>
      <use xlink:href="#DejaVuSans-30" x="147.412109"/>
      <use xlink:href="#DejaVuSans-30" x="211.035156"/>
      <use xlink:href="#DejaVuSans-30" x="274.658203"/>
      <use xlink:href="#DejaVuSans-30" x="338.28125"/>
      <use xlink:href="#DejaVuSans-30" x="401.904297"/>
     </g>
    </g>
   </g>
   <g id="xtick_27">
    <g id="line2d_72">
     <path d="M 369.491618 172.019042 
L 371.550038 172.631417 
" style="fill: none; stroke: #000000; stroke-width: 0.8; stroke-linecap: square"/>
    </g>
    <g id="text_32">
     <!-- −90000 -->
     <g transform="translate(368.209742 190.083626)scale(0.07 -0.07)">
      <use xlink:href="#DejaVuSans-2212"/>
      <use xlink:href="#DejaVuSans-39" x="83.789062"/>
      <use xlink:href="#DejaVuSans-30" x="147.412109"/>
      <use xlink:href="#DejaVuSans-30" x="211.035156"/>
      <use xlink:href="#DejaVuSans-30" x="274.658203"/>
      <use xlink:href="#DejaVuSans-30" x="338.28125"/>
     </g>
    </g>
   </g>
  </g>
  <g id="axis3d_6">
   <g id="line2d_73">
    <path d="M 379.006361 163.162116 
L 381.88419 100.317694 
" style="fill: none; stroke: #000000; stroke-width: 0.8; stroke-linecap: square"/>
   </g>
   <g id="text_33">
    <!-- Test error rate -->
    <g transform="translate(421.503957 155.342774)rotate(-87.378092)scale(0.08 -0.08)">
     <defs>
      <path id="DejaVuSans-54" d="M -19 4666 
L 3928 4666 
L 3928 4134 
L 2272 4134 
L 2272 0 
L 1638 0 
L 1638 4134 
L -19 4134 
L -19 4666 
z
" transform="scale(0.015625)"/>
     </defs>
     <use xlink:href="#DejaVuSans-54"/>
     <use xlink:href="#DejaVuSans-65" x="44.083984"/>
     <use xlink:href="#DejaVuSans-73" x="105.607422"/>
     <use xlink:href="#DejaVuSans-74" x="157.707031"/>
     <use xlink:href="#DejaVuSans-20" x="196.916016"/>
     <use xlink:href="#DejaVuSans-65" x="228.703125"/>
     <use xlink:href="#DejaVuSans-72" x="290.226562"/>
     <use xlink:href="#DejaVuSans-72" x="329.589844"/>
     <use xlink:href="#DejaVuSans-6f" x="368.453125"/>
     <use xlink:href="#DejaVuSans-72" x="429.634766"/>
     <use xlink:href="#DejaVuSans-20" x="470.748047"/>
     <use xlink:href="#DejaVuSans-72" x="502.535156"/>
     <use xlink:href="#DejaVuSans-61" x="543.648438"/>
     <use xlink:href="#DejaVuSans-74" x="604.927734"/>
     <use xlink:href="#DejaVuSans-65" x="644.136719"/>
    </g>
   </g>
   <g id="Line3DCollection_6">
    <path d="M 379.365649 155.316184 
L 298.276986 132.123961 
L 247.722058 173.813503 
" style="fill: none; stroke: #b0b0b0; stroke-width: 0.8"/>
    <path d="M 379.74991 146.924912 
L 298.183584 124.00153 
L 247.308085 165.217087 
" style="fill: none; stroke: #b0b0b0; stroke-width: 0.8"/>
    <path d="M 380.138769 138.433215 
L 298.089119 115.786553 
L 246.888968 156.51385 
" style="fill: none; stroke: #b0b0b0; stroke-width: 0.8"/>
    <path d="M 380.53231 129.839279 
L 297.993571 107.477441 
L 246.46461 147.701791 
" style="fill: none; stroke: #b0b0b0; stroke-width: 0.8"/>
    <path d="M 380.930619 121.141247 
L 297.896921 99.072566 
L 246.034913 138.778854 
" style="fill: none; stroke: #b0b0b0; stroke-width: 0.8"/>
    <path d="M 381.333781 112.337216 
L 297.799152 90.570263 
L 245.599775 129.742933 
" style="fill: none; stroke: #b0b0b0; stroke-width: 0.8"/>
    <path d="M 381.741886 103.425237 
L 297.700242 81.968827 
L 245.159093 120.59187 
" style="fill: none; stroke: #b0b0b0; stroke-width: 0.8"/>
   </g>
   <g id="xtick_28">
    <g id="line2d_74">
     <path d="M 378.684914 155.121486 
L 380.728748 155.706044 
" style="fill: none; stroke: #000000; stroke-width: 0.8; stroke-linecap: square"/>
    </g>
    <g id="text_34">
     <!-- 0.0065 -->
     <g transform="translate(385.426108 158.062737)scale(0.07 -0.07)">
      <use xlink:href="#DejaVuSans-30"/>
      <use xlink:href="#DejaVuSans-2e" x="63.623047"/>
      <use xlink:href="#DejaVuSans-30" x="95.410156"/>
      <use xlink:href="#DejaVuSans-30" x="159.033203"/>
      <use xlink:href="#DejaVuSans-36" x="222.65625"/>
      <use xlink:href="#DejaVuSans-35" x="286.279297"/>
     </g>
    </g>
   </g>
   <g id="xtick_29">
    <g id="line2d_75">
     <path d="M 379.064973 146.732417 
L 381.121431 147.310364 
" style="fill: none; stroke: #000000; stroke-width: 0.8; stroke-linecap: square"/>
    </g>
    <g id="text_35">
     <!-- 0.0070 -->
     <g transform="translate(385.916656 149.700646)scale(0.07 -0.07)">
      <use xlink:href="#DejaVuSans-30"/>
      <use xlink:href="#DejaVuSans-2e" x="63.623047"/>
      <use xlink:href="#DejaVuSans-30" x="95.410156"/>
      <use xlink:href="#DejaVuSans-30" x="159.033203"/>
      <use xlink:href="#DejaVuSans-37" x="222.65625"/>
      <use xlink:href="#DejaVuSans-30" x="286.279297"/>
     </g>
    </g>
   </g>
   <g id="xtick_30">
    <g id="line2d_76">
     <path d="M 379.449579 138.24299 
L 381.518818 138.814124 
" style="fill: none; stroke: #000000; stroke-width: 0.8; stroke-linecap: square"/>
    </g>
    <g id="text_36">
     <!-- 0.0075 -->
     <g transform="translate(386.413043 141.239012)scale(0.07 -0.07)">
      <use xlink:href="#DejaVuSans-30"/>
      <use xlink:href="#DejaVuSans-2e" x="63.623047"/>
      <use xlink:href="#DejaVuSans-30" x="95.410156"/>
      <use xlink:href="#DejaVuSans-30" x="159.033203"/>
      <use xlink:href="#DejaVuSans-37" x="222.65625"/>
      <use xlink:href="#DejaVuSans-35" x="286.279297"/>
     </g>
    </g>
   </g>
   <g id="xtick_31">
    <g id="line2d_77">
     <path d="M 379.838813 129.651393 
L 381.920993 130.215509 
" style="fill: none; stroke: #000000; stroke-width: 0.8; stroke-linecap: square"/>
    </g>
    <g id="text_37">
     <!-- 0.0080 -->
     <g transform="translate(386.915375 132.676046)scale(0.07 -0.07)">
      <use xlink:href="#DejaVuSans-30"/>
      <use xlink:href="#DejaVuSans-2e" x="63.623047"/>
      <use xlink:href="#DejaVuSans-30" x="95.410156"/>
      <use xlink:href="#DejaVuSans-30" x="159.033203"/>
      <use xlink:href="#DejaVuSans-38" x="222.65625"/>
      <use xlink:href="#DejaVuSans-30" x="286.279297"/>
     </g>
    </g>
   </g>
   <g id="xtick_32">
    <g id="line2d_78">
     <path d="M 380.232761 120.955771 
L 382.328044 121.512655 
" style="fill: none; stroke: #000000; stroke-width: 0.8; stroke-linecap: square"/>
    </g>
    <g id="text_38">
     <!-- 0.0085 -->
     <g transform="translate(387.423759 124.009918)scale(0.07 -0.07)">
      <use xlink:href="#DejaVuSans-30"/>
      <use xlink:href="#DejaVuSans-2e" x="63.623047"/>
      <use xlink:href="#DejaVuSans-30" x="95.410156"/>
      <use xlink:href="#DejaVuSans-30" x="159.033203"/>
      <use xlink:href="#DejaVuSans-38" x="222.65625"/>
      <use xlink:href="#DejaVuSans-35" x="286.279297"/>
     </g>
    </g>
   </g>
   <g id="xtick_33">
    <g id="line2d_79">
     <path d="M 380.631507 112.154222 
L 382.740059 112.703656 
" style="fill: none; stroke: #000000; stroke-width: 0.8; stroke-linecap: square"/>
    </g>
    <g id="text_39">
     <!-- 0.0090 -->
     <g transform="translate(387.938304 115.238752)scale(0.07 -0.07)">
      <use xlink:href="#DejaVuSans-30"/>
      <use xlink:href="#DejaVuSans-2e" x="63.623047"/>
      <use xlink:href="#DejaVuSans-30" x="95.410156"/>
      <use xlink:href="#DejaVuSans-30" x="159.033203"/>
      <use xlink:href="#DejaVuSans-39" x="222.65625"/>
      <use xlink:href="#DejaVuSans-30" x="286.279297"/>
     </g>
    </g>
   </g>
   <g id="xtick_34">
    <g id="line2d_80">
     <path d="M 381.03514 103.2448 
L 383.15713 103.786558 
" style="fill: none; stroke: #000000; stroke-width: 0.8; stroke-linecap: square"/>
    </g>
    <g id="text_40">
     <!-- 0.0095 -->
     <g transform="translate(388.459125 106.360627)scale(0.07 -0.07)">
      <use xlink:href="#DejaVuSans-30"/>
      <use xlink:href="#DejaVuSans-2e" x="63.623047"/>
      <use xlink:href="#DejaVuSans-30" x="95.410156"/>
      <use xlink:href="#DejaVuSans-30" x="159.033203"/>
      <use xlink:href="#DejaVuSans-39" x="222.65625"/>
      <use xlink:href="#DejaVuSans-35" x="286.279297"/>
     </g>
    </g>
   </g>
  </g>
  <g id="axes_2">
   <g id="line2d_81">
    <path d="M 305.957584 118.414108 
L 283.629765 161.390366 
" clip-path="url(#p171cebe99a)" style="fill: none; stroke: #000000; stroke-linecap: square"/>
   </g>
   <g id="line2d_82">
    <path d="M 283.251556 161.274355 
L 283.629765 161.390366 
" clip-path="url(#p171cebe99a)" style="fill: none; stroke: #000000; stroke-linecap: square"/>
   </g>
   <g id="line2d_83">
    <path d="M 284.725334 160.454426 
L 283.629765 161.390366 
" clip-path="url(#p171cebe99a)" style="fill: none; stroke: #000000; stroke-linecap: square"/>
   </g>
   <g id="line2d_84">
    <path d="M 283.62273 161.072997 
L 283.629765 161.390366 
" clip-path="url(#p171cebe99a)" style="fill: none; stroke: #000000; stroke-linecap: square"/>
   </g>
   <g id="line2d_85">
    <path d="M 351.743863 123.595895 
L 285.306225 167.946743 
" clip-path="url(#p171cebe99a)" style="fill: none; stroke: #000000; stroke-linecap: square"/>
   </g>
   <g id="line2d_86">
    <path d="M 286.071568 168.184365 
L 285.306225 167.946743 
" clip-path="url(#p171cebe99a)" style="fill: none; stroke: #000000; stroke-linecap: square"/>
   </g>
   <g id="line2d_87">
    <path d="M 286.641147 166.787871 
L 285.306225 167.946743 
" clip-path="url(#p171cebe99a)" style="fill: none; stroke: #000000; stroke-linecap: square"/>
   </g>
   <g id="line2d_88">
    <path d="M 285.296252 167.47342 
L 285.306225 167.946743 
" clip-path="url(#p171cebe99a)" style="fill: none; stroke: #000000; stroke-linecap: square"/>
   </g>
   <g id="line2d_89">
    <path d="M 372.540962 103.473103 
L 290.41247 178.845248 
" clip-path="url(#p171cebe99a)" style="fill: none; stroke: #000000; stroke-linecap: square"/>
   </g>
   <g id="line2d_90">
    <path d="M 291.632417 179.231024 
L 290.41247 178.845248 
" clip-path="url(#p171cebe99a)" style="fill: none; stroke: #000000; stroke-linecap: square"/>
   </g>
   <g id="line2d_91">
    <path d="M 291.717177 177.677681 
L 290.41247 178.845248 
" clip-path="url(#p171cebe99a)" style="fill: none; stroke: #000000; stroke-linecap: square"/>
   </g>
   <g id="line2d_92">
    <path d="M 290.385935 177.333821 
L 290.41247 178.845248 
" clip-path="url(#p171cebe99a)" style="fill: none; stroke: #000000; stroke-linecap: square"/>
   </g>
   <g id="line2d_93">
    <path d="M 316.478502 109.279065 
L 267.678498 164.195872 
" clip-path="url(#p171cebe99a)" style="fill: none; stroke: #000000; stroke-linecap: square"/>
   </g>
   <g id="line2d_94">
    <path d="M 267.99298 164.293851 
L 267.678498 164.195872 
" clip-path="url(#p171cebe99a)" style="fill: none; stroke: #000000; stroke-linecap: square"/>
   </g>
   <g id="line2d_95">
    <path d="M 268.916617 163.160652 
L 267.678498 164.195872 
" clip-path="url(#p171cebe99a)" style="fill: none; stroke: #000000; stroke-linecap: square"/>
   </g>
   <g id="line2d_96">
    <path d="M 267.652246 163.414336 
L 267.678498 164.195872 
" clip-path="url(#p171cebe99a)" style="fill: none; stroke: #000000; stroke-linecap: square"/>
   </g>
   <g id="line2d_97">
    <path d="M 332.817008 107.672318 
L 271.711176 184.245439 
" clip-path="url(#p171cebe99a)" style="fill: none; stroke: #000000; stroke-linecap: square"/>
   </g>
   <g id="line2d_98">
    <path d="M 272.343004 184.4497 
L 271.711176 184.245439 
" clip-path="url(#p171cebe99a)" style="fill: none; stroke: #000000; stroke-linecap: square"/>
   </g>
   <g id="line2d_99">
    <path d="M 273.000736 183.116142 
L 271.711176 184.245439 
" clip-path="url(#p171cebe99a)" style="fill: none; stroke: #000000; stroke-linecap: square"/>
   </g>
   <g id="line2d_100">
    <path d="M 271.666647 182.816336 
L 271.711176 184.245439 
" clip-path="url(#p171cebe99a)" style="fill: none; stroke: #000000; stroke-linecap: square"/>
   </g>
   <g id="line2d_101">
    <path d="M 336.674675 101.582494 
L 276.341472 168.794894 
" clip-path="url(#p171cebe99a)" style="fill: none; stroke: #000000; stroke-linecap: square"/>
   </g>
   <g id="line2d_102">
    <path d="M 276.975649 168.993226 
L 276.341472 168.794894 
" clip-path="url(#p171cebe99a)" style="fill: none; stroke: #000000; stroke-linecap: square"/>
   </g>
   <g id="line2d_103">
    <path d="M 277.602207 167.715322 
L 276.341472 168.794894 
" clip-path="url(#p171cebe99a)" style="fill: none; stroke: #000000; stroke-linecap: square"/>
   </g>
   <g id="line2d_104">
    <path d="M 276.308622 167.600367 
L 276.341472 168.794894 
" clip-path="url(#p171cebe99a)" style="fill: none; stroke: #000000; stroke-linecap: square"/>
   </g>
   <g id="line2d_105">
    <path d="M 347.139635 103.363887 
L 274.341045 176.611652 
" clip-path="url(#p171cebe99a)" style="fill: none; stroke: #000000; stroke-linecap: square"/>
   </g>
   <g id="line2d_106">
    <path d="M 275.286262 176.912229 
L 274.341045 176.611652 
" clip-path="url(#p171cebe99a)" style="fill: none; stroke: #000000; stroke-linecap: square"/>
   </g>
   <g id="line2d_107">
    <path d="M 275.66619 175.463189 
L 274.341045 176.611652 
" clip-path="url(#p171cebe99a)" style="fill: none; stroke: #000000; stroke-linecap: square"/>
   </g>
   <g id="line2d_108">
    <path d="M 274.300408 175.214932 
L 274.341045 176.611652 
" clip-path="url(#p171cebe99a)" style="fill: none; stroke: #000000; stroke-linecap: square"/>
   </g>
   <g id="line2d_109">
    <path d="M 335.608201 111.812894 
L 273.159341 155.833104 
" clip-path="url(#p171cebe99a)" style="fill: none; stroke: #000000; stroke-linecap: square"/>
   </g>
   <g id="line2d_110">
    <path d="M 273.80669 156.030724 
L 273.159341 155.833104 
" clip-path="url(#p171cebe99a)" style="fill: none; stroke: #000000; stroke-linecap: square"/>
   </g>
   <g id="line2d_111">
    <path d="M 274.491805 154.727536 
L 273.159341 155.833104 
" clip-path="url(#p171cebe99a)" style="fill: none; stroke: #000000; stroke-linecap: square"/>
   </g>
   <g id="line2d_112">
    <path d="M 273.145261 155.355882 
L 273.159341 155.833104 
" clip-path="url(#p171cebe99a)" style="fill: none; stroke: #000000; stroke-linecap: square"/>
   </g>
   <g id="line2d_113">
    <path d="M 342.824342 116.256252 
L 273.448859 157.363077 
" clip-path="url(#p171cebe99a)" style="fill: none; stroke: #000000; stroke-linecap: square"/>
   </g>
   <g id="line2d_114">
    <path d="M 274.290154 157.62066 
L 273.448859 157.363077 
" clip-path="url(#p171cebe99a)" style="fill: none; stroke: #000000; stroke-linecap: square"/>
   </g>
   <g id="line2d_115">
    <path d="M 274.800777 156.23731 
L 273.448859 157.363077 
" clip-path="url(#p171cebe99a)" style="fill: none; stroke: #000000; stroke-linecap: square"/>
   </g>
   <g id="line2d_116">
    <path d="M 273.436453 156.940088 
L 273.448859 157.363077 
" clip-path="url(#p171cebe99a)" style="fill: none; stroke: #000000; stroke-linecap: square"/>
   </g>
   <g id="line2d_117">
    <path d="M 371.349515 111.738641 
L 262.236279 131.954264 
" clip-path="url(#p171cebe99a)" style="fill: none; stroke: #000000; stroke-linecap: square"/>
   </g>
   <g id="line2d_118">
    <path d="M 264.380707 132.581244 
L 262.236279 131.954264 
" clip-path="url(#p171cebe99a)" style="fill: none; stroke: #000000; stroke-linecap: square"/>
   </g>
   <g id="line2d_119">
    <path d="M 263.422197 131.035297 
L 262.236279 131.954264 
" clip-path="url(#p171cebe99a)" style="fill: none; stroke: #000000; stroke-linecap: square"/>
   </g>
   <g id="line2d_120">
    <path d="M 262.224551 131.634091 
L 262.236279 131.954264 
" clip-path="url(#p171cebe99a)" style="fill: none; stroke: #000000; stroke-linecap: square"/>
   </g>
   <g id="text_41">
    <!-- PSGD $\leftarrow$ Adam, weight decay=0.0001 -->
    <g transform="translate(226.219091 61.189091)scale(0.09 -0.09)">
     <use xlink:href="#DejaVuSans-50" transform="translate(0 0.015625)"/>
     <use xlink:href="#DejaVuSans-53" transform="translate(60.302734 0.015625)"/>
     <use xlink:href="#DejaVuSans-47" transform="translate(123.779297 0.015625)"/>
     <use xlink:href="#DejaVuSans-44" transform="translate(201.269531 0.015625)"/>
     <use xlink:href="#DejaVuSans-20" transform="translate(278.271484 0.015625)"/>
     <use xlink:href="#DejaVuSans-2190" transform="translate(329.541016 0.015625)"/>
     <use xlink:href="#DejaVuSans-20" transform="translate(432.8125 0.015625)"/>
     <use xlink:href="#DejaVuSans-41" transform="translate(464.599609 0.015625)"/>
     <use xlink:href="#DejaVuSans-64" transform="translate(533.007812 0.015625)"/>
     <use xlink:href="#DejaVuSans-61" transform="translate(596.484375 0.015625)"/>
     <use xlink:href="#DejaVuSans-6d" transform="translate(657.763672 0.015625)"/>
     <use xlink:href="#DejaVuSans-2c" transform="translate(755.175781 0.015625)"/>
     <use xlink:href="#DejaVuSans-20" transform="translate(786.962891 0.015625)"/>
     <use xlink:href="#DejaVuSans-77" transform="translate(818.75 0.015625)"/>
     <use xlink:href="#DejaVuSans-65" transform="translate(900.537109 0.015625)"/>
     <use xlink:href="#DejaVuSans-69" transform="translate(962.060547 0.015625)"/>
     <use xlink:href="#DejaVuSans-67" transform="translate(989.84375 0.015625)"/>
     <use xlink:href="#DejaVuSans-68" transform="translate(1053.320312 0.015625)"/>
     <use xlink:href="#DejaVuSans-74" transform="translate(1116.699219 0.015625)"/>
     <use xlink:href="#DejaVuSans-20" transform="translate(1155.908203 0.015625)"/>
     <use xlink:href="#DejaVuSans-64" transform="translate(1187.695312 0.015625)"/>
     <use xlink:href="#DejaVuSans-65" transform="translate(1251.171875 0.015625)"/>
     <use xlink:href="#DejaVuSans-63" transform="translate(1312.695312 0.015625)"/>
     <use xlink:href="#DejaVuSans-61" transform="translate(1367.675781 0.015625)"/>
     <use xlink:href="#DejaVuSans-79" transform="translate(1428.955078 0.015625)"/>
     <use xlink:href="#DejaVuSans-3d" transform="translate(1488.134766 0.015625)"/>
     <use xlink:href="#DejaVuSans-30" transform="translate(1571.923828 0.015625)"/>
     <use xlink:href="#DejaVuSans-2e" transform="translate(1635.546875 0.015625)"/>
     <use xlink:href="#DejaVuSans-30" transform="translate(1667.333984 0.015625)"/>
     <use xlink:href="#DejaVuSans-30" transform="translate(1730.957031 0.015625)"/>
     <use xlink:href="#DejaVuSans-30" transform="translate(1794.580078 0.015625)"/>
     <use xlink:href="#DejaVuSans-31" transform="translate(1858.203125 0.015625)"/>
    </g>
   </g>
  </g>
 </g>
 <defs>
  <clipPath id="p5f511fa775">
   <rect x="54" y="67.189091" width="152.181818" height="152.181818"/>
  </clipPath>
  <clipPath id="p171cebe99a">
   <rect x="236.618182" y="67.189091" width="152.181818" height="152.181818"/>
  </clipPath>
 </defs>
</svg>
