<?xml version="1.0" encoding="utf-8" standalone="no"?>
<!DOCTYPE svg PUBLIC "-//W3C//DTD SVG 1.1//EN"
  "http://www.w3.org/Graphics/SVG/1.1/DTD/svg11.dtd">
<svg xmlns:xlink="http://www.w3.org/1999/xlink" width="432pt" height="288pt" viewBox="0 0 432 288" xmlns="http://www.w3.org/2000/svg" version="1.1">
 <metadata>
  <rdf:RDF xmlns:dc="http://purl.org/dc/elements/1.1/" xmlns:cc="http://creativecommons.org/ns#" xmlns:rdf="http://www.w3.org/1999/02/22-rdf-syntax-ns#">
   <cc:Work>
    <dc:type rdf:resource="http://purl.org/dc/dcmitype/StillImage"/>
    <dc:date>2023-11-01T01:52:25.511141</dc:date>
    <dc:format>image/svg+xml</dc:format>
    <dc:creator>
     <cc:Agent>
      <dc:title>Matplotlib v3.5.2, https://matplotlib.org/</dc:title>
     </cc:Agent>
    </dc:creator>
   </cc:Work>
  </rdf:RDF>
 </metadata>
 <defs>
  <style type="text/css">*{stroke-linejoin: round; stroke-linecap: butt}</style>
 </defs>
 <g id="figure_1">
  <g id="patch_1">
   <path d="M 0 288 
L 432 288 
L 432 0 
L 0 0 
z
" style="fill: #ffffff"/>
  </g>
  <g id="patch_2">
   <path d="M 54 219.370909 
L 206.181818 219.370909 
L 206.181818 67.189091 
L 54 67.189091 
z
" style="fill: #ffffff"/>
  </g>
  <g id="pane3d_1">
   <g id="patch_3">
    <path d="M 65.490777 181.84775 
L 115.746183 139.722672 
L 115.047585 78.970778 
L 62.387198 117.39993 
" style="fill: #f2f2f2; opacity: 0.5; stroke: #f2f2f2; stroke-linejoin: miter"/>
   </g>
  </g>
  <g id="pane3d_2">
   <g id="patch_4">
    <path d="M 115.746183 139.722672 
L 196.388179 163.162116 
L 199.266008 100.317694 
L 115.047585 78.970778 
" style="fill: #e6e6e6; opacity: 0.5; stroke: #e6e6e6; stroke-linejoin: miter"/>
   </g>
  </g>
  <g id="pane3d_3">
   <g id="patch_5">
    <path d="M 65.490777 181.84775 
L 150.975231 209.766972 
L 196.388179 163.162116 
L 115.746183 139.722672 
" style="fill: #ececec; opacity: 0.5; stroke: #ececec; stroke-linejoin: miter"/>
   </g>
  </g>
  <g id="axis3d_1">
   <g id="line2d_1">
    <path d="M 65.490777 181.84775 
L 150.975231 209.766972 
" style="fill: none; stroke: #000000; stroke-width: 0.8; stroke-linecap: square"/>
   </g>
   <g id="text_1">
    <!-- Train cross entropy -->
    <g transform="translate(53.924809 221.239332)rotate(-341.912962)scale(0.08 -0.08)">
     <defs>
      <path id="DejaVuSans-54" d="M -19 4666 
L 3928 4666 
L 3928 4134 
L 2272 4134 
L 2272 0 
L 1638 0 
L 1638 4134 
L -19 4134 
L -19 4666 
z
" transform="scale(0.015625)"/>
      <path id="DejaVuSans-72" d="M 2631 2963 
Q 2534 3019 2420 3045 
Q 2306 3072 2169 3072 
Q 1681 3072 1420 2755 
Q 1159 2438 1159 1844 
L 1159 0 
L 581 0 
L 581 3500 
L 1159 3500 
L 1159 2956 
Q 1341 3275 1631 3429 
Q 1922 3584 2338 3584 
Q 2397 3584 2469 3576 
Q 2541 3569 2628 3553 
L 2631 2963 
z
" transform="scale(0.015625)"/>
      <path id="DejaVuSans-61" d="M 2194 1759 
Q 1497 1759 1228 1600 
Q 959 1441 959 1056 
Q 959 750 1161 570 
Q 1363 391 1709 391 
Q 2188 391 2477 730 
Q 2766 1069 2766 1631 
L 2766 1759 
L 2194 1759 
z
M 3341 1997 
L 3341 0 
L 2766 0 
L 2766 531 
Q 2569 213 2275 61 
Q 1981 -91 1556 -91 
Q 1019 -91 701 211 
Q 384 513 384 1019 
Q 384 1609 779 1909 
Q 1175 2209 1959 2209 
L 2766 2209 
L 2766 2266 
Q 2766 2663 2505 2880 
Q 2244 3097 1772 3097 
Q 1472 3097 1187 3025 
Q 903 2953 641 2809 
L 641 3341 
Q 956 3463 1253 3523 
Q 1550 3584 1831 3584 
Q 2591 3584 2966 3190 
Q 3341 2797 3341 1997 
z
" transform="scale(0.015625)"/>
      <path id="DejaVuSans-69" d="M 603 3500 
L 1178 3500 
L 1178 0 
L 603 0 
L 603 3500 
z
M 603 4863 
L 1178 4863 
L 1178 4134 
L 603 4134 
L 603 4863 
z
" transform="scale(0.015625)"/>
      <path id="DejaVuSans-6e" d="M 3513 2113 
L 3513 0 
L 2938 0 
L 2938 2094 
Q 2938 2591 2744 2837 
Q 2550 3084 2163 3084 
Q 1697 3084 1428 2787 
Q 1159 2491 1159 1978 
L 1159 0 
L 581 0 
L 581 3500 
L 1159 3500 
L 1159 2956 
Q 1366 3272 1645 3428 
Q 1925 3584 2291 3584 
Q 2894 3584 3203 3211 
Q 3513 2838 3513 2113 
z
" transform="scale(0.015625)"/>
      <path id="DejaVuSans-20" transform="scale(0.015625)"/>
      <path id="DejaVuSans-63" d="M 3122 3366 
L 3122 2828 
Q 2878 2963 2633 3030 
Q 2388 3097 2138 3097 
Q 1578 3097 1268 2742 
Q 959 2388 959 1747 
Q 959 1106 1268 751 
Q 1578 397 2138 397 
Q 2388 397 2633 464 
Q 2878 531 3122 666 
L 3122 134 
Q 2881 22 2623 -34 
Q 2366 -91 2075 -91 
Q 1284 -91 818 406 
Q 353 903 353 1747 
Q 353 2603 823 3093 
Q 1294 3584 2113 3584 
Q 2378 3584 2631 3529 
Q 2884 3475 3122 3366 
z
" transform="scale(0.015625)"/>
      <path id="DejaVuSans-6f" d="M 1959 3097 
Q 1497 3097 1228 2736 
Q 959 2375 959 1747 
Q 959 1119 1226 758 
Q 1494 397 1959 397 
Q 2419 397 2687 759 
Q 2956 1122 2956 1747 
Q 2956 2369 2687 2733 
Q 2419 3097 1959 3097 
z
M 1959 3584 
Q 2709 3584 3137 3096 
Q 3566 2609 3566 1747 
Q 3566 888 3137 398 
Q 2709 -91 1959 -91 
Q 1206 -91 779 398 
Q 353 888 353 1747 
Q 353 2609 779 3096 
Q 1206 3584 1959 3584 
z
" transform="scale(0.015625)"/>
      <path id="DejaVuSans-73" d="M 2834 3397 
L 2834 2853 
Q 2591 2978 2328 3040 
Q 2066 3103 1784 3103 
Q 1356 3103 1142 2972 
Q 928 2841 928 2578 
Q 928 2378 1081 2264 
Q 1234 2150 1697 2047 
L 1894 2003 
Q 2506 1872 2764 1633 
Q 3022 1394 3022 966 
Q 3022 478 2636 193 
Q 2250 -91 1575 -91 
Q 1294 -91 989 -36 
Q 684 19 347 128 
L 347 722 
Q 666 556 975 473 
Q 1284 391 1588 391 
Q 1994 391 2212 530 
Q 2431 669 2431 922 
Q 2431 1156 2273 1281 
Q 2116 1406 1581 1522 
L 1381 1569 
Q 847 1681 609 1914 
Q 372 2147 372 2553 
Q 372 3047 722 3315 
Q 1072 3584 1716 3584 
Q 2034 3584 2315 3537 
Q 2597 3491 2834 3397 
z
" transform="scale(0.015625)"/>
      <path id="DejaVuSans-65" d="M 3597 1894 
L 3597 1613 
L 953 1613 
Q 991 1019 1311 708 
Q 1631 397 2203 397 
Q 2534 397 2845 478 
Q 3156 559 3463 722 
L 3463 178 
Q 3153 47 2828 -22 
Q 2503 -91 2169 -91 
Q 1331 -91 842 396 
Q 353 884 353 1716 
Q 353 2575 817 3079 
Q 1281 3584 2069 3584 
Q 2775 3584 3186 3129 
Q 3597 2675 3597 1894 
z
M 3022 2063 
Q 3016 2534 2758 2815 
Q 2500 3097 2075 3097 
Q 1594 3097 1305 2825 
Q 1016 2553 972 2059 
L 3022 2063 
z
" transform="scale(0.015625)"/>
      <path id="DejaVuSans-74" d="M 1172 4494 
L 1172 3500 
L 2356 3500 
L 2356 3053 
L 1172 3053 
L 1172 1153 
Q 1172 725 1289 603 
Q 1406 481 1766 481 
L 2356 481 
L 2356 0 
L 1766 0 
Q 1100 0 847 248 
Q 594 497 594 1153 
L 594 3053 
L 172 3053 
L 172 3500 
L 594 3500 
L 594 4494 
L 1172 4494 
z
" transform="scale(0.015625)"/>
      <path id="DejaVuSans-70" d="M 1159 525 
L 1159 -1331 
L 581 -1331 
L 581 3500 
L 1159 3500 
L 1159 2969 
Q 1341 3281 1617 3432 
Q 1894 3584 2278 3584 
Q 2916 3584 3314 3078 
Q 3713 2572 3713 1747 
Q 3713 922 3314 415 
Q 2916 -91 2278 -91 
Q 1894 -91 1617 61 
Q 1341 213 1159 525 
z
M 3116 1747 
Q 3116 2381 2855 2742 
Q 2594 3103 2138 3103 
Q 1681 3103 1420 2742 
Q 1159 2381 1159 1747 
Q 1159 1113 1420 752 
Q 1681 391 2138 391 
Q 2594 391 2855 752 
Q 3116 1113 3116 1747 
z
" transform="scale(0.015625)"/>
      <path id="DejaVuSans-79" d="M 2059 -325 
Q 1816 -950 1584 -1140 
Q 1353 -1331 966 -1331 
L 506 -1331 
L 506 -850 
L 844 -850 
Q 1081 -850 1212 -737 
Q 1344 -625 1503 -206 
L 1606 56 
L 191 3500 
L 800 3500 
L 1894 763 
L 2988 3500 
L 3597 3500 
L 2059 -325 
z
" transform="scale(0.015625)"/>
     </defs>
     <use xlink:href="#DejaVuSans-54"/>
     <use xlink:href="#DejaVuSans-72" x="46.333984"/>
     <use xlink:href="#DejaVuSans-61" x="87.447266"/>
     <use xlink:href="#DejaVuSans-69" x="148.726562"/>
     <use xlink:href="#DejaVuSans-6e" x="176.509766"/>
     <use xlink:href="#DejaVuSans-20" x="239.888672"/>
     <use xlink:href="#DejaVuSans-63" x="271.675781"/>
     <use xlink:href="#DejaVuSans-72" x="326.65625"/>
     <use xlink:href="#DejaVuSans-6f" x="365.519531"/>
     <use xlink:href="#DejaVuSans-73" x="426.701172"/>
     <use xlink:href="#DejaVuSans-73" x="478.800781"/>
     <use xlink:href="#DejaVuSans-20" x="530.900391"/>
     <use xlink:href="#DejaVuSans-65" x="562.6875"/>
     <use xlink:href="#DejaVuSans-6e" x="624.210938"/>
     <use xlink:href="#DejaVuSans-74" x="687.589844"/>
     <use xlink:href="#DejaVuSans-72" x="726.798828"/>
     <use xlink:href="#DejaVuSans-6f" x="765.662109"/>
     <use xlink:href="#DejaVuSans-70" x="826.84375"/>
     <use xlink:href="#DejaVuSans-79" x="890.320312"/>
    </g>
   </g>
   <g id="Line3DCollection_1">
    <path d="M 69.425851 183.132945 
L 119.474013 140.806205 
L 118.932911 79.955595 
" style="fill: none; stroke: #b0b0b0; stroke-width: 0.8"/>
    <path d="M 83.27042 187.654581 
L 132.577384 144.614837 
L 132.595895 83.418764 
" style="fill: none; stroke: #b0b0b0; stroke-width: 0.8"/>
    <path d="M 97.359368 192.256032 
L 145.892802 148.485104 
L 146.489583 86.940408 
" style="fill: none; stroke: #b0b0b0; stroke-width: 0.8"/>
    <path d="M 111.699224 196.939429 
L 159.425458 152.418512 
L 160.619867 90.522024 
" style="fill: none; stroke: #b0b0b0; stroke-width: 0.8"/>
    <path d="M 126.296751 201.706981 
L 173.18071 156.416621 
L 174.992843 94.165154 
" style="fill: none; stroke: #b0b0b0; stroke-width: 0.8"/>
    <path d="M 141.158956 206.560977 
L 187.164096 160.481039 
L 189.614817 97.871398 
" style="fill: none; stroke: #b0b0b0; stroke-width: 0.8"/>
   </g>
   <g id="xtick_1">
    <g id="line2d_2">
     <path d="M 69.86164 182.76439 
L 68.552405 183.871636 
" style="fill: none; stroke: #000000; stroke-width: 0.8; stroke-linecap: square"/>
    </g>
    <g id="text_2">
     <!-- 0 -->
     <g transform="translate(59.646785 204.191325)scale(0.07 -0.07)">
      <defs>
       <path id="DejaVuSans-30" d="M 2034 4250 
Q 1547 4250 1301 3770 
Q 1056 3291 1056 2328 
Q 1056 1369 1301 889 
Q 1547 409 2034 409 
Q 2525 409 2770 889 
Q 3016 1369 3016 2328 
Q 3016 3291 2770 3770 
Q 2525 4250 2034 4250 
z
M 2034 4750 
Q 2819 4750 3233 4129 
Q 3647 3509 3647 2328 
Q 3647 1150 3233 529 
Q 2819 -91 2034 -91 
Q 1250 -91 836 529 
Q 422 1150 422 2328 
Q 422 3509 836 4129 
Q 1250 4750 2034 4750 
z
" transform="scale(0.015625)"/>
      </defs>
      <use xlink:href="#DejaVuSans-30"/>
     </g>
    </g>
   </g>
   <g id="xtick_2">
    <g id="line2d_3">
     <path d="M 83.70006 187.279551 
L 82.409282 188.406263 
" style="fill: none; stroke: #000000; stroke-width: 0.8; stroke-linecap: square"/>
    </g>
    <g id="text_3">
     <!-- 25 -->
     <g transform="translate(71.28894 208.881274)scale(0.07 -0.07)">
      <defs>
       <path id="DejaVuSans-32" d="M 1228 531 
L 3431 531 
L 3431 0 
L 469 0 
L 469 531 
Q 828 903 1448 1529 
Q 2069 2156 2228 2338 
Q 2531 2678 2651 2914 
Q 2772 3150 2772 3378 
Q 2772 3750 2511 3984 
Q 2250 4219 1831 4219 
Q 1534 4219 1204 4116 
Q 875 4013 500 3803 
L 500 4441 
Q 881 4594 1212 4672 
Q 1544 4750 1819 4750 
Q 2544 4750 2975 4387 
Q 3406 4025 3406 3419 
Q 3406 3131 3298 2873 
Q 3191 2616 2906 2266 
Q 2828 2175 2409 1742 
Q 1991 1309 1228 531 
z
" transform="scale(0.015625)"/>
       <path id="DejaVuSans-35" d="M 691 4666 
L 3169 4666 
L 3169 4134 
L 1269 4134 
L 1269 2991 
Q 1406 3038 1543 3061 
Q 1681 3084 1819 3084 
Q 2600 3084 3056 2656 
Q 3513 2228 3513 1497 
Q 3513 744 3044 326 
Q 2575 -91 1722 -91 
Q 1428 -91 1123 -41 
Q 819 9 494 109 
L 494 744 
Q 775 591 1075 516 
Q 1375 441 1709 441 
Q 2250 441 2565 725 
Q 2881 1009 2881 1497 
Q 2881 1984 2565 2268 
Q 2250 2553 1709 2553 
Q 1456 2553 1204 2497 
Q 953 2441 691 2322 
L 691 4666 
z
" transform="scale(0.015625)"/>
      </defs>
      <use xlink:href="#DejaVuSans-32"/>
      <use xlink:href="#DejaVuSans-35" x="63.623047"/>
     </g>
    </g>
   </g>
   <g id="xtick_3">
    <g id="line2d_4">
     <path d="M 97.782573 191.874355 
L 96.511112 193.02105 
" style="fill: none; stroke: #000000; stroke-width: 0.8; stroke-linecap: square"/>
    </g>
    <g id="text_4">
     <!-- 50 -->
     <g transform="translate(85.404403 213.654557)scale(0.07 -0.07)">
      <use xlink:href="#DejaVuSans-35"/>
      <use xlink:href="#DejaVuSans-30" x="63.623047"/>
     </g>
    </g>
   </g>
   <g id="xtick_4">
    <g id="line2d_5">
     <path d="M 112.115696 196.550927 
L 110.864447 197.718142 
" style="fill: none; stroke: #000000; stroke-width: 0.8; stroke-linecap: square"/>
    </g>
    <g id="text_5">
     <!-- 75 -->
     <g transform="translate(99.772928 218.513415)scale(0.07 -0.07)">
      <defs>
       <path id="DejaVuSans-37" d="M 525 4666 
L 3525 4666 
L 3525 4397 
L 1831 0 
L 1172 0 
L 2766 4134 
L 525 4134 
L 525 4666 
z
" transform="scale(0.015625)"/>
      </defs>
      <use xlink:href="#DejaVuSans-37"/>
      <use xlink:href="#DejaVuSans-35" x="63.623047"/>
     </g>
    </g>
   </g>
   <g id="xtick_5">
    <g id="line2d_6">
     <path d="M 126.706178 201.311469 
L 125.476076 202.49976 
" style="fill: none; stroke: #000000; stroke-width: 0.8; stroke-linecap: square"/>
    </g>
    <g id="text_6">
     <!-- 100 -->
     <g transform="translate(112.174506 223.460171)scale(0.07 -0.07)">
      <defs>
       <path id="DejaVuSans-31" d="M 794 531 
L 1825 531 
L 1825 4091 
L 703 3866 
L 703 4441 
L 1819 4666 
L 2450 4666 
L 2450 531 
L 3481 531 
L 3481 0 
L 794 0 
L 794 531 
z
" transform="scale(0.015625)"/>
      </defs>
      <use xlink:href="#DejaVuSans-31"/>
      <use xlink:href="#DejaVuSans-30" x="63.623047"/>
      <use xlink:href="#DejaVuSans-30" x="127.246094"/>
     </g>
    </g>
   </g>
   <g id="xtick_6">
    <g id="line2d_7">
     <path d="M 141.561014 206.158264 
L 140.353036 207.368207 
" style="fill: none; stroke: #000000; stroke-width: 0.8; stroke-linecap: square"/>
    </g>
    <g id="text_7">
     <!-- 125 -->
     <g transform="translate(127.070004 228.49723)scale(0.07 -0.07)">
      <use xlink:href="#DejaVuSans-31"/>
      <use xlink:href="#DejaVuSans-32" x="63.623047"/>
      <use xlink:href="#DejaVuSans-35" x="127.246094"/>
     </g>
    </g>
   </g>
  </g>
  <g id="axis3d_2">
   <g id="line2d_8">
    <path d="M 196.388179 163.162116 
L 150.975231 209.766972 
" style="fill: none; stroke: #000000; stroke-width: 0.8; stroke-linecap: square"/>
   </g>
   <g id="text_8">
    <!-- $\log\det({\rm Hess})$ -->
    <g transform="translate(185.068135 233.673204)rotate(-45.742112)scale(0.08 -0.08)">
     <defs>
      <path id="DejaVuSans-6c" d="M 603 4863 
L 1178 4863 
L 1178 0 
L 603 0 
L 603 4863 
z
" transform="scale(0.015625)"/>
      <path id="DejaVuSans-67" d="M 2906 1791 
Q 2906 2416 2648 2759 
Q 2391 3103 1925 3103 
Q 1463 3103 1205 2759 
Q 947 2416 947 1791 
Q 947 1169 1205 825 
Q 1463 481 1925 481 
Q 2391 481 2648 825 
Q 2906 1169 2906 1791 
z
M 3481 434 
Q 3481 -459 3084 -895 
Q 2688 -1331 1869 -1331 
Q 1566 -1331 1297 -1286 
Q 1028 -1241 775 -1147 
L 775 -588 
Q 1028 -725 1275 -790 
Q 1522 -856 1778 -856 
Q 2344 -856 2625 -561 
Q 2906 -266 2906 331 
L 2906 616 
Q 2728 306 2450 153 
Q 2172 0 1784 0 
Q 1141 0 747 490 
Q 353 981 353 1791 
Q 353 2603 747 3093 
Q 1141 3584 1784 3584 
Q 2172 3584 2450 3431 
Q 2728 3278 2906 2969 
L 2906 3500 
L 3481 3500 
L 3481 434 
z
" transform="scale(0.015625)"/>
      <path id="DejaVuSans-64" d="M 2906 2969 
L 2906 4863 
L 3481 4863 
L 3481 0 
L 2906 0 
L 2906 525 
Q 2725 213 2448 61 
Q 2172 -91 1784 -91 
Q 1150 -91 751 415 
Q 353 922 353 1747 
Q 353 2572 751 3078 
Q 1150 3584 1784 3584 
Q 2172 3584 2448 3432 
Q 2725 3281 2906 2969 
z
M 947 1747 
Q 947 1113 1208 752 
Q 1469 391 1925 391 
Q 2381 391 2643 752 
Q 2906 1113 2906 1747 
Q 2906 2381 2643 2742 
Q 2381 3103 1925 3103 
Q 1469 3103 1208 2742 
Q 947 2381 947 1747 
z
" transform="scale(0.015625)"/>
      <path id="DejaVuSans-28" d="M 1984 4856 
Q 1566 4138 1362 3434 
Q 1159 2731 1159 2009 
Q 1159 1288 1364 580 
Q 1569 -128 1984 -844 
L 1484 -844 
Q 1016 -109 783 600 
Q 550 1309 550 2009 
Q 550 2706 781 3412 
Q 1013 4119 1484 4856 
L 1984 4856 
z
" transform="scale(0.015625)"/>
      <path id="DejaVuSans-48" d="M 628 4666 
L 1259 4666 
L 1259 2753 
L 3553 2753 
L 3553 4666 
L 4184 4666 
L 4184 0 
L 3553 0 
L 3553 2222 
L 1259 2222 
L 1259 0 
L 628 0 
L 628 4666 
z
" transform="scale(0.015625)"/>
      <path id="DejaVuSans-29" d="M 513 4856 
L 1013 4856 
Q 1481 4119 1714 3412 
Q 1947 2706 1947 2009 
Q 1947 1309 1714 600 
Q 1481 -109 1013 -844 
L 513 -844 
Q 928 -128 1133 580 
Q 1338 1288 1338 2009 
Q 1338 2731 1133 3434 
Q 928 4138 513 4856 
z
" transform="scale(0.015625)"/>
     </defs>
     <use xlink:href="#DejaVuSans-6c" transform="translate(0 0.015625)"/>
     <use xlink:href="#DejaVuSans-6f" transform="translate(27.783203 0.015625)"/>
     <use xlink:href="#DejaVuSans-67" transform="translate(88.964844 0.015625)"/>
     <use xlink:href="#DejaVuSans-64" transform="translate(168.677083 0.015625)"/>
     <use xlink:href="#DejaVuSans-65" transform="translate(232.153645 0.015625)"/>
     <use xlink:href="#DejaVuSans-74" transform="translate(293.677083 0.015625)"/>
     <use xlink:href="#DejaVuSans-28" transform="translate(332.886067 0.015625)"/>
     <use xlink:href="#DejaVuSans-48" transform="translate(371.899739 0.015625)"/>
     <use xlink:href="#DejaVuSans-65" transform="translate(447.095051 0.015625)"/>
     <use xlink:href="#DejaVuSans-73" transform="translate(508.618489 0.015625)"/>
     <use xlink:href="#DejaVuSans-73" transform="translate(560.718098 0.015625)"/>
     <use xlink:href="#DejaVuSans-29" transform="translate(612.817708 0.015625)"/>
    </g>
   </g>
   <g id="Line3DCollection_2">
    <path d="M 64.781633 115.65258 
L 67.767591 179.939279 
L 153.041348 207.646628 
" style="fill: none; stroke: #b0b0b0; stroke-width: 0.8"/>
    <path d="M 75.683553 107.696856 
L 78.143909 171.241644 
L 162.446959 197.994158 
" style="fill: none; stroke: #b0b0b0; stroke-width: 0.8"/>
    <path d="M 86.206161 100.017936 
L 88.174672 162.833659 
L 171.523036 188.67987 
" style="fill: none; stroke: #b0b0b0; stroke-width: 0.8"/>
    <path d="M 96.368914 92.601622 
L 97.876858 154.701094 
L 180.286601 179.686296 
" style="fill: none; stroke: #b0b0b0; stroke-width: 0.8"/>
    <path d="M 106.189962 85.434668 
L 107.266352 146.830634 
L 188.753521 170.997154 
" style="fill: none; stroke: #b0b0b0; stroke-width: 0.8"/>
   </g>
   <g id="xtick_7">
    <g id="line2d_9">
     <path d="M 152.322669 207.413114 
L 154.480568 208.114263 
" style="fill: none; stroke: #000000; stroke-width: 0.8; stroke-linecap: square"/>
    </g>
    <g id="text_9">
     <!-- −130000 -->
     <g transform="translate(149.658858 226.423487)scale(0.07 -0.07)">
      <defs>
       <path id="DejaVuSans-2212" d="M 678 2272 
L 4684 2272 
L 4684 1741 
L 678 1741 
L 678 2272 
z
" transform="scale(0.015625)"/>
       <path id="DejaVuSans-33" d="M 2597 2516 
Q 3050 2419 3304 2112 
Q 3559 1806 3559 1356 
Q 3559 666 3084 287 
Q 2609 -91 1734 -91 
Q 1441 -91 1130 -33 
Q 819 25 488 141 
L 488 750 
Q 750 597 1062 519 
Q 1375 441 1716 441 
Q 2309 441 2620 675 
Q 2931 909 2931 1356 
Q 2931 1769 2642 2001 
Q 2353 2234 1838 2234 
L 1294 2234 
L 1294 2753 
L 1863 2753 
Q 2328 2753 2575 2939 
Q 2822 3125 2822 3475 
Q 2822 3834 2567 4026 
Q 2313 4219 1838 4219 
Q 1578 4219 1281 4162 
Q 984 4106 628 3988 
L 628 4550 
Q 988 4650 1302 4700 
Q 1616 4750 1894 4750 
Q 2613 4750 3031 4423 
Q 3450 4097 3450 3541 
Q 3450 3153 3228 2886 
Q 3006 2619 2597 2516 
z
" transform="scale(0.015625)"/>
      </defs>
      <use xlink:href="#DejaVuSans-2212"/>
      <use xlink:href="#DejaVuSans-31" x="83.789062"/>
      <use xlink:href="#DejaVuSans-33" x="147.412109"/>
      <use xlink:href="#DejaVuSans-30" x="211.035156"/>
      <use xlink:href="#DejaVuSans-30" x="274.658203"/>
      <use xlink:href="#DejaVuSans-30" x="338.28125"/>
      <use xlink:href="#DejaVuSans-30" x="401.904297"/>
     </g>
    </g>
   </g>
   <g id="xtick_8">
    <g id="line2d_10">
     <path d="M 161.737104 197.768895 
L 163.868475 198.445259 
" style="fill: none; stroke: #000000; stroke-width: 0.8; stroke-linecap: square"/>
    </g>
    <g id="text_10">
     <!-- −120000 -->
     <g transform="translate(158.84371 216.52086)scale(0.07 -0.07)">
      <use xlink:href="#DejaVuSans-2212"/>
      <use xlink:href="#DejaVuSans-31" x="83.789062"/>
      <use xlink:href="#DejaVuSans-32" x="147.412109"/>
      <use xlink:href="#DejaVuSans-30" x="211.035156"/>
      <use xlink:href="#DejaVuSans-30" x="274.658203"/>
      <use xlink:href="#DejaVuSans-30" x="338.28125"/>
      <use xlink:href="#DejaVuSans-30" x="401.904297"/>
     </g>
    </g>
   </g>
   <g id="xtick_9">
    <g id="line2d_11">
     <path d="M 170.821833 188.462428 
L 172.927195 189.115297 
" style="fill: none; stroke: #000000; stroke-width: 0.8; stroke-linecap: square"/>
    </g>
    <g id="text_11">
     <!-- −110000 -->
     <g transform="translate(167.706437 206.96553)scale(0.07 -0.07)">
      <use xlink:href="#DejaVuSans-2212"/>
      <use xlink:href="#DejaVuSans-31" x="83.789062"/>
      <use xlink:href="#DejaVuSans-31" x="147.412109"/>
      <use xlink:href="#DejaVuSans-30" x="211.035156"/>
      <use xlink:href="#DejaVuSans-30" x="274.658203"/>
      <use xlink:href="#DejaVuSans-30" x="338.28125"/>
      <use xlink:href="#DejaVuSans-30" x="401.904297"/>
     </g>
    </g>
   </g>
   <g id="xtick_10">
    <g id="line2d_12">
     <path d="M 179.59388 179.476275 
L 181.673745 180.106854 
" style="fill: none; stroke: #000000; stroke-width: 0.8; stroke-linecap: square"/>
    </g>
    <g id="text_12">
     <!-- −100000 -->
     <g transform="translate(176.263694 197.739543)scale(0.07 -0.07)">
      <use xlink:href="#DejaVuSans-2212"/>
      <use xlink:href="#DejaVuSans-31" x="83.789062"/>
      <use xlink:href="#DejaVuSans-30" x="147.412109"/>
      <use xlink:href="#DejaVuSans-30" x="211.035156"/>
      <use xlink:href="#DejaVuSans-30" x="274.658203"/>
      <use xlink:href="#DejaVuSans-30" x="338.28125"/>
      <use xlink:href="#DejaVuSans-30" x="401.904297"/>
     </g>
    </g>
   </g>
   <g id="xtick_11">
    <g id="line2d_13">
     <path d="M 188.069115 170.79418 
L 190.123987 171.403591 
" style="fill: none; stroke: #000000; stroke-width: 0.8; stroke-linecap: square"/>
    </g>
    <g id="text_13">
     <!-- −90000 -->
     <g transform="translate(186.757881 188.82616)scale(0.07 -0.07)">
      <defs>
       <path id="DejaVuSans-39" d="M 703 97 
L 703 672 
Q 941 559 1184 500 
Q 1428 441 1663 441 
Q 2288 441 2617 861 
Q 2947 1281 2994 2138 
Q 2813 1869 2534 1725 
Q 2256 1581 1919 1581 
Q 1219 1581 811 2004 
Q 403 2428 403 3163 
Q 403 3881 828 4315 
Q 1253 4750 1959 4750 
Q 2769 4750 3195 4129 
Q 3622 3509 3622 2328 
Q 3622 1225 3098 567 
Q 2575 -91 1691 -91 
Q 1453 -91 1209 -44 
Q 966 3 703 97 
z
M 1959 2075 
Q 2384 2075 2632 2365 
Q 2881 2656 2881 3163 
Q 2881 3666 2632 3958 
Q 2384 4250 1959 4250 
Q 1534 4250 1286 3958 
Q 1038 3666 1038 3163 
Q 1038 2656 1286 2365 
Q 1534 2075 1959 2075 
z
" transform="scale(0.015625)"/>
      </defs>
      <use xlink:href="#DejaVuSans-2212"/>
      <use xlink:href="#DejaVuSans-39" x="83.789062"/>
      <use xlink:href="#DejaVuSans-30" x="147.412109"/>
      <use xlink:href="#DejaVuSans-30" x="211.035156"/>
      <use xlink:href="#DejaVuSans-30" x="274.658203"/>
      <use xlink:href="#DejaVuSans-30" x="338.28125"/>
     </g>
    </g>
   </g>
  </g>
  <g id="axis3d_3">
   <g id="line2d_14">
    <path d="M 196.388179 163.162116 
L 199.266008 100.317694 
" style="fill: none; stroke: #000000; stroke-width: 0.8; stroke-linecap: square"/>
   </g>
   <g id="Line3DCollection_3">
    <path d="M 196.869935 152.641794 
L 115.62903 129.534756 
L 64.971958 171.074152 
" style="fill: none; stroke: #b0b0b0; stroke-width: 0.8"/>
    <path d="M 197.411238 140.821117 
L 115.497496 118.096166 
L 64.388663 158.961639 
" style="fill: none; stroke: #b0b0b0; stroke-width: 0.8"/>
    <path d="M 197.961672 128.801049 
L 115.363849 106.473945 
L 63.795149 146.636934 
" style="fill: none; stroke: #b0b0b0; stroke-width: 0.8"/>
    <path d="M 198.52147 116.576502 
L 115.22804 94.663634 
L 63.191145 134.09441 
" style="fill: none; stroke: #b0b0b0; stroke-width: 0.8"/>
    <path d="M 199.090872 104.142214 
L 115.090015 82.660631 
L 62.576372 121.328244 
" style="fill: none; stroke: #b0b0b0; stroke-width: 0.8"/>
   </g>
   <g id="xtick_12">
    <g id="line2d_15">
     <path d="M 196.187861 152.447794 
L 198.235718 153.030258 
" style="fill: none; stroke: #000000; stroke-width: 0.8; stroke-linecap: square"/>
    </g>
    <g id="text_14">
     <!-- 0.0075 -->
     <g transform="translate(202.964272 155.397591)scale(0.07 -0.07)">
      <defs>
       <path id="DejaVuSans-2e" d="M 684 794 
L 1344 794 
L 1344 0 
L 684 0 
L 684 794 
z
" transform="scale(0.015625)"/>
      </defs>
      <use xlink:href="#DejaVuSans-30"/>
      <use xlink:href="#DejaVuSans-2e" x="63.623047"/>
      <use xlink:href="#DejaVuSans-30" x="95.410156"/>
      <use xlink:href="#DejaVuSans-30" x="159.033203"/>
      <use xlink:href="#DejaVuSans-37" x="222.65625"/>
      <use xlink:href="#DejaVuSans-35" x="286.279297"/>
     </g>
    </g>
   </g>
   <g id="xtick_13">
    <g id="line2d_16">
     <path d="M 196.723244 140.63025 
L 198.788889 141.203312 
" style="fill: none; stroke: #000000; stroke-width: 0.8; stroke-linecap: square"/>
    </g>
    <g id="text_15">
     <!-- 0.0080 -->
     <g transform="translate(203.655278 143.618406)scale(0.07 -0.07)">
      <defs>
       <path id="DejaVuSans-38" d="M 2034 2216 
Q 1584 2216 1326 1975 
Q 1069 1734 1069 1313 
Q 1069 891 1326 650 
Q 1584 409 2034 409 
Q 2484 409 2743 651 
Q 3003 894 3003 1313 
Q 3003 1734 2745 1975 
Q 2488 2216 2034 2216 
z
M 1403 2484 
Q 997 2584 770 2862 
Q 544 3141 544 3541 
Q 544 4100 942 4425 
Q 1341 4750 2034 4750 
Q 2731 4750 3128 4425 
Q 3525 4100 3525 3541 
Q 3525 3141 3298 2862 
Q 3072 2584 2669 2484 
Q 3125 2378 3379 2068 
Q 3634 1759 3634 1313 
Q 3634 634 3220 271 
Q 2806 -91 2034 -91 
Q 1263 -91 848 271 
Q 434 634 434 1313 
Q 434 1759 690 2068 
Q 947 2378 1403 2484 
z
M 1172 3481 
Q 1172 3119 1398 2916 
Q 1625 2713 2034 2713 
Q 2441 2713 2670 2916 
Q 2900 3119 2900 3481 
Q 2900 3844 2670 4047 
Q 2441 4250 2034 4250 
Q 1625 4250 1398 4047 
Q 1172 3844 1172 3481 
z
" transform="scale(0.015625)"/>
      </defs>
      <use xlink:href="#DejaVuSans-30"/>
      <use xlink:href="#DejaVuSans-2e" x="63.623047"/>
      <use xlink:href="#DejaVuSans-30" x="95.410156"/>
      <use xlink:href="#DejaVuSans-30" x="159.033203"/>
      <use xlink:href="#DejaVuSans-38" x="222.65625"/>
      <use xlink:href="#DejaVuSans-30" x="286.279297"/>
     </g>
    </g>
   </g>
   <g id="xtick_14">
    <g id="line2d_17">
     <path d="M 197.267655 128.613448 
L 199.351398 129.176707 
" style="fill: none; stroke: #000000; stroke-width: 0.8; stroke-linecap: square"/>
    </g>
    <g id="text_16">
     <!-- 0.0085 -->
     <g transform="translate(204.357878 131.641594)scale(0.07 -0.07)">
      <use xlink:href="#DejaVuSans-30"/>
      <use xlink:href="#DejaVuSans-2e" x="63.623047"/>
      <use xlink:href="#DejaVuSans-30" x="95.410156"/>
      <use xlink:href="#DejaVuSans-30" x="159.033203"/>
      <use xlink:href="#DejaVuSans-38" x="222.65625"/>
      <use xlink:href="#DejaVuSans-35" x="286.279297"/>
     </g>
    </g>
   </g>
   <g id="xtick_15">
    <g id="line2d_18">
     <path d="M 197.821322 116.392307 
L 199.923485 116.945345 
" style="fill: none; stroke: #000000; stroke-width: 0.8; stroke-linecap: square"/>
    </g>
    <g id="text_17">
     <!-- 0.0090 -->
     <g transform="translate(205.072365 119.462141)scale(0.07 -0.07)">
      <use xlink:href="#DejaVuSans-30"/>
      <use xlink:href="#DejaVuSans-2e" x="63.623047"/>
      <use xlink:href="#DejaVuSans-30" x="95.410156"/>
      <use xlink:href="#DejaVuSans-30" x="159.033203"/>
      <use xlink:href="#DejaVuSans-39" x="222.65625"/>
      <use xlink:href="#DejaVuSans-30" x="286.279297"/>
     </g>
    </g>
   </g>
   <g id="xtick_16">
    <g id="line2d_19">
     <path d="M 198.384486 103.96157 
L 200.505395 104.503951 
" style="fill: none; stroke: #000000; stroke-width: 0.8; stroke-linecap: square"/>
    </g>
    <g id="text_18">
     <!-- 0.0095 -->
     <g transform="translate(205.799044 107.074859)scale(0.07 -0.07)">
      <use xlink:href="#DejaVuSans-30"/>
      <use xlink:href="#DejaVuSans-2e" x="63.623047"/>
      <use xlink:href="#DejaVuSans-30" x="95.410156"/>
      <use xlink:href="#DejaVuSans-30" x="159.033203"/>
      <use xlink:href="#DejaVuSans-39" x="222.65625"/>
      <use xlink:href="#DejaVuSans-35" x="286.279297"/>
     </g>
    </g>
   </g>
  </g>
  <g id="axes_1">
   <g id="line2d_20">
    <path d="M 170.354267 126.485573 
L 75.689431 156.312247 
" clip-path="url(#pa4c3a846fc)" style="fill: none; stroke: #000000; stroke-linecap: square"/>
   </g>
   <g id="line2d_21">
    <path d="M 77.380383 156.833788 
L 75.689431 156.312247 
" clip-path="url(#pa4c3a846fc)" style="fill: none; stroke: #000000; stroke-linecap: square"/>
   </g>
   <g id="line2d_22">
    <path d="M 76.917842 155.317067 
L 75.689431 156.312247 
" clip-path="url(#pa4c3a846fc)" style="fill: none; stroke: #000000; stroke-linecap: square"/>
   </g>
   <g id="line2d_23">
    <path d="M 75.671872 155.873815 
L 75.689431 156.312247 
" clip-path="url(#pa4c3a846fc)" style="fill: none; stroke: #000000; stroke-linecap: square"/>
   </g>
   <g id="line2d_24">
    <path d="M 175.13292 138.700084 
L 77.338023 144.631341 
" clip-path="url(#pa4c3a846fc)" style="fill: none; stroke: #000000; stroke-linecap: square"/>
   </g>
   <g id="line2d_25">
    <path d="M 79.161397 145.179751 
L 77.338023 144.631341 
" clip-path="url(#pa4c3a846fc)" style="fill: none; stroke: #000000; stroke-linecap: square"/>
   </g>
   <g id="line2d_26">
    <path d="M 78.537804 143.679932 
L 77.338023 144.631341 
" clip-path="url(#pa4c3a846fc)" style="fill: none; stroke: #000000; stroke-linecap: square"/>
   </g>
   <g id="line2d_27">
    <path d="M 77.346568 144.852939 
L 77.338023 144.631341 
" clip-path="url(#pa4c3a846fc)" style="fill: none; stroke: #000000; stroke-linecap: square"/>
   </g>
   <g id="line2d_28">
    <path d="M 187.562208 131.935887 
L 77.942347 142.092031 
" clip-path="url(#pa4c3a846fc)" style="fill: none; stroke: #000000; stroke-linecap: square"/>
   </g>
   <g id="line2d_29">
    <path d="M 80.096482 142.736238 
L 77.942347 142.092031 
" clip-path="url(#pa4c3a846fc)" style="fill: none; stroke: #000000; stroke-linecap: square"/>
   </g>
   <g id="line2d_30">
    <path d="M 79.149026 141.139276 
L 77.942347 142.092031 
" clip-path="url(#pa4c3a846fc)" style="fill: none; stroke: #000000; stroke-linecap: square"/>
   </g>
   <g id="line2d_31">
    <path d="M 77.942347 142.092031 
L 77.942347 142.092031 
" clip-path="url(#pa4c3a846fc)" style="fill: none; stroke: #000000; stroke-linecap: square"/>
   </g>
   <g id="line2d_32">
    <path d="M 173.286068 134.96904 
L 74.910883 161.360549 
" clip-path="url(#pa4c3a846fc)" style="fill: none; stroke: #000000; stroke-linecap: square"/>
   </g>
   <g id="line2d_33">
    <path d="M 76.710946 161.921739 
L 74.910883 161.360549 
" clip-path="url(#pa4c3a846fc)" style="fill: none; stroke: #000000; stroke-linecap: square"/>
   </g>
   <g id="line2d_34">
    <path d="M 76.139589 160.356168 
L 74.910883 161.360549 
" clip-path="url(#pa4c3a846fc)" style="fill: none; stroke: #000000; stroke-linecap: square"/>
   </g>
   <g id="line2d_35">
    <path d="M 74.896095 160.997628 
L 74.910883 161.360549 
" clip-path="url(#pa4c3a846fc)" style="fill: none; stroke: #000000; stroke-linecap: square"/>
   </g>
   <g id="line2d_36">
    <path d="M 175.956086 113.97107 
L 75.292831 149.790956 
" clip-path="url(#pa4c3a846fc)" style="fill: none; stroke: #000000; stroke-linecap: square"/>
   </g>
   <g id="line2d_37">
    <path d="M 77.085917 150.336775 
L 75.292831 149.790956 
" clip-path="url(#pa4c3a846fc)" style="fill: none; stroke: #000000; stroke-linecap: square"/>
   </g>
   <g id="line2d_38">
    <path d="M 76.605866 148.742063 
L 75.292831 149.790956 
" clip-path="url(#pa4c3a846fc)" style="fill: none; stroke: #000000; stroke-linecap: square"/>
   </g>
   <g id="line2d_39">
    <path d="M 75.269089 149.199549 
L 75.292831 149.790956 
" clip-path="url(#pa4c3a846fc)" style="fill: none; stroke: #000000; stroke-linecap: square"/>
   </g>
   <g id="line2d_40">
    <path d="M 149.646764 132.78716 
L 73.349164 152.991879 
" clip-path="url(#pa4c3a846fc)" style="fill: none; stroke: #000000; stroke-linecap: square"/>
   </g>
   <g id="line2d_41">
    <path d="M 74.567434 153.365636 
L 73.349164 152.991879 
" clip-path="url(#pa4c3a846fc)" style="fill: none; stroke: #000000; stroke-linecap: square"/>
   </g>
   <g id="line2d_42">
    <path d="M 74.50455 152.065785 
L 73.349164 152.991879 
" clip-path="url(#pa4c3a846fc)" style="fill: none; stroke: #000000; stroke-linecap: square"/>
   </g>
   <g id="line2d_43">
    <path d="M 73.346097 152.918163 
L 73.349164 152.991879 
" clip-path="url(#pa4c3a846fc)" style="fill: none; stroke: #000000; stroke-linecap: square"/>
   </g>
   <g id="line2d_44">
    <path d="M 166.125387 110.760841 
L 79.028616 177.039419 
" clip-path="url(#pa4c3a846fc)" style="fill: none; stroke: #000000; stroke-linecap: square"/>
   </g>
   <g id="line2d_45">
    <path d="M 80.598656 177.543092 
L 79.028616 177.039419 
" clip-path="url(#pa4c3a846fc)" style="fill: none; stroke: #000000; stroke-linecap: square"/>
   </g>
   <g id="line2d_46">
    <path d="M 80.103072 176.127108 
L 79.028616 177.039419 
" clip-path="url(#pa4c3a846fc)" style="fill: none; stroke: #000000; stroke-linecap: square"/>
   </g>
   <g id="line2d_47">
    <path d="M 78.96902 175.481056 
L 79.028616 177.039419 
" clip-path="url(#pa4c3a846fc)" style="fill: none; stroke: #000000; stroke-linecap: square"/>
   </g>
   <g id="line2d_48">
    <path d="M 175.215159 125.202977 
L 76.343961 125.183434 
" clip-path="url(#pa4c3a846fc)" style="fill: none; stroke: #000000; stroke-linecap: square"/>
   </g>
   <g id="line2d_49">
    <path d="M 78.200677 125.719502 
L 76.343961 125.183434 
" clip-path="url(#pa4c3a846fc)" style="fill: none; stroke: #000000; stroke-linecap: square"/>
   </g>
   <g id="line2d_50">
    <path d="M 77.546287 124.270276 
L 76.343961 125.183434 
" clip-path="url(#pa4c3a846fc)" style="fill: none; stroke: #000000; stroke-linecap: square"/>
   </g>
   <g id="line2d_51">
    <path d="M 76.35868 125.563477 
L 76.343961 125.183434 
" clip-path="url(#pa4c3a846fc)" style="fill: none; stroke: #000000; stroke-linecap: square"/>
   </g>
   <g id="line2d_52">
    <path d="M 184.521845 116.151589 
L 75.157889 154.920664 
" clip-path="url(#pa4c3a846fc)" style="fill: none; stroke: #000000; stroke-linecap: square"/>
   </g>
   <g id="line2d_53">
    <path d="M 77.189812 155.545801 
L 75.157889 154.920664 
" clip-path="url(#pa4c3a846fc)" style="fill: none; stroke: #000000; stroke-linecap: square"/>
   </g>
   <g id="line2d_54">
    <path d="M 76.478742 153.854569 
L 75.157889 154.920664 
" clip-path="url(#pa4c3a846fc)" style="fill: none; stroke: #000000; stroke-linecap: square"/>
   </g>
   <g id="line2d_55">
    <path d="M 75.128227 154.18623 
L 75.157889 154.920664 
" clip-path="url(#pa4c3a846fc)" style="fill: none; stroke: #000000; stroke-linecap: square"/>
   </g>
   <g id="line2d_56">
    <path d="M 185.899021 101.421949 
L 76.63208 160.16389 
" clip-path="url(#pa4c3a846fc)" style="fill: none; stroke: #000000; stroke-linecap: square"/>
   </g>
   <g id="line2d_57">
    <path d="M 78.641507 160.788161 
L 76.63208 160.16389 
" clip-path="url(#pa4c3a846fc)" style="fill: none; stroke: #000000; stroke-linecap: square"/>
   </g>
   <g id="line2d_58">
    <path d="M 77.951803 159.084649 
L 76.63208 160.16389 
" clip-path="url(#pa4c3a846fc)" style="fill: none; stroke: #000000; stroke-linecap: square"/>
   </g>
   <g id="line2d_59">
    <path d="M 76.580534 158.858545 
L 76.63208 160.16389 
" clip-path="url(#pa4c3a846fc)" style="fill: none; stroke: #000000; stroke-linecap: square"/>
   </g>
   <g id="text_19">
    <!-- PSGD $\leftarrow$ Adam, weight decay=0 -->
    <g transform="translate(56.470909 61.189091)scale(0.09 -0.09)">
     <defs>
      <path id="DejaVuSans-50" d="M 1259 4147 
L 1259 2394 
L 2053 2394 
Q 2494 2394 2734 2622 
Q 2975 2850 2975 3272 
Q 2975 3691 2734 3919 
Q 2494 4147 2053 4147 
L 1259 4147 
z
M 628 4666 
L 2053 4666 
Q 2838 4666 3239 4311 
Q 3641 3956 3641 3272 
Q 3641 2581 3239 2228 
Q 2838 1875 2053 1875 
L 1259 1875 
L 1259 0 
L 628 0 
L 628 4666 
z
" transform="scale(0.015625)"/>
      <path id="DejaVuSans-53" d="M 3425 4513 
L 3425 3897 
Q 3066 4069 2747 4153 
Q 2428 4238 2131 4238 
Q 1616 4238 1336 4038 
Q 1056 3838 1056 3469 
Q 1056 3159 1242 3001 
Q 1428 2844 1947 2747 
L 2328 2669 
Q 3034 2534 3370 2195 
Q 3706 1856 3706 1288 
Q 3706 609 3251 259 
Q 2797 -91 1919 -91 
Q 1588 -91 1214 -16 
Q 841 59 441 206 
L 441 856 
Q 825 641 1194 531 
Q 1563 422 1919 422 
Q 2459 422 2753 634 
Q 3047 847 3047 1241 
Q 3047 1584 2836 1778 
Q 2625 1972 2144 2069 
L 1759 2144 
Q 1053 2284 737 2584 
Q 422 2884 422 3419 
Q 422 4038 858 4394 
Q 1294 4750 2059 4750 
Q 2388 4750 2728 4690 
Q 3069 4631 3425 4513 
z
" transform="scale(0.015625)"/>
      <path id="DejaVuSans-47" d="M 3809 666 
L 3809 1919 
L 2778 1919 
L 2778 2438 
L 4434 2438 
L 4434 434 
Q 4069 175 3628 42 
Q 3188 -91 2688 -91 
Q 1594 -91 976 548 
Q 359 1188 359 2328 
Q 359 3472 976 4111 
Q 1594 4750 2688 4750 
Q 3144 4750 3555 4637 
Q 3966 4525 4313 4306 
L 4313 3634 
Q 3963 3931 3569 4081 
Q 3175 4231 2741 4231 
Q 1884 4231 1454 3753 
Q 1025 3275 1025 2328 
Q 1025 1384 1454 906 
Q 1884 428 2741 428 
Q 3075 428 3337 486 
Q 3600 544 3809 666 
z
" transform="scale(0.015625)"/>
      <path id="DejaVuSans-44" d="M 1259 4147 
L 1259 519 
L 2022 519 
Q 2988 519 3436 956 
Q 3884 1394 3884 2338 
Q 3884 3275 3436 3711 
Q 2988 4147 2022 4147 
L 1259 4147 
z
M 628 4666 
L 1925 4666 
Q 3281 4666 3915 4102 
Q 4550 3538 4550 2338 
Q 4550 1131 3912 565 
Q 3275 0 1925 0 
L 628 0 
L 628 4666 
z
" transform="scale(0.015625)"/>
      <path id="DejaVuSans-2190" d="M 313 1866 
L 313 2147 
L 1541 3375 
L 1916 3000 
L 1188 2272 
L 4997 2272 
L 4997 1741 
L 1188 1741 
L 1916 1013 
L 1541 638 
L 313 1866 
z
" transform="scale(0.015625)"/>
      <path id="DejaVuSans-41" d="M 2188 4044 
L 1331 1722 
L 3047 1722 
L 2188 4044 
z
M 1831 4666 
L 2547 4666 
L 4325 0 
L 3669 0 
L 3244 1197 
L 1141 1197 
L 716 0 
L 50 0 
L 1831 4666 
z
" transform="scale(0.015625)"/>
      <path id="DejaVuSans-6d" d="M 3328 2828 
Q 3544 3216 3844 3400 
Q 4144 3584 4550 3584 
Q 5097 3584 5394 3201 
Q 5691 2819 5691 2113 
L 5691 0 
L 5113 0 
L 5113 2094 
Q 5113 2597 4934 2840 
Q 4756 3084 4391 3084 
Q 3944 3084 3684 2787 
Q 3425 2491 3425 1978 
L 3425 0 
L 2847 0 
L 2847 2094 
Q 2847 2600 2669 2842 
Q 2491 3084 2119 3084 
Q 1678 3084 1418 2786 
Q 1159 2488 1159 1978 
L 1159 0 
L 581 0 
L 581 3500 
L 1159 3500 
L 1159 2956 
Q 1356 3278 1631 3431 
Q 1906 3584 2284 3584 
Q 2666 3584 2933 3390 
Q 3200 3197 3328 2828 
z
" transform="scale(0.015625)"/>
      <path id="DejaVuSans-2c" d="M 750 794 
L 1409 794 
L 1409 256 
L 897 -744 
L 494 -744 
L 750 256 
L 750 794 
z
" transform="scale(0.015625)"/>
      <path id="DejaVuSans-77" d="M 269 3500 
L 844 3500 
L 1563 769 
L 2278 3500 
L 2956 3500 
L 3675 769 
L 4391 3500 
L 4966 3500 
L 4050 0 
L 3372 0 
L 2619 2869 
L 1863 0 
L 1184 0 
L 269 3500 
z
" transform="scale(0.015625)"/>
      <path id="DejaVuSans-68" d="M 3513 2113 
L 3513 0 
L 2938 0 
L 2938 2094 
Q 2938 2591 2744 2837 
Q 2550 3084 2163 3084 
Q 1697 3084 1428 2787 
Q 1159 2491 1159 1978 
L 1159 0 
L 581 0 
L 581 4863 
L 1159 4863 
L 1159 2956 
Q 1366 3272 1645 3428 
Q 1925 3584 2291 3584 
Q 2894 3584 3203 3211 
Q 3513 2838 3513 2113 
z
" transform="scale(0.015625)"/>
      <path id="DejaVuSans-3d" d="M 678 2906 
L 4684 2906 
L 4684 2381 
L 678 2381 
L 678 2906 
z
M 678 1631 
L 4684 1631 
L 4684 1100 
L 678 1100 
L 678 1631 
z
" transform="scale(0.015625)"/>
     </defs>
     <use xlink:href="#DejaVuSans-50" transform="translate(0 0.015625)"/>
     <use xlink:href="#DejaVuSans-53" transform="translate(60.302734 0.015625)"/>
     <use xlink:href="#DejaVuSans-47" transform="translate(123.779297 0.015625)"/>
     <use xlink:href="#DejaVuSans-44" transform="translate(201.269531 0.015625)"/>
     <use xlink:href="#DejaVuSans-20" transform="translate(278.271484 0.015625)"/>
     <use xlink:href="#DejaVuSans-2190" transform="translate(329.541016 0.015625)"/>
     <use xlink:href="#DejaVuSans-20" transform="translate(432.8125 0.015625)"/>
     <use xlink:href="#DejaVuSans-41" transform="translate(464.599609 0.015625)"/>
     <use xlink:href="#DejaVuSans-64" transform="translate(533.007812 0.015625)"/>
     <use xlink:href="#DejaVuSans-61" transform="translate(596.484375 0.015625)"/>
     <use xlink:href="#DejaVuSans-6d" transform="translate(657.763672 0.015625)"/>
     <use xlink:href="#DejaVuSans-2c" transform="translate(755.175781 0.015625)"/>
     <use xlink:href="#DejaVuSans-20" transform="translate(786.962891 0.015625)"/>
     <use xlink:href="#DejaVuSans-77" transform="translate(818.75 0.015625)"/>
     <use xlink:href="#DejaVuSans-65" transform="translate(900.537109 0.015625)"/>
     <use xlink:href="#DejaVuSans-69" transform="translate(962.060547 0.015625)"/>
     <use xlink:href="#DejaVuSans-67" transform="translate(989.84375 0.015625)"/>
     <use xlink:href="#DejaVuSans-68" transform="translate(1053.320312 0.015625)"/>
     <use xlink:href="#DejaVuSans-74" transform="translate(1116.699219 0.015625)"/>
     <use xlink:href="#DejaVuSans-20" transform="translate(1155.908203 0.015625)"/>
     <use xlink:href="#DejaVuSans-64" transform="translate(1187.695312 0.015625)"/>
     <use xlink:href="#DejaVuSans-65" transform="translate(1251.171875 0.015625)"/>
     <use xlink:href="#DejaVuSans-63" transform="translate(1312.695312 0.015625)"/>
     <use xlink:href="#DejaVuSans-61" transform="translate(1367.675781 0.015625)"/>
     <use xlink:href="#DejaVuSans-79" transform="translate(1428.955078 0.015625)"/>
     <use xlink:href="#DejaVuSans-3d" transform="translate(1488.134766 0.015625)"/>
     <use xlink:href="#DejaVuSans-30" transform="translate(1571.923828 0.015625)"/>
    </g>
   </g>
  </g>
  <g id="patch_6">
   <path d="M 236.618182 219.370909 
L 388.8 219.370909 
L 388.8 67.189091 
L 236.618182 67.189091 
z
" style="fill: #ffffff"/>
  </g>
  <g id="pane3d_4">
   <g id="patch_7">
    <path d="M 248.108959 181.84775 
L 298.364365 139.722672 
L 297.665767 78.970778 
L 245.00538 117.39993 
" style="fill: #f2f2f2; opacity: 0.5; stroke: #f2f2f2; stroke-linejoin: miter"/>
   </g>
  </g>
  <g id="pane3d_5">
   <g id="patch_8">
    <path d="M 298.364365 139.722672 
L 379.006361 163.162116 
L 381.88419 100.317694 
L 297.665767 78.970778 
" style="fill: #e6e6e6; opacity: 0.5; stroke: #e6e6e6; stroke-linejoin: miter"/>
   </g>
  </g>
  <g id="pane3d_6">
   <g id="patch_9">
    <path d="M 248.108959 181.84775 
L 333.593413 209.766972 
L 379.006361 163.162116 
L 298.364365 139.722672 
" style="fill: #ececec; opacity: 0.5; stroke: #ececec; stroke-linejoin: miter"/>
   </g>
  </g>
  <g id="axis3d_4">
   <g id="line2d_60">
    <path d="M 248.108959 181.84775 
L 333.593413 209.766972 
" style="fill: none; stroke: #000000; stroke-width: 0.8; stroke-linecap: square"/>
   </g>
   <g id="text_20">
    <!-- Train cross entropy -->
    <g transform="translate(236.54299 221.239332)rotate(-341.912962)scale(0.08 -0.08)">
     <use xlink:href="#DejaVuSans-54"/>
     <use xlink:href="#DejaVuSans-72" x="46.333984"/>
     <use xlink:href="#DejaVuSans-61" x="87.447266"/>
     <use xlink:href="#DejaVuSans-69" x="148.726562"/>
     <use xlink:href="#DejaVuSans-6e" x="176.509766"/>
     <use xlink:href="#DejaVuSans-20" x="239.888672"/>
     <use xlink:href="#DejaVuSans-63" x="271.675781"/>
     <use xlink:href="#DejaVuSans-72" x="326.65625"/>
     <use xlink:href="#DejaVuSans-6f" x="365.519531"/>
     <use xlink:href="#DejaVuSans-73" x="426.701172"/>
     <use xlink:href="#DejaVuSans-73" x="478.800781"/>
     <use xlink:href="#DejaVuSans-20" x="530.900391"/>
     <use xlink:href="#DejaVuSans-65" x="562.6875"/>
     <use xlink:href="#DejaVuSans-6e" x="624.210938"/>
     <use xlink:href="#DejaVuSans-74" x="687.589844"/>
     <use xlink:href="#DejaVuSans-72" x="726.798828"/>
     <use xlink:href="#DejaVuSans-6f" x="765.662109"/>
     <use xlink:href="#DejaVuSans-70" x="826.84375"/>
     <use xlink:href="#DejaVuSans-79" x="890.320312"/>
    </g>
   </g>
   <g id="Line3DCollection_4">
    <path d="M 257.728186 184.989389 
L 307.474306 142.370572 
L 307.161927 81.377778 
" style="fill: none; stroke: #b0b0b0; stroke-width: 0.8"/>
    <path d="M 274.428963 190.443863 
L 323.269348 146.961567 
L 323.637336 85.553814 
" style="fill: none; stroke: #b0b0b0; stroke-width: 0.8"/>
    <path d="M 291.484714 196.014272 
L 339.371991 151.641969 
L 340.447622 89.814732 
" style="fill: none; stroke: #b0b0b0; stroke-width: 0.8"/>
    <path d="M 308.906879 201.704351 
L 355.791309 156.414417 
L 357.603099 94.163145 
" style="fill: none; stroke: #b0b0b0; stroke-width: 0.8"/>
    <path d="M 326.707394 207.517999 
L 372.536736 161.281652 
L 375.11451 98.601777 
" style="fill: none; stroke: #b0b0b0; stroke-width: 0.8"/>
   </g>
   <g id="xtick_17">
    <g id="line2d_61">
     <path d="M 258.161471 184.618183 
L 256.859751 185.7334 
" style="fill: none; stroke: #000000; stroke-width: 0.8; stroke-linecap: square"/>
    </g>
    <g id="text_21">
     <!-- 50 -->
     <g transform="translate(245.732096 206.116809)scale(0.07 -0.07)">
      <use xlink:href="#DejaVuSans-35"/>
      <use xlink:href="#DejaVuSans-30" x="63.623047"/>
     </g>
    </g>
   </g>
   <g id="xtick_18">
    <g id="line2d_62">
     <path d="M 274.854723 190.064811 
L 273.57559 191.203615 
" style="fill: none; stroke: #000000; stroke-width: 0.8; stroke-linecap: square"/>
    </g>
    <g id="text_22">
     <!-- 100 -->
     <g transform="translate(260.236485 211.77465)scale(0.07 -0.07)">
      <use xlink:href="#DejaVuSans-31"/>
      <use xlink:href="#DejaVuSans-30" x="63.623047"/>
      <use xlink:href="#DejaVuSans-30" x="127.246094"/>
     </g>
    </g>
   </g>
   <g id="xtick_19">
    <g id="line2d_63">
     <path d="M 291.902531 195.627123 
L 290.647245 196.79027 
" style="fill: none; stroke: #000000; stroke-width: 0.8; stroke-linecap: square"/>
    </g>
    <g id="text_23">
     <!-- 150 -->
     <g transform="translate(277.325745 217.553552)scale(0.07 -0.07)">
      <use xlink:href="#DejaVuSans-31"/>
      <use xlink:href="#DejaVuSans-35" x="63.623047"/>
      <use xlink:href="#DejaVuSans-30" x="127.246094"/>
     </g>
    </g>
   </g>
   <g id="xtick_20">
    <g id="line2d_64">
     <path d="M 309.316311 201.308843 
L 308.086197 202.497122 
" style="fill: none; stroke: #000000; stroke-width: 0.8; stroke-linecap: square"/>
    </g>
    <g id="text_24">
     <!-- 200 -->
     <g transform="translate(294.784617 223.457441)scale(0.07 -0.07)">
      <use xlink:href="#DejaVuSans-32"/>
      <use xlink:href="#DejaVuSans-30" x="63.623047"/>
      <use xlink:href="#DejaVuSans-30" x="127.246094"/>
     </g>
    </g>
   </g>
   <g id="xtick_21">
    <g id="line2d_65">
     <path d="M 327.107976 207.113859 
L 325.90443 208.328093 
" style="fill: none; stroke: #000000; stroke-width: 0.8; stroke-linecap: square"/>
    </g>
    <g id="text_25">
     <!-- 250 -->
     <g transform="translate(312.625222 229.490418)scale(0.07 -0.07)">
      <use xlink:href="#DejaVuSans-32"/>
      <use xlink:href="#DejaVuSans-35" x="63.623047"/>
      <use xlink:href="#DejaVuSans-30" x="127.246094"/>
     </g>
    </g>
   </g>
  </g>
  <g id="axis3d_5">
   <g id="line2d_66">
    <path d="M 379.006361 163.162116 
L 333.593413 209.766972 
" style="fill: none; stroke: #000000; stroke-width: 0.8; stroke-linecap: square"/>
   </g>
   <g id="text_26">
    <!-- $\log\det({\rm Hess})$ -->
    <g transform="translate(367.686316 233.673204)rotate(-45.742112)scale(0.08 -0.08)">
     <use xlink:href="#DejaVuSans-6c" transform="translate(0 0.015625)"/>
     <use xlink:href="#DejaVuSans-6f" transform="translate(27.783203 0.015625)"/>
     <use xlink:href="#DejaVuSans-67" transform="translate(88.964844 0.015625)"/>
     <use xlink:href="#DejaVuSans-64" transform="translate(168.677083 0.015625)"/>
     <use xlink:href="#DejaVuSans-65" transform="translate(232.153645 0.015625)"/>
     <use xlink:href="#DejaVuSans-74" transform="translate(293.677083 0.015625)"/>
     <use xlink:href="#DejaVuSans-28" transform="translate(332.886067 0.015625)"/>
     <use xlink:href="#DejaVuSans-48" transform="translate(371.899739 0.015625)"/>
     <use xlink:href="#DejaVuSans-65" transform="translate(447.095051 0.015625)"/>
     <use xlink:href="#DejaVuSans-73" transform="translate(508.618489 0.015625)"/>
     <use xlink:href="#DejaVuSans-73" transform="translate(560.718098 0.015625)"/>
     <use xlink:href="#DejaVuSans-29" transform="translate(612.817708 0.015625)"/>
    </g>
   </g>
   <g id="Line3DCollection_5">
    <path d="M 259.751859 106.638621 
L 262.14353 170.083693 
L 346.316051 196.710416 
" style="fill: none; stroke: #b0b0b0; stroke-width: 0.8"/>
    <path d="M 273.612612 96.523676 
L 275.36235 159.003416 
L 358.270508 184.442203 
" style="fill: none; stroke: #b0b0b0; stroke-width: 0.8"/>
    <path d="M 286.850887 86.862985 
L 288.01222 148.400045 
L 369.684468 172.728671 
" style="fill: none; stroke: #b0b0b0; stroke-width: 0.8"/>
   </g>
   <g id="xtick_22">
    <g id="line2d_67">
     <path d="M 345.607381 196.486238 
L 347.735192 197.15934 
" style="fill: none; stroke: #000000; stroke-width: 0.8; stroke-linecap: square"/>
    </g>
    <g id="text_27">
     <!-- −110000 -->
     <g transform="translate(342.683416 215.203875)scale(0.07 -0.07)">
      <use xlink:href="#DejaVuSans-2212"/>
      <use xlink:href="#DejaVuSans-31" x="83.789062"/>
      <use xlink:href="#DejaVuSans-31" x="147.412109"/>
      <use xlink:href="#DejaVuSans-30" x="211.035156"/>
      <use xlink:href="#DejaVuSans-30" x="274.658203"/>
      <use xlink:href="#DejaVuSans-30" x="338.28125"/>
      <use xlink:href="#DejaVuSans-30" x="401.904297"/>
     </g>
    </g>
   </g>
   <g id="xtick_23">
    <g id="line2d_68">
     <path d="M 357.573286 184.228273 
L 359.666681 184.870592 
" style="fill: none; stroke: #000000; stroke-width: 0.8; stroke-linecap: square"/>
    </g>
    <g id="text_28">
     <!-- −100000 -->
     <g transform="translate(354.356736 202.618312)scale(0.07 -0.07)">
      <use xlink:href="#DejaVuSans-2212"/>
      <use xlink:href="#DejaVuSans-31" x="83.789062"/>
      <use xlink:href="#DejaVuSans-30" x="147.412109"/>
      <use xlink:href="#DejaVuSans-30" x="211.035156"/>
      <use xlink:href="#DejaVuSans-30" x="274.658203"/>
      <use xlink:href="#DejaVuSans-30" x="338.28125"/>
      <use xlink:href="#DejaVuSans-30" x="401.904297"/>
     </g>
    </g>
   </g>
   <g id="xtick_24">
    <g id="line2d_69">
     <path d="M 368.998396 172.524303 
L 371.058276 173.137903 
" style="fill: none; stroke: #000000; stroke-width: 0.8; stroke-linecap: square"/>
    </g>
    <g id="text_29">
     <!-- −90000 -->
     <g transform="translate(367.728627 190.602339)scale(0.07 -0.07)">
      <use xlink:href="#DejaVuSans-2212"/>
      <use xlink:href="#DejaVuSans-39" x="83.789062"/>
      <use xlink:href="#DejaVuSans-30" x="147.412109"/>
      <use xlink:href="#DejaVuSans-30" x="211.035156"/>
      <use xlink:href="#DejaVuSans-30" x="274.658203"/>
      <use xlink:href="#DejaVuSans-30" x="338.28125"/>
     </g>
    </g>
   </g>
  </g>
  <g id="axis3d_6">
   <g id="line2d_70">
    <path d="M 379.006361 163.162116 
L 381.88419 100.317694 
" style="fill: none; stroke: #000000; stroke-width: 0.8; stroke-linecap: square"/>
   </g>
   <g id="text_30">
    <!-- Test error rate -->
    <g transform="translate(421.503957 155.342774)rotate(-87.378092)scale(0.08 -0.08)">
     <use xlink:href="#DejaVuSans-54"/>
     <use xlink:href="#DejaVuSans-65" x="44.083984"/>
     <use xlink:href="#DejaVuSans-73" x="105.607422"/>
     <use xlink:href="#DejaVuSans-74" x="157.707031"/>
     <use xlink:href="#DejaVuSans-20" x="196.916016"/>
     <use xlink:href="#DejaVuSans-65" x="228.703125"/>
     <use xlink:href="#DejaVuSans-72" x="290.226562"/>
     <use xlink:href="#DejaVuSans-72" x="329.589844"/>
     <use xlink:href="#DejaVuSans-6f" x="368.453125"/>
     <use xlink:href="#DejaVuSans-72" x="429.634766"/>
     <use xlink:href="#DejaVuSans-20" x="470.748047"/>
     <use xlink:href="#DejaVuSans-72" x="502.535156"/>
     <use xlink:href="#DejaVuSans-61" x="543.648438"/>
     <use xlink:href="#DejaVuSans-74" x="604.927734"/>
     <use xlink:href="#DejaVuSans-65" x="644.136719"/>
    </g>
   </g>
   <g id="Line3DCollection_6">
    <path d="M 379.23857 158.091265 
L 298.307886 134.811142 
L 247.858922 176.655577 
" style="fill: none; stroke: #b0b0b0; stroke-width: 0.8"/>
    <path d="M 379.685549 148.330383 
L 298.199225 125.361652 
L 247.377435 166.657188 
" style="fill: none; stroke: #b0b0b0; stroke-width: 0.8"/>
    <path d="M 380.138769 138.433215 
L 298.089119 115.786553 
L 246.888968 156.51385 
" style="fill: none; stroke: #b0b0b0; stroke-width: 0.8"/>
    <path d="M 380.598362 128.396887 
L 297.977539 106.083323 
L 246.393368 146.222391 
" style="fill: none; stroke: #b0b0b0; stroke-width: 0.8"/>
    <path d="M 381.064462 118.218443 
L 297.864457 96.249374 
L 245.890477 135.779539 
" style="fill: none; stroke: #b0b0b0; stroke-width: 0.8"/>
    <path d="M 381.53721 107.894844 
L 297.74984 86.282045 
L 245.380134 125.181931 
" style="fill: none; stroke: #b0b0b0; stroke-width: 0.8"/>
   </g>
   <g id="xtick_25">
    <g id="line2d_71">
     <path d="M 378.559224 157.895847 
L 380.598884 158.482566 
" style="fill: none; stroke: #000000; stroke-width: 0.8; stroke-linecap: square"/>
    </g>
    <g id="text_31">
     <!-- 0.0065 -->
     <g transform="translate(385.263872 160.828283)scale(0.07 -0.07)">
      <defs>
       <path id="DejaVuSans-36" d="M 2113 2584 
Q 1688 2584 1439 2293 
Q 1191 2003 1191 1497 
Q 1191 994 1439 701 
Q 1688 409 2113 409 
Q 2538 409 2786 701 
Q 3034 994 3034 1497 
Q 3034 2003 2786 2293 
Q 2538 2584 2113 2584 
z
M 3366 4563 
L 3366 3988 
Q 3128 4100 2886 4159 
Q 2644 4219 2406 4219 
Q 1781 4219 1451 3797 
Q 1122 3375 1075 2522 
Q 1259 2794 1537 2939 
Q 1816 3084 2150 3084 
Q 2853 3084 3261 2657 
Q 3669 2231 3669 1497 
Q 3669 778 3244 343 
Q 2819 -91 2113 -91 
Q 1303 -91 875 529 
Q 447 1150 447 2328 
Q 447 3434 972 4092 
Q 1497 4750 2381 4750 
Q 2619 4750 2861 4703 
Q 3103 4656 3366 4563 
z
" transform="scale(0.015625)"/>
      </defs>
      <use xlink:href="#DejaVuSans-30"/>
      <use xlink:href="#DejaVuSans-2e" x="63.623047"/>
      <use xlink:href="#DejaVuSans-30" x="95.410156"/>
      <use xlink:href="#DejaVuSans-30" x="159.033203"/>
      <use xlink:href="#DejaVuSans-36" x="222.65625"/>
      <use xlink:href="#DejaVuSans-35" x="286.279297"/>
     </g>
    </g>
   </g>
   <g id="xtick_26">
    <g id="line2d_72">
     <path d="M 379.001316 148.137516 
L 381.05566 148.716579 
" style="fill: none; stroke: #000000; stroke-width: 0.8; stroke-linecap: square"/>
    </g>
    <g id="text_32">
     <!-- 0.0070 -->
     <g transform="translate(385.834495 151.101193)scale(0.07 -0.07)">
      <use xlink:href="#DejaVuSans-30"/>
      <use xlink:href="#DejaVuSans-2e" x="63.623047"/>
      <use xlink:href="#DejaVuSans-30" x="95.410156"/>
      <use xlink:href="#DejaVuSans-30" x="159.033203"/>
      <use xlink:href="#DejaVuSans-37" x="222.65625"/>
      <use xlink:href="#DejaVuSans-30" x="286.279297"/>
     </g>
    </g>
   </g>
   <g id="xtick_27">
    <g id="line2d_73">
     <path d="M 379.449579 138.24299 
L 381.518818 138.814124 
" style="fill: none; stroke: #000000; stroke-width: 0.8; stroke-linecap: square"/>
    </g>
    <g id="text_33">
     <!-- 0.0075 -->
     <g transform="translate(386.413043 141.239012)scale(0.07 -0.07)">
      <use xlink:href="#DejaVuSans-30"/>
      <use xlink:href="#DejaVuSans-2e" x="63.623047"/>
      <use xlink:href="#DejaVuSans-30" x="95.410156"/>
      <use xlink:href="#DejaVuSans-30" x="159.033203"/>
      <use xlink:href="#DejaVuSans-37" x="222.65625"/>
      <use xlink:href="#DejaVuSans-35" x="286.279297"/>
     </g>
    </g>
   </g>
   <g id="xtick_28">
    <g id="line2d_74">
     <path d="M 379.904142 128.209398 
L 381.988494 128.772323 
" style="fill: none; stroke: #000000; stroke-width: 0.8; stroke-linecap: square"/>
    </g>
    <g id="text_34">
     <!-- 0.0080 -->
     <g transform="translate(386.999682 131.238906)scale(0.07 -0.07)">
      <use xlink:href="#DejaVuSans-30"/>
      <use xlink:href="#DejaVuSans-2e" x="63.623047"/>
      <use xlink:href="#DejaVuSans-30" x="95.410156"/>
      <use xlink:href="#DejaVuSans-30" x="159.033203"/>
      <use xlink:href="#DejaVuSans-38" x="222.65625"/>
      <use xlink:href="#DejaVuSans-30" x="286.279297"/>
     </g>
    </g>
   </g>
   <g id="xtick_29">
    <g id="line2d_75">
     <path d="M 380.365139 118.033786 
L 382.464826 118.588211 
" style="fill: none; stroke: #000000; stroke-width: 0.8; stroke-linecap: square"/>
    </g>
    <g id="text_35">
     <!-- 0.0085 -->
     <g transform="translate(387.594584 121.097961)scale(0.07 -0.07)">
      <use xlink:href="#DejaVuSans-30"/>
      <use xlink:href="#DejaVuSans-2e" x="63.623047"/>
      <use xlink:href="#DejaVuSans-30" x="95.410156"/>
      <use xlink:href="#DejaVuSans-30" x="159.033203"/>
      <use xlink:href="#DejaVuSans-38" x="222.65625"/>
      <use xlink:href="#DejaVuSans-35" x="286.279297"/>
     </g>
    </g>
   </g>
   <g id="xtick_30">
    <g id="line2d_76">
     <path d="M 380.832707 107.713119 
L 382.947957 108.258744 
" style="fill: none; stroke: #000000; stroke-width: 0.8; stroke-linecap: square"/>
    </g>
    <g id="text_36">
     <!-- 0.0090 -->
     <g transform="translate(388.197923 110.813181)scale(0.07 -0.07)">
      <use xlink:href="#DejaVuSans-30"/>
      <use xlink:href="#DejaVuSans-2e" x="63.623047"/>
      <use xlink:href="#DejaVuSans-30" x="95.410156"/>
      <use xlink:href="#DejaVuSans-30" x="159.033203"/>
      <use xlink:href="#DejaVuSans-39" x="222.65625"/>
      <use xlink:href="#DejaVuSans-30" x="286.279297"/>
     </g>
    </g>
   </g>
  </g>
  <g id="axes_2">
   <g id="line2d_77">
    <path d="M 366.597674 113.509481 
L 262.764184 156.47288 
" clip-path="url(#p0ed88b3802)" style="fill: none; stroke: #000000; stroke-linecap: square"/>
   </g>
   <g id="line2d_78">
    <path d="M 264.672019 157.059861 
L 262.764184 156.47288 
" clip-path="url(#p0ed88b3802)" style="fill: none; stroke: #000000; stroke-linecap: square"/>
   </g>
   <g id="line2d_79">
    <path d="M 264.035945 155.434593 
L 262.764184 156.47288 
" clip-path="url(#p0ed88b3802)" style="fill: none; stroke: #000000; stroke-linecap: square"/>
   </g>
   <g id="line2d_80">
    <path d="M 262.732857 155.623734 
L 262.764184 156.47288 
" clip-path="url(#p0ed88b3802)" style="fill: none; stroke: #000000; stroke-linecap: square"/>
   </g>
   <g id="line2d_81">
    <path d="M 369.124066 106.696992 
L 264.582649 176.764624 
" clip-path="url(#p0ed88b3802)" style="fill: none; stroke: #000000; stroke-linecap: square"/>
   </g>
   <g id="line2d_82">
    <path d="M 266.51798 177.384007 
L 264.582649 176.764624 
" clip-path="url(#p0ed88b3802)" style="fill: none; stroke: #000000; stroke-linecap: square"/>
   </g>
   <g id="line2d_83">
    <path d="M 265.806271 175.721123 
L 264.582649 176.764624 
" clip-path="url(#p0ed88b3802)" style="fill: none; stroke: #000000; stroke-linecap: square"/>
   </g>
   <g id="line2d_84">
    <path d="M 264.522962 175.112265 
L 264.582649 176.764624 
" clip-path="url(#p0ed88b3802)" style="fill: none; stroke: #000000; stroke-linecap: square"/>
   </g>
   <g id="line2d_85">
    <path d="M 357.294012 116.581487 
L 263.387567 156.256681 
" clip-path="url(#p0ed88b3802)" style="fill: none; stroke: #000000; stroke-linecap: square"/>
   </g>
   <g id="line2d_86">
    <path d="M 265.012428 156.756184 
L 263.387567 156.256681 
" clip-path="url(#p0ed88b3802)" style="fill: none; stroke: #000000; stroke-linecap: square"/>
   </g>
   <g id="line2d_87">
    <path d="M 264.663111 155.214683 
L 263.387567 156.256681 
" clip-path="url(#p0ed88b3802)" style="fill: none; stroke: #000000; stroke-linecap: square"/>
   </g>
   <g id="line2d_88">
    <path d="M 263.363126 155.586046 
L 263.387567 156.256681 
" clip-path="url(#p0ed88b3802)" style="fill: none; stroke: #000000; stroke-linecap: square"/>
   </g>
   <g id="line2d_89">
    <path d="M 369.766736 105.945116 
L 260.958633 170.299167 
" clip-path="url(#p0ed88b3802)" style="fill: none; stroke: #000000; stroke-linecap: square"/>
   </g>
   <g id="line2d_90">
    <path d="M 263.035772 170.95701 
L 260.958633 170.299167 
" clip-path="url(#p0ed88b3802)" style="fill: none; stroke: #000000; stroke-linecap: square"/>
   </g>
   <g id="line2d_91">
    <path d="M 262.160625 169.293186 
L 260.958633 170.299167 
" clip-path="url(#p0ed88b3802)" style="fill: none; stroke: #000000; stroke-linecap: square"/>
   </g>
   <g id="line2d_92">
    <path d="M 260.898702 168.744605 
L 260.958633 170.299167 
" clip-path="url(#p0ed88b3802)" style="fill: none; stroke: #000000; stroke-linecap: square"/>
   </g>
   <g id="line2d_93">
    <path d="M 355.904166 124.70511 
L 261.847569 175.781597 
" clip-path="url(#p0ed88b3802)" style="fill: none; stroke: #000000; stroke-linecap: square"/>
   </g>
   <g id="line2d_94">
    <path d="M 263.530987 176.320244 
L 261.847569 175.781597 
" clip-path="url(#p0ed88b3802)" style="fill: none; stroke: #000000; stroke-linecap: square"/>
   </g>
   <g id="line2d_95">
    <path d="M 263.041521 174.769983 
L 261.847569 175.781597 
" clip-path="url(#p0ed88b3802)" style="fill: none; stroke: #000000; stroke-linecap: square"/>
   </g>
   <g id="line2d_96">
    <path d="M 261.806989 174.715499 
L 261.847569 175.781597 
" clip-path="url(#p0ed88b3802)" style="fill: none; stroke: #000000; stroke-linecap: square"/>
   </g>
   <g id="line2d_97">
    <path d="M 359.98641 115.015079 
L 256.011698 163.435685 
" clip-path="url(#p0ed88b3802)" style="fill: none; stroke: #000000; stroke-linecap: square"/>
   </g>
   <g id="line2d_98">
    <path d="M 257.831853 164.006063 
L 256.011698 163.435685 
" clip-path="url(#p0ed88b3802)" style="fill: none; stroke: #000000; stroke-linecap: square"/>
   </g>
   <g id="line2d_99">
    <path d="M 257.399475 162.299366 
L 256.011698 163.435685 
" clip-path="url(#p0ed88b3802)" style="fill: none; stroke: #000000; stroke-linecap: square"/>
   </g>
   <g id="line2d_100">
    <path d="M 255.973657 162.52757 
L 256.011698 163.435685 
" clip-path="url(#p0ed88b3802)" style="fill: none; stroke: #000000; stroke-linecap: square"/>
   </g>
   <g id="line2d_101">
    <path d="M 361.29271 122.595027 
L 260.181781 161.68781 
" clip-path="url(#p0ed88b3802)" style="fill: none; stroke: #000000; stroke-linecap: square"/>
   </g>
   <g id="line2d_102">
    <path d="M 261.976342 162.24672 
L 260.181781 161.68781 
" clip-path="url(#p0ed88b3802)" style="fill: none; stroke: #000000; stroke-linecap: square"/>
   </g>
   <g id="line2d_103">
    <path d="M 261.506298 160.599628 
L 260.181781 161.68781 
" clip-path="url(#p0ed88b3802)" style="fill: none; stroke: #000000; stroke-linecap: square"/>
   </g>
   <g id="line2d_104">
    <path d="M 260.15596 161.023489 
L 260.181781 161.68781 
" clip-path="url(#p0ed88b3802)" style="fill: none; stroke: #000000; stroke-linecap: square"/>
   </g>
   <g id="line2d_105">
    <path d="M 352.675388 138.285778 
L 260.946306 158.618913 
" clip-path="url(#p0ed88b3802)" style="fill: none; stroke: #000000; stroke-linecap: square"/>
   </g>
   <g id="line2d_106">
    <path d="M 262.512807 159.10354 
L 260.946306 158.618913 
" clip-path="url(#p0ed88b3802)" style="fill: none; stroke: #000000; stroke-linecap: square"/>
   </g>
   <g id="line2d_107">
    <path d="M 262.235378 157.565076 
L 260.946306 158.618913 
" clip-path="url(#p0ed88b3802)" style="fill: none; stroke: #000000; stroke-linecap: square"/>
   </g>
   <g id="line2d_108">
    <path d="M 260.943981 158.558121 
L 260.946306 158.618913 
" clip-path="url(#p0ed88b3802)" style="fill: none; stroke: #000000; stroke-linecap: square"/>
   </g>
   <g id="line2d_109">
    <path d="M 360.846214 123.204872 
L 262.855252 164.823673 
" clip-path="url(#p0ed88b3802)" style="fill: none; stroke: #000000; stroke-linecap: square"/>
   </g>
   <g id="line2d_110">
    <path d="M 264.617639 165.375111 
L 262.855252 164.823673 
" clip-path="url(#p0ed88b3802)" style="fill: none; stroke: #000000; stroke-linecap: square"/>
   </g>
   <g id="line2d_111">
    <path d="M 264.101974 163.788331 
L 262.855252 164.823673 
" clip-path="url(#p0ed88b3802)" style="fill: none; stroke: #000000; stroke-linecap: square"/>
   </g>
   <g id="line2d_112">
    <path d="M 262.826362 164.043865 
L 262.855252 164.823673 
" clip-path="url(#p0ed88b3802)" style="fill: none; stroke: #000000; stroke-linecap: square"/>
   </g>
   <g id="line2d_113">
    <path d="M 357.797422 118.969226 
L 263.074521 150.488294 
" clip-path="url(#p0ed88b3802)" style="fill: none; stroke: #000000; stroke-linecap: square"/>
   </g>
   <g id="line2d_114">
    <path d="M 264.768538 151.003027 
L 263.074521 150.488294 
" clip-path="url(#p0ed88b3802)" style="fill: none; stroke: #000000; stroke-linecap: square"/>
   </g>
   <g id="line2d_115">
    <path d="M 264.299829 149.499635 
L 263.074521 150.488294 
" clip-path="url(#p0ed88b3802)" style="fill: none; stroke: #000000; stroke-linecap: square"/>
   </g>
   <g id="line2d_116">
    <path d="M 263.056651 149.998925 
L 263.074521 150.488294 
" clip-path="url(#p0ed88b3802)" style="fill: none; stroke: #000000; stroke-linecap: square"/>
   </g>
   <g id="text_37">
    <!-- PSGD $\leftarrow$ Adam, weight decay=0.0001 -->
    <g transform="translate(226.219091 61.189091)scale(0.09 -0.09)">
     <use xlink:href="#DejaVuSans-50" transform="translate(0 0.015625)"/>
     <use xlink:href="#DejaVuSans-53" transform="translate(60.302734 0.015625)"/>
     <use xlink:href="#DejaVuSans-47" transform="translate(123.779297 0.015625)"/>
     <use xlink:href="#DejaVuSans-44" transform="translate(201.269531 0.015625)"/>
     <use xlink:href="#DejaVuSans-20" transform="translate(278.271484 0.015625)"/>
     <use xlink:href="#DejaVuSans-2190" transform="translate(329.541016 0.015625)"/>
     <use xlink:href="#DejaVuSans-20" transform="translate(432.8125 0.015625)"/>
     <use xlink:href="#DejaVuSans-41" transform="translate(464.599609 0.015625)"/>
     <use xlink:href="#DejaVuSans-64" transform="translate(533.007812 0.015625)"/>
     <use xlink:href="#DejaVuSans-61" transform="translate(596.484375 0.015625)"/>
     <use xlink:href="#DejaVuSans-6d" transform="translate(657.763672 0.015625)"/>
     <use xlink:href="#DejaVuSans-2c" transform="translate(755.175781 0.015625)"/>
     <use xlink:href="#DejaVuSans-20" transform="translate(786.962891 0.015625)"/>
     <use xlink:href="#DejaVuSans-77" transform="translate(818.75 0.015625)"/>
     <use xlink:href="#DejaVuSans-65" transform="translate(900.537109 0.015625)"/>
     <use xlink:href="#DejaVuSans-69" transform="translate(962.060547 0.015625)"/>
     <use xlink:href="#DejaVuSans-67" transform="translate(989.84375 0.015625)"/>
     <use xlink:href="#DejaVuSans-68" transform="translate(1053.320312 0.015625)"/>
     <use xlink:href="#DejaVuSans-74" transform="translate(1116.699219 0.015625)"/>
     <use xlink:href="#DejaVuSans-20" transform="translate(1155.908203 0.015625)"/>
     <use xlink:href="#DejaVuSans-64" transform="translate(1187.695312 0.015625)"/>
     <use xlink:href="#DejaVuSans-65" transform="translate(1251.171875 0.015625)"/>
     <use xlink:href="#DejaVuSans-63" transform="translate(1312.695312 0.015625)"/>
     <use xlink:href="#DejaVuSans-61" transform="translate(1367.675781 0.015625)"/>
     <use xlink:href="#DejaVuSans-79" transform="translate(1428.955078 0.015625)"/>
     <use xlink:href="#DejaVuSans-3d" transform="translate(1488.134766 0.015625)"/>
     <use xlink:href="#DejaVuSans-30" transform="translate(1571.923828 0.015625)"/>
     <use xlink:href="#DejaVuSans-2e" transform="translate(1635.546875 0.015625)"/>
     <use xlink:href="#DejaVuSans-30" transform="translate(1667.333984 0.015625)"/>
     <use xlink:href="#DejaVuSans-30" transform="translate(1730.957031 0.015625)"/>
     <use xlink:href="#DejaVuSans-30" transform="translate(1794.580078 0.015625)"/>
     <use xlink:href="#DejaVuSans-31" transform="translate(1858.203125 0.015625)"/>
    </g>
   </g>
  </g>
 </g>
 <defs>
  <clipPath id="pa4c3a846fc">
   <rect x="54" y="67.189091" width="152.181818" height="152.181818"/>
  </clipPath>
  <clipPath id="p0ed88b3802">
   <rect x="236.618182" y="67.189091" width="152.181818" height="152.181818"/>
  </clipPath>
 </defs>
</svg>
