<?xml version="1.0" encoding="utf-8" standalone="no"?>
<!DOCTYPE svg PUBLIC "-//W3C//DTD SVG 1.1//EN"
  "http://www.w3.org/Graphics/SVG/1.1/DTD/svg11.dtd">
<svg xmlns:xlink="http://www.w3.org/1999/xlink" width="432pt" height="288pt" viewBox="0 0 432 288" xmlns="http://www.w3.org/2000/svg" version="1.1">
 <metadata>
  <rdf:RDF xmlns:dc="http://purl.org/dc/elements/1.1/" xmlns:cc="http://creativecommons.org/ns#" xmlns:rdf="http://www.w3.org/1999/02/22-rdf-syntax-ns#">
   <cc:Work>
    <dc:type rdf:resource="http://purl.org/dc/dcmitype/StillImage"/>
    <dc:date>2024-01-14T11:14:14.868951</dc:date>
    <dc:format>image/svg+xml</dc:format>
    <dc:creator>
     <cc:Agent>
      <dc:title>Matplotlib v3.5.2, https://matplotlib.org/</dc:title>
     </cc:Agent>
    </dc:creator>
   </cc:Work>
  </rdf:RDF>
 </metadata>
 <defs>
  <style type="text/css">*{stroke-linejoin: round; stroke-linecap: butt}</style>
 </defs>
 <g id="figure_1">
  <g id="patch_1">
   <path d="M 0 288 
L 432 288 
L 432 0 
L 0 0 
z
" style="fill: #ffffff"/>
  </g>
  <g id="axes_1">
   <g id="patch_2">
    <path d="M 54 252 
L 206.181818 252 
L 206.181818 34.56 
L 54 34.56 
z
" style="fill: #ffffff"/>
   </g>
   <g id="matplotlib.axis_1">
    <g id="xtick_1">
     <g id="line2d_1">
      <defs>
       <path id="mcac3eaef07" d="M 0 0 
L 0 3.5 
" style="stroke: #000000; stroke-width: 0.8"/>
      </defs>
      <g>
       <use xlink:href="#mcac3eaef07" x="60.917355" y="252" style="stroke: #000000; stroke-width: 0.8"/>
      </g>
     </g>
     <g id="text_1">
      <!-- 0 -->
      <g transform="translate(57.736105 266.598437)scale(0.1 -0.1)">
       <defs>
        <path id="DejaVuSans-30" d="M 2034 4250 
Q 1547 4250 1301 3770 
Q 1056 3291 1056 2328 
Q 1056 1369 1301 889 
Q 1547 409 2034 409 
Q 2525 409 2770 889 
Q 3016 1369 3016 2328 
Q 3016 3291 2770 3770 
Q 2525 4250 2034 4250 
z
M 2034 4750 
Q 2819 4750 3233 4129 
Q 3647 3509 3647 2328 
Q 3647 1150 3233 529 
Q 2819 -91 2034 -91 
Q 1250 -91 836 529 
Q 422 1150 422 2328 
Q 422 3509 836 4129 
Q 1250 4750 2034 4750 
z
" transform="scale(0.015625)"/>
       </defs>
       <use xlink:href="#DejaVuSans-30"/>
      </g>
     </g>
    </g>
    <g id="xtick_2">
     <g id="line2d_2">
      <g>
       <use xlink:href="#mcac3eaef07" x="95.853494" y="252" style="stroke: #000000; stroke-width: 0.8"/>
      </g>
     </g>
     <g id="text_2">
      <!-- 25 -->
      <g transform="translate(89.490994 266.598437)scale(0.1 -0.1)">
       <defs>
        <path id="DejaVuSans-32" d="M 1228 531 
L 3431 531 
L 3431 0 
L 469 0 
L 469 531 
Q 828 903 1448 1529 
Q 2069 2156 2228 2338 
Q 2531 2678 2651 2914 
Q 2772 3150 2772 3378 
Q 2772 3750 2511 3984 
Q 2250 4219 1831 4219 
Q 1534 4219 1204 4116 
Q 875 4013 500 3803 
L 500 4441 
Q 881 4594 1212 4672 
Q 1544 4750 1819 4750 
Q 2544 4750 2975 4387 
Q 3406 4025 3406 3419 
Q 3406 3131 3298 2873 
Q 3191 2616 2906 2266 
Q 2828 2175 2409 1742 
Q 1991 1309 1228 531 
z
" transform="scale(0.015625)"/>
        <path id="DejaVuSans-35" d="M 691 4666 
L 3169 4666 
L 3169 4134 
L 1269 4134 
L 1269 2991 
Q 1406 3038 1543 3061 
Q 1681 3084 1819 3084 
Q 2600 3084 3056 2656 
Q 3513 2228 3513 1497 
Q 3513 744 3044 326 
Q 2575 -91 1722 -91 
Q 1428 -91 1123 -41 
Q 819 9 494 109 
L 494 744 
Q 775 591 1075 516 
Q 1375 441 1709 441 
Q 2250 441 2565 725 
Q 2881 1009 2881 1497 
Q 2881 1984 2565 2268 
Q 2250 2553 1709 2553 
Q 1456 2553 1204 2497 
Q 953 2441 691 2322 
L 691 4666 
z
" transform="scale(0.015625)"/>
       </defs>
       <use xlink:href="#DejaVuSans-32"/>
       <use xlink:href="#DejaVuSans-35" x="63.623047"/>
      </g>
     </g>
    </g>
    <g id="xtick_3">
     <g id="line2d_3">
      <g>
       <use xlink:href="#mcac3eaef07" x="130.789632" y="252" style="stroke: #000000; stroke-width: 0.8"/>
      </g>
     </g>
     <g id="text_3">
      <!-- 50 -->
      <g transform="translate(124.427132 266.598437)scale(0.1 -0.1)">
       <use xlink:href="#DejaVuSans-35"/>
       <use xlink:href="#DejaVuSans-30" x="63.623047"/>
      </g>
     </g>
    </g>
    <g id="xtick_4">
     <g id="line2d_4">
      <g>
       <use xlink:href="#mcac3eaef07" x="165.72577" y="252" style="stroke: #000000; stroke-width: 0.8"/>
      </g>
     </g>
     <g id="text_4">
      <!-- 75 -->
      <g transform="translate(159.36327 266.598437)scale(0.1 -0.1)">
       <defs>
        <path id="DejaVuSans-37" d="M 525 4666 
L 3525 4666 
L 3525 4397 
L 1831 0 
L 1172 0 
L 2766 4134 
L 525 4134 
L 525 4666 
z
" transform="scale(0.015625)"/>
       </defs>
       <use xlink:href="#DejaVuSans-37"/>
       <use xlink:href="#DejaVuSans-35" x="63.623047"/>
      </g>
     </g>
    </g>
    <g id="xtick_5">
     <g id="line2d_5">
      <g>
       <use xlink:href="#mcac3eaef07" x="200.661908" y="252" style="stroke: #000000; stroke-width: 0.8"/>
      </g>
     </g>
     <g id="text_5">
      <!-- 100 -->
      <g transform="translate(191.118158 266.598437)scale(0.1 -0.1)">
       <defs>
        <path id="DejaVuSans-31" d="M 794 531 
L 1825 531 
L 1825 4091 
L 703 3866 
L 703 4441 
L 1819 4666 
L 2450 4666 
L 2450 531 
L 3481 531 
L 3481 0 
L 794 0 
L 794 531 
z
" transform="scale(0.015625)"/>
       </defs>
       <use xlink:href="#DejaVuSans-31"/>
       <use xlink:href="#DejaVuSans-30" x="63.623047"/>
       <use xlink:href="#DejaVuSans-30" x="127.246094"/>
      </g>
     </g>
    </g>
    <g id="text_6">
     <!-- Iterations -->
     <g transform="translate(106.277628 280.276563)scale(0.1 -0.1)">
      <defs>
       <path id="DejaVuSans-49" d="M 628 4666 
L 1259 4666 
L 1259 0 
L 628 0 
L 628 4666 
z
" transform="scale(0.015625)"/>
       <path id="DejaVuSans-74" d="M 1172 4494 
L 1172 3500 
L 2356 3500 
L 2356 3053 
L 1172 3053 
L 1172 1153 
Q 1172 725 1289 603 
Q 1406 481 1766 481 
L 2356 481 
L 2356 0 
L 1766 0 
Q 1100 0 847 248 
Q 594 497 594 1153 
L 594 3053 
L 172 3053 
L 172 3500 
L 594 3500 
L 594 4494 
L 1172 4494 
z
" transform="scale(0.015625)"/>
       <path id="DejaVuSans-65" d="M 3597 1894 
L 3597 1613 
L 953 1613 
Q 991 1019 1311 708 
Q 1631 397 2203 397 
Q 2534 397 2845 478 
Q 3156 559 3463 722 
L 3463 178 
Q 3153 47 2828 -22 
Q 2503 -91 2169 -91 
Q 1331 -91 842 396 
Q 353 884 353 1716 
Q 353 2575 817 3079 
Q 1281 3584 2069 3584 
Q 2775 3584 3186 3129 
Q 3597 2675 3597 1894 
z
M 3022 2063 
Q 3016 2534 2758 2815 
Q 2500 3097 2075 3097 
Q 1594 3097 1305 2825 
Q 1016 2553 972 2059 
L 3022 2063 
z
" transform="scale(0.015625)"/>
       <path id="DejaVuSans-72" d="M 2631 2963 
Q 2534 3019 2420 3045 
Q 2306 3072 2169 3072 
Q 1681 3072 1420 2755 
Q 1159 2438 1159 1844 
L 1159 0 
L 581 0 
L 581 3500 
L 1159 3500 
L 1159 2956 
Q 1341 3275 1631 3429 
Q 1922 3584 2338 3584 
Q 2397 3584 2469 3576 
Q 2541 3569 2628 3553 
L 2631 2963 
z
" transform="scale(0.015625)"/>
       <path id="DejaVuSans-61" d="M 2194 1759 
Q 1497 1759 1228 1600 
Q 959 1441 959 1056 
Q 959 750 1161 570 
Q 1363 391 1709 391 
Q 2188 391 2477 730 
Q 2766 1069 2766 1631 
L 2766 1759 
L 2194 1759 
z
M 3341 1997 
L 3341 0 
L 2766 0 
L 2766 531 
Q 2569 213 2275 61 
Q 1981 -91 1556 -91 
Q 1019 -91 701 211 
Q 384 513 384 1019 
Q 384 1609 779 1909 
Q 1175 2209 1959 2209 
L 2766 2209 
L 2766 2266 
Q 2766 2663 2505 2880 
Q 2244 3097 1772 3097 
Q 1472 3097 1187 3025 
Q 903 2953 641 2809 
L 641 3341 
Q 956 3463 1253 3523 
Q 1550 3584 1831 3584 
Q 2591 3584 2966 3190 
Q 3341 2797 3341 1997 
z
" transform="scale(0.015625)"/>
       <path id="DejaVuSans-69" d="M 603 3500 
L 1178 3500 
L 1178 0 
L 603 0 
L 603 3500 
z
M 603 4863 
L 1178 4863 
L 1178 4134 
L 603 4134 
L 603 4863 
z
" transform="scale(0.015625)"/>
       <path id="DejaVuSans-6f" d="M 1959 3097 
Q 1497 3097 1228 2736 
Q 959 2375 959 1747 
Q 959 1119 1226 758 
Q 1494 397 1959 397 
Q 2419 397 2687 759 
Q 2956 1122 2956 1747 
Q 2956 2369 2687 2733 
Q 2419 3097 1959 3097 
z
M 1959 3584 
Q 2709 3584 3137 3096 
Q 3566 2609 3566 1747 
Q 3566 888 3137 398 
Q 2709 -91 1959 -91 
Q 1206 -91 779 398 
Q 353 888 353 1747 
Q 353 2609 779 3096 
Q 1206 3584 1959 3584 
z
" transform="scale(0.015625)"/>
       <path id="DejaVuSans-6e" d="M 3513 2113 
L 3513 0 
L 2938 0 
L 2938 2094 
Q 2938 2591 2744 2837 
Q 2550 3084 2163 3084 
Q 1697 3084 1428 2787 
Q 1159 2491 1159 1978 
L 1159 0 
L 581 0 
L 581 3500 
L 1159 3500 
L 1159 2956 
Q 1366 3272 1645 3428 
Q 1925 3584 2291 3584 
Q 2894 3584 3203 3211 
Q 3513 2838 3513 2113 
z
" transform="scale(0.015625)"/>
       <path id="DejaVuSans-73" d="M 2834 3397 
L 2834 2853 
Q 2591 2978 2328 3040 
Q 2066 3103 1784 3103 
Q 1356 3103 1142 2972 
Q 928 2841 928 2578 
Q 928 2378 1081 2264 
Q 1234 2150 1697 2047 
L 1894 2003 
Q 2506 1872 2764 1633 
Q 3022 1394 3022 966 
Q 3022 478 2636 193 
Q 2250 -91 1575 -91 
Q 1294 -91 989 -36 
Q 684 19 347 128 
L 347 722 
Q 666 556 975 473 
Q 1284 391 1588 391 
Q 1994 391 2212 530 
Q 2431 669 2431 922 
Q 2431 1156 2273 1281 
Q 2116 1406 1581 1522 
L 1381 1569 
Q 847 1681 609 1914 
Q 372 2147 372 2553 
Q 372 3047 722 3315 
Q 1072 3584 1716 3584 
Q 2034 3584 2315 3537 
Q 2597 3491 2834 3397 
z
" transform="scale(0.015625)"/>
      </defs>
      <use xlink:href="#DejaVuSans-49"/>
      <use xlink:href="#DejaVuSans-74" x="29.492188"/>
      <use xlink:href="#DejaVuSans-65" x="68.701172"/>
      <use xlink:href="#DejaVuSans-72" x="130.224609"/>
      <use xlink:href="#DejaVuSans-61" x="171.337891"/>
      <use xlink:href="#DejaVuSans-74" x="232.617188"/>
      <use xlink:href="#DejaVuSans-69" x="271.826172"/>
      <use xlink:href="#DejaVuSans-6f" x="299.609375"/>
      <use xlink:href="#DejaVuSans-6e" x="360.791016"/>
      <use xlink:href="#DejaVuSans-73" x="424.169922"/>
     </g>
    </g>
   </g>
   <g id="matplotlib.axis_2">
    <g id="ytick_1">
     <g id="line2d_6">
      <defs>
       <path id="m6506f5a52c" d="M 0 0 
L -3.5 0 
" style="stroke: #000000; stroke-width: 0.8"/>
      </defs>
      <g>
       <use xlink:href="#m6506f5a52c" x="54" y="233.456472" style="stroke: #000000; stroke-width: 0.8"/>
      </g>
     </g>
     <g id="text_7">
      <!-- $\mathdefault{10^{4}}$ -->
      <g transform="translate(29.4 237.25569)scale(0.1 -0.1)">
       <defs>
        <path id="DejaVuSans-34" d="M 2419 4116 
L 825 1625 
L 2419 1625 
L 2419 4116 
z
M 2253 4666 
L 3047 4666 
L 3047 1625 
L 3713 1625 
L 3713 1100 
L 3047 1100 
L 3047 0 
L 2419 0 
L 2419 1100 
L 313 1100 
L 313 1709 
L 2253 4666 
z
" transform="scale(0.015625)"/>
       </defs>
       <use xlink:href="#DejaVuSans-31" transform="translate(0 0.684375)"/>
       <use xlink:href="#DejaVuSans-30" transform="translate(63.623047 0.684375)"/>
       <use xlink:href="#DejaVuSans-34" transform="translate(128.203125 38.965625)scale(0.7)"/>
      </g>
     </g>
    </g>
    <g id="ytick_2">
     <g id="line2d_7">
      <g>
       <use xlink:href="#m6506f5a52c" x="54" y="137.979303" style="stroke: #000000; stroke-width: 0.8"/>
      </g>
     </g>
     <g id="text_8">
      <!-- $\mathdefault{10^{5}}$ -->
      <g transform="translate(29.4 141.778522)scale(0.1 -0.1)">
       <use xlink:href="#DejaVuSans-31" transform="translate(0 0.684375)"/>
       <use xlink:href="#DejaVuSans-30" transform="translate(63.623047 0.684375)"/>
       <use xlink:href="#DejaVuSans-35" transform="translate(128.203125 38.965625)scale(0.7)"/>
      </g>
     </g>
    </g>
    <g id="ytick_3">
     <g id="line2d_8">
      <g>
       <use xlink:href="#m6506f5a52c" x="54" y="42.502134" style="stroke: #000000; stroke-width: 0.8"/>
      </g>
     </g>
     <g id="text_9">
      <!-- $\mathdefault{10^{6}}$ -->
      <g transform="translate(29.4 46.301353)scale(0.1 -0.1)">
       <defs>
        <path id="DejaVuSans-36" d="M 2113 2584 
Q 1688 2584 1439 2293 
Q 1191 2003 1191 1497 
Q 1191 994 1439 701 
Q 1688 409 2113 409 
Q 2538 409 2786 701 
Q 3034 994 3034 1497 
Q 3034 2003 2786 2293 
Q 2538 2584 2113 2584 
z
M 3366 4563 
L 3366 3988 
Q 3128 4100 2886 4159 
Q 2644 4219 2406 4219 
Q 1781 4219 1451 3797 
Q 1122 3375 1075 2522 
Q 1259 2794 1537 2939 
Q 1816 3084 2150 3084 
Q 2853 3084 3261 2657 
Q 3669 2231 3669 1497 
Q 3669 778 3244 343 
Q 2819 -91 2113 -91 
Q 1303 -91 875 529 
Q 447 1150 447 2328 
Q 447 3434 972 4092 
Q 1497 4750 2381 4750 
Q 2619 4750 2861 4703 
Q 3103 4656 3366 4563 
z
" transform="scale(0.015625)"/>
       </defs>
       <use xlink:href="#DejaVuSans-31" transform="translate(0 0.765625)"/>
       <use xlink:href="#DejaVuSans-30" transform="translate(63.623047 0.765625)"/>
       <use xlink:href="#DejaVuSans-36" transform="translate(128.203125 39.046875)scale(0.7)"/>
      </g>
     </g>
    </g>
    <g id="ytick_4">
     <g id="line2d_9">
      <defs>
       <path id="mfc3e24b93e" d="M 0 0 
L -2 0 
" style="stroke: #000000; stroke-width: 0.6"/>
      </defs>
      <g>
       <use xlink:href="#mfc3e24b93e" x="54" y="248.246072" style="stroke: #000000; stroke-width: 0.6"/>
      </g>
     </g>
    </g>
    <g id="ytick_5">
     <g id="line2d_10">
      <g>
       <use xlink:href="#mfc3e24b93e" x="54" y="242.709165" style="stroke: #000000; stroke-width: 0.6"/>
      </g>
     </g>
    </g>
    <g id="ytick_6">
     <g id="line2d_11">
      <g>
       <use xlink:href="#mfc3e24b93e" x="54" y="237.825267" style="stroke: #000000; stroke-width: 0.6"/>
      </g>
     </g>
    </g>
    <g id="ytick_7">
     <g id="line2d_12">
      <g>
       <use xlink:href="#mfc3e24b93e" x="54" y="204.71498" style="stroke: #000000; stroke-width: 0.6"/>
      </g>
     </g>
    </g>
    <g id="ytick_8">
     <g id="line2d_13">
      <g>
       <use xlink:href="#mfc3e24b93e" x="54" y="187.902285" style="stroke: #000000; stroke-width: 0.6"/>
      </g>
     </g>
    </g>
    <g id="ytick_9">
     <g id="line2d_14">
      <g>
       <use xlink:href="#mfc3e24b93e" x="54" y="175.973488" style="stroke: #000000; stroke-width: 0.6"/>
      </g>
     </g>
    </g>
    <g id="ytick_10">
     <g id="line2d_15">
      <g>
       <use xlink:href="#mfc3e24b93e" x="54" y="166.720795" style="stroke: #000000; stroke-width: 0.6"/>
      </g>
     </g>
    </g>
    <g id="ytick_11">
     <g id="line2d_16">
      <g>
       <use xlink:href="#mfc3e24b93e" x="54" y="159.160793" style="stroke: #000000; stroke-width: 0.6"/>
      </g>
     </g>
    </g>
    <g id="ytick_12">
     <g id="line2d_17">
      <g>
       <use xlink:href="#mfc3e24b93e" x="54" y="152.768903" style="stroke: #000000; stroke-width: 0.6"/>
      </g>
     </g>
    </g>
    <g id="ytick_13">
     <g id="line2d_18">
      <g>
       <use xlink:href="#mfc3e24b93e" x="54" y="147.231996" style="stroke: #000000; stroke-width: 0.6"/>
      </g>
     </g>
    </g>
    <g id="ytick_14">
     <g id="line2d_19">
      <g>
       <use xlink:href="#mfc3e24b93e" x="54" y="142.348098" style="stroke: #000000; stroke-width: 0.6"/>
      </g>
     </g>
    </g>
    <g id="ytick_15">
     <g id="line2d_20">
      <g>
       <use xlink:href="#mfc3e24b93e" x="54" y="109.237811" style="stroke: #000000; stroke-width: 0.6"/>
      </g>
     </g>
    </g>
    <g id="ytick_16">
     <g id="line2d_21">
      <g>
       <use xlink:href="#mfc3e24b93e" x="54" y="92.425116" style="stroke: #000000; stroke-width: 0.6"/>
      </g>
     </g>
    </g>
    <g id="ytick_17">
     <g id="line2d_22">
      <g>
       <use xlink:href="#mfc3e24b93e" x="54" y="80.496319" style="stroke: #000000; stroke-width: 0.6"/>
      </g>
     </g>
    </g>
    <g id="ytick_18">
     <g id="line2d_23">
      <g>
       <use xlink:href="#mfc3e24b93e" x="54" y="71.243626" style="stroke: #000000; stroke-width: 0.6"/>
      </g>
     </g>
    </g>
    <g id="ytick_19">
     <g id="line2d_24">
      <g>
       <use xlink:href="#mfc3e24b93e" x="54" y="63.683624" style="stroke: #000000; stroke-width: 0.6"/>
      </g>
     </g>
    </g>
    <g id="ytick_20">
     <g id="line2d_25">
      <g>
       <use xlink:href="#mfc3e24b93e" x="54" y="57.291734" style="stroke: #000000; stroke-width: 0.6"/>
      </g>
     </g>
    </g>
    <g id="ytick_21">
     <g id="line2d_26">
      <g>
       <use xlink:href="#mfc3e24b93e" x="54" y="51.754828" style="stroke: #000000; stroke-width: 0.6"/>
      </g>
     </g>
    </g>
    <g id="ytick_22">
     <g id="line2d_27">
      <g>
       <use xlink:href="#mfc3e24b93e" x="54" y="46.870929" style="stroke: #000000; stroke-width: 0.6"/>
      </g>
     </g>
    </g>
    <g id="text_10">
     <!-- Fitting loss -->
     <g transform="translate(23.320312 170.081563)rotate(-90)scale(0.1 -0.1)">
      <defs>
       <path id="DejaVuSans-46" d="M 628 4666 
L 3309 4666 
L 3309 4134 
L 1259 4134 
L 1259 2759 
L 3109 2759 
L 3109 2228 
L 1259 2228 
L 1259 0 
L 628 0 
L 628 4666 
z
" transform="scale(0.015625)"/>
       <path id="DejaVuSans-67" d="M 2906 1791 
Q 2906 2416 2648 2759 
Q 2391 3103 1925 3103 
Q 1463 3103 1205 2759 
Q 947 2416 947 1791 
Q 947 1169 1205 825 
Q 1463 481 1925 481 
Q 2391 481 2648 825 
Q 2906 1169 2906 1791 
z
M 3481 434 
Q 3481 -459 3084 -895 
Q 2688 -1331 1869 -1331 
Q 1566 -1331 1297 -1286 
Q 1028 -1241 775 -1147 
L 775 -588 
Q 1028 -725 1275 -790 
Q 1522 -856 1778 -856 
Q 2344 -856 2625 -561 
Q 2906 -266 2906 331 
L 2906 616 
Q 2728 306 2450 153 
Q 2172 0 1784 0 
Q 1141 0 747 490 
Q 353 981 353 1791 
Q 353 2603 747 3093 
Q 1141 3584 1784 3584 
Q 2172 3584 2450 3431 
Q 2728 3278 2906 2969 
L 2906 3500 
L 3481 3500 
L 3481 434 
z
" transform="scale(0.015625)"/>
       <path id="DejaVuSans-20" transform="scale(0.015625)"/>
       <path id="DejaVuSans-6c" d="M 603 4863 
L 1178 4863 
L 1178 0 
L 603 0 
L 603 4863 
z
" transform="scale(0.015625)"/>
      </defs>
      <use xlink:href="#DejaVuSans-46"/>
      <use xlink:href="#DejaVuSans-69" x="50.269531"/>
      <use xlink:href="#DejaVuSans-74" x="78.052734"/>
      <use xlink:href="#DejaVuSans-74" x="117.261719"/>
      <use xlink:href="#DejaVuSans-69" x="156.470703"/>
      <use xlink:href="#DejaVuSans-6e" x="184.253906"/>
      <use xlink:href="#DejaVuSans-67" x="247.632812"/>
      <use xlink:href="#DejaVuSans-20" x="311.109375"/>
      <use xlink:href="#DejaVuSans-6c" x="342.896484"/>
      <use xlink:href="#DejaVuSans-6f" x="370.679688"/>
      <use xlink:href="#DejaVuSans-73" x="431.861328"/>
      <use xlink:href="#DejaVuSans-73" x="483.960938"/>
     </g>
    </g>
   </g>
   <g id="line2d_28">
    <path d="M 60.917355 44.443636 
L 62.314801 174.275318 
L 63.712246 183.514268 
L 65.109692 183.663489 
L 66.507137 181.026925 
L 67.904583 189.509776 
L 69.302029 223.847578 
L 70.699474 239.586396 
L 72.09692 241.067143 
L 73.494365 241.145049 
L 74.891811 241.147964 
L 76.289256 241.148525 
L 77.686702 241.168033 
L 79.084147 241.388286 
L 80.481593 241.498632 
L 81.879038 241.509616 
L 83.276484 241.51207 
L 84.673929 241.512498 
L 86.071375 241.51535 
L 87.46882 241.539962 
L 88.866266 241.65283 
L 90.263711 241.742112 
L 91.661157 241.766753 
L 93.058603 241.7897 
L 94.456048 241.811722 
L 95.853494 241.823403 
L 97.250939 241.830643 
L 98.648385 241.833267 
L 100.04583 241.834875 
L 101.443276 241.835361 
L 102.840721 241.835541 
L 104.238167 241.835767 
L 105.635612 241.836272 
L 107.033058 241.836996 
L 108.430503 241.842597 
L 109.827949 241.868138 
L 111.225394 241.913116 
L 112.62284 241.923316 
L 114.020285 241.927493 
L 115.417731 241.928983 
L 116.815177 241.929828 
L 118.212622 241.931194 
L 119.610068 241.934592 
L 121.007513 241.942782 
L 122.404959 241.950062 
L 123.802404 241.958423 
L 125.19985 241.96804 
L 126.597295 241.9832 
L 127.994741 241.991129 
L 129.392186 241.997198 
L 130.789632 241.999184 
L 132.187077 241.999624 
L 133.584523 242.00003 
L 134.981968 242.000458 
L 136.379414 242.001194 
L 137.77686 242.002239 
L 139.174305 242.003289 
L 140.571751 242.00416 
L 141.969196 242.004473 
L 143.366642 242.004824 
L 144.764087 242.005302 
L 146.161533 242.00567 
L 147.558978 242.005897 
L 148.956424 242.006021 
L 150.353869 242.006223 
L 151.751315 242.006255 
L 153.14876 242.00626 
L 154.546206 242.006262 
L 155.943651 242.006265 
L 157.341097 242.00627 
L 158.738542 242.006272 
L 160.135988 242.00628 
L 161.533434 242.00629 
L 162.930879 242.006295 
L 164.328325 242.0063 
L 165.72577 242.006394 
L 167.123216 242.006494 
L 168.520661 242.006506 
L 169.918107 242.006618 
L 171.315552 242.00682 
L 172.712998 242.007131 
L 174.110443 242.00724 
L 175.507889 242.007464 
L 176.905334 242.00783 
L 178.30278 242.008731 
L 179.700225 242.014868 
L 181.097671 242.028429 
L 182.495116 242.054117 
L 183.892562 242.081494 
L 185.290008 242.095414 
L 186.687453 242.102843 
L 188.084899 242.107338 
L 189.482344 242.109214 
L 190.87979 242.112093 
L 192.277235 242.112804 
L 193.674681 242.114086 
L 195.072126 242.115366 
L 196.469572 242.115815 
L 197.867017 242.116199 
L 199.264463 242.116364 
" clip-path="url(#p4d6189f747)" style="fill: none; stroke: #1f77b4; stroke-width: 1.5; stroke-linecap: square"/>
   </g>
   <g id="line2d_29">
    <path d="M 60.917355 44.443636 
L 62.314801 175.491442 
L 63.712246 179.000773 
L 65.109692 180.873544 
L 66.507137 181.946959 
L 67.904583 182.574597 
L 69.302029 182.956696 
L 70.699474 183.19738 
L 72.09692 183.355633 
L 73.494365 183.456311 
L 74.891811 183.520504 
L 76.289256 183.562802 
L 77.686702 183.590709 
L 79.084147 183.609719 
L 80.481593 183.623645 
L 81.879038 183.634613 
L 83.276484 183.644117 
L 84.673929 183.653015 
L 86.071375 183.66191 
L 87.46882 183.671142 
L 88.866266 183.681128 
L 90.263711 183.692034 
L 91.661157 183.70423 
L 93.058603 183.717928 
L 94.456048 183.73355 
L 95.853494 183.751547 
L 97.250939 183.772371 
L 98.648385 183.796345 
L 100.04583 183.824316 
L 101.443276 183.857301 
L 102.840721 183.896626 
L 104.238167 183.944172 
L 105.635612 184.002142 
L 107.033058 184.074255 
L 108.430503 184.16511 
L 109.827949 184.280808 
L 111.225394 184.430418 
L 112.62284 184.62876 
L 114.020285 184.894557 
L 115.417731 185.25809 
L 116.815177 185.767272 
L 118.212622 186.499124 
L 119.610068 187.575413 
L 121.007513 189.19427 
L 122.404959 191.647903 
L 123.802404 195.338713 
L 125.19985 200.560825 
L 126.597295 207.402094 
L 127.994741 215.042258 
L 129.392186 222.364261 
L 130.789632 228.530015 
L 132.187077 233.150662 
L 133.584523 236.293443 
L 134.981968 238.304211 
L 136.379414 239.525066 
L 137.77686 240.235904 
L 139.174305 240.637599 
L 140.571751 240.865507 
L 141.969196 240.990039 
L 143.366642 241.059452 
L 144.764087 241.097065 
L 146.161533 241.117596 
L 147.558978 241.128982 
L 148.956424 241.135321 
L 150.353869 241.138918 
L 151.751315 241.141013 
L 153.14876 241.142242 
L 154.546206 241.143002 
L 155.943651 241.143489 
L 157.341097 241.14383 
L 158.738542 241.144084 
L 160.135988 241.144284 
L 161.533434 241.144445 
L 162.930879 241.144591 
L 164.328325 241.144722 
L 165.72577 241.144854 
L 167.123216 241.144971 
L 168.520661 241.145103 
L 169.918107 241.145224 
L 171.315552 241.145351 
L 172.712998 241.145483 
L 174.110443 241.145614 
L 175.507889 241.145746 
L 176.905334 241.145887 
L 178.30278 241.146024 
L 179.700225 241.146165 
L 181.097671 241.146316 
L 182.495116 241.146463 
L 183.892562 241.146609 
L 185.290008 241.146765 
L 186.687453 241.146926 
L 188.084899 241.147087 
L 189.482344 241.147257 
L 190.87979 241.147423 
L 192.277235 241.147598 
L 193.674681 241.147774 
L 195.072126 241.147954 
L 196.469572 241.148135 
L 197.867017 241.148325 
L 199.264463 241.148515 
" clip-path="url(#p4d6189f747)" style="fill: none; stroke: #ff7f0e; stroke-width: 1.5; stroke-linecap: square"/>
   </g>
   <g id="line2d_30">
    <path d="M 60.917355 44.443636 
L 62.314801 155.580216 
L 63.712246 176.600618 
L 65.109692 179.661195 
L 66.507137 181.112046 
L 67.904583 181.922469 
L 69.302029 182.421047 
L 70.699474 182.752329 
L 72.09692 182.988528 
L 73.494365 183.168167 
L 74.891811 183.313869 
L 76.289256 183.439936 
L 77.686702 183.556083 
L 79.084147 183.67005 
L 80.481593 183.788581 
L 81.879038 183.918514 
L 83.276484 184.067683 
L 84.673929 184.245465 
L 86.071375 184.464264 
L 87.46882 184.740918 
L 88.866266 185.099311 
L 90.263711 185.572738 
L 91.661157 186.209878 
L 93.058603 187.079916 
L 94.456048 188.282425 
L 95.853494 189.955299 
L 97.250939 192.279474 
L 98.648385 195.464275 
L 100.04583 199.687491 
L 101.443276 204.974482 
L 102.840721 211.053374 
L 104.238167 217.367941 
L 105.635612 223.260852 
L 107.033058 228.265525 
L 108.430503 232.198675 
L 109.827949 235.097319 
L 111.225394 237.137801 
L 112.62284 238.527678 
L 114.020285 239.455112 
L 115.417731 240.063934 
L 116.815177 240.459658 
L 118.212622 240.715844 
L 119.610068 240.881662 
L 121.007513 240.989068 
L 122.404959 241.059569 
L 123.802404 241.105713 
L 125.19985 241.136383 
L 126.597295 241.157183 
L 127.994741 241.171652 
L 129.392186 241.182032 
L 130.789632 241.189741 
L 132.187077 241.195685 
L 133.584523 241.200419 
L 134.981968 241.204334 
L 136.379414 241.207663 
L 137.77686 241.210553 
L 139.174305 241.213121 
L 140.571751 241.215425 
L 141.969196 241.217515 
L 143.366642 241.219429 
L 144.764087 241.221187 
L 146.161533 241.222813 
L 147.558978 241.224322 
L 148.956424 241.225724 
L 150.353869 241.227028 
L 151.751315 241.228239 
L 153.14876 241.229382 
L 154.546206 241.230437 
L 155.943651 241.231433 
L 157.341097 241.232362 
L 158.738542 241.233231 
L 160.135988 241.234052 
L 161.533434 241.234823 
L 162.930879 241.235546 
L 164.328325 241.23622 
L 165.72577 241.236865 
L 167.123216 241.237466 
L 168.520661 241.238038 
L 169.918107 241.238575 
L 171.315552 241.239083 
L 172.712998 241.239567 
L 174.110443 241.240016 
L 175.507889 241.240451 
L 176.905334 241.240862 
L 178.30278 241.241252 
L 179.700225 241.241614 
L 181.097671 241.241971 
L 182.495116 241.242308 
L 183.892562 241.242625 
L 185.290008 241.242933 
L 186.687453 241.243216 
L 188.084899 241.2435 
L 189.482344 241.243764 
L 190.87979 241.244018 
L 192.277235 241.244262 
L 193.674681 241.244506 
L 195.072126 241.244731 
L 196.469572 241.244951 
L 197.867017 241.245161 
L 199.264463 241.245361 
" clip-path="url(#p4d6189f747)" style="fill: none; stroke: #2ca02c; stroke-width: 1.5; stroke-linecap: square"/>
   </g>
   <g id="line2d_31">
    <path d="M 60.917355 44.443636 
L 62.314801 174.75488 
L 63.712246 178.807433 
L 65.109692 180.848104 
L 66.507137 181.942245 
L 67.904583 182.578168 
L 69.302029 182.962907 
L 70.699474 183.200369 
L 72.09692 183.350615 
L 73.494365 183.44764 
L 74.891811 183.512704 
L 76.289256 183.555475 
L 77.686702 183.584792 
L 79.084147 183.605825 
L 80.481593 183.621921 
L 81.879038 183.635115 
L 83.276484 183.646968 
L 84.673929 183.658152 
L 86.071375 183.669246 
L 87.46882 183.680792 
L 88.866266 183.693229 
L 90.263711 183.706904 
L 91.661157 183.722136 
L 93.058603 183.739669 
L 94.456048 183.75991 
L 95.853494 183.78332 
L 97.250939 183.810598 
L 98.648385 183.842622 
L 100.04583 183.880933 
L 101.443276 183.926882 
L 102.840721 183.982783 
L 104.238167 184.052486 
L 105.635612 184.140685 
L 107.033058 184.253539 
L 108.430503 184.401876 
L 109.827949 184.601198 
L 111.225394 184.873614 
L 112.62284 185.258384 
L 114.020285 185.8184 
L 115.417731 186.650716 
L 116.815177 187.923099 
L 118.212622 189.916354 
L 119.610068 193.052737 
L 121.007513 197.801914 
L 122.404959 204.454931 
L 123.802404 212.611303 
L 125.19985 220.936871 
L 126.597295 227.995679 
L 127.994741 233.108539 
L 129.392186 236.446668 
L 130.789632 238.464914 
L 132.187077 239.645508 
L 133.584523 240.318211 
L 134.981968 240.690868 
L 136.379414 240.896064 
L 137.77686 241.007714 
L 139.174305 241.068642 
L 140.571751 241.101686 
L 141.969196 241.120022 
L 143.366642 241.130131 
L 144.764087 241.135784 
L 146.161533 241.139005 
L 147.558978 241.140887 
L 148.956424 241.142008 
L 150.353869 241.142709 
L 151.751315 241.143177 
L 153.14876 241.143499 
L 154.546206 241.143743 
L 155.943651 241.143938 
L 157.341097 241.144113 
L 158.738542 241.144269 
L 160.135988 241.144425 
L 161.533434 241.144571 
L 162.930879 241.144713 
L 164.328325 241.144859 
L 165.72577 241.145005 
L 167.123216 241.145156 
L 168.520661 241.145312 
L 169.918107 241.145468 
L 171.315552 241.145624 
L 172.712998 241.14579 
L 174.110443 241.145956 
L 175.507889 241.146131 
L 176.905334 241.146307 
L 178.30278 241.146492 
L 179.700225 241.146677 
L 181.097671 241.146862 
L 182.495116 241.147048 
L 183.892562 241.147247 
L 185.290008 241.147442 
L 186.687453 241.147647 
L 188.084899 241.147847 
L 189.482344 241.148061 
L 190.87979 241.148276 
L 192.277235 241.148495 
L 193.674681 241.148715 
L 195.072126 241.148944 
L 196.469572 241.149173 
L 197.867017 241.149402 
L 199.264463 241.149641 
" clip-path="url(#p4d6189f747)" style="fill: none; stroke: #d62728; stroke-width: 1.5; stroke-linecap: square"/>
   </g>
   <g id="line2d_32">
    <path d="M 60.917355 44.443636 
L 62.314801 85.160604 
L 63.712246 106.154115 
L 65.109692 121.675691 
L 66.507137 134.107103 
L 67.904583 144.176181 
L 69.302029 152.300819 
L 70.699474 158.811836 
L 72.09692 164.050654 
L 73.494365 168.33496 
L 74.891811 171.793427 
L 76.289256 174.588048 
L 77.686702 176.814078 
L 79.084147 178.60032 
L 80.481593 180.084769 
L 81.879038 181.438052 
L 83.276484 182.899288 
L 84.673929 185.013432 
L 86.071375 189.664995 
L 87.46882 202.787089 
L 88.866266 224.434072 
L 90.263711 235.873649 
L 91.661157 238.556957 
L 93.058603 239.406444 
L 94.456048 239.81546 
L 95.853494 240.073756 
L 97.250939 240.26359 
L 98.648385 240.411104 
L 100.04583 240.542405 
L 101.443276 240.656777 
L 102.840721 240.753557 
L 104.238167 240.832825 
L 105.635612 240.898821 
L 107.033058 240.955245 
L 108.430503 241.002604 
L 109.827949 241.042066 
L 111.225394 241.073527 
L 112.62284 241.1006 
L 114.020285 241.123379 
L 115.417731 241.142943 
L 116.815177 241.159792 
L 118.212622 241.174588 
L 119.610068 241.187633 
L 121.007513 241.199448 
L 122.404959 241.210016 
L 123.802404 241.219839 
L 125.19985 241.229372 
L 126.597295 241.238453 
L 127.994741 241.247208 
L 129.392186 241.255843 
L 130.789632 241.264299 
L 132.187077 241.272757 
L 133.584523 241.281094 
L 134.981968 241.289492 
L 136.379414 241.298033 
L 137.77686 241.306678 
L 139.174305 241.315355 
L 140.571751 241.324176 
L 141.969196 241.333077 
L 143.366642 241.342165 
L 144.764087 241.351477 
L 146.161533 241.360917 
L 147.558978 241.370591 
L 148.956424 241.380413 
L 150.353869 241.390258 
L 151.751315 241.400163 
L 153.14876 241.41014 
L 154.546206 241.420143 
L 155.943651 241.430213 
L 157.341097 241.440271 
L 158.738542 241.450306 
L 160.135988 241.460388 
L 161.533434 241.470532 
L 162.930879 241.480629 
L 164.328325 241.49064 
L 165.72577 241.50053 
L 167.123216 241.510236 
L 168.520661 241.519826 
L 169.918107 241.529251 
L 171.315552 241.53854 
L 172.712998 241.547896 
L 174.110443 241.55714 
L 175.507889 241.566327 
L 176.905334 241.575359 
L 178.30278 241.58425 
L 179.700225 241.592901 
L 181.097671 241.601471 
L 182.495116 241.609894 
L 183.892562 241.618245 
L 185.290008 241.62643 
L 186.687453 241.634508 
L 188.084899 241.642435 
L 189.482344 241.650254 
L 190.87979 241.657927 
L 192.277235 241.665503 
L 193.674681 241.672937 
L 195.072126 241.680294 
L 196.469572 241.687533 
L 197.867017 241.694699 
L 199.264463 241.701758 
" clip-path="url(#p4d6189f747)" style="fill: none; stroke: #9467bd; stroke-width: 1.5; stroke-linecap: square"/>
   </g>
   <g id="patch_3">
    <path d="M 54 252 
L 54 34.56 
" style="fill: none; stroke: #000000; stroke-width: 0.8; stroke-linejoin: miter; stroke-linecap: square"/>
   </g>
   <g id="patch_4">
    <path d="M 206.181818 252 
L 206.181818 34.56 
" style="fill: none; stroke: #000000; stroke-width: 0.8; stroke-linejoin: miter; stroke-linecap: square"/>
   </g>
   <g id="patch_5">
    <path d="M 54 252 
L 206.181818 252 
" style="fill: none; stroke: #000000; stroke-width: 0.8; stroke-linejoin: miter; stroke-linecap: square"/>
   </g>
   <g id="patch_6">
    <path d="M 54 34.56 
L 206.181818 34.56 
" style="fill: none; stroke: #000000; stroke-width: 0.8; stroke-linejoin: miter; stroke-linecap: square"/>
   </g>
   <g id="text_11">
    <!-- Tensor rank decomposition benchmark -->
    <g transform="translate(54 28.56)scale(0.12 -0.12)">
     <defs>
      <path id="DejaVuSans-54" d="M -19 4666 
L 3928 4666 
L 3928 4134 
L 2272 4134 
L 2272 0 
L 1638 0 
L 1638 4134 
L -19 4134 
L -19 4666 
z
" transform="scale(0.015625)"/>
      <path id="DejaVuSans-6b" d="M 581 4863 
L 1159 4863 
L 1159 1991 
L 2875 3500 
L 3609 3500 
L 1753 1863 
L 3688 0 
L 2938 0 
L 1159 1709 
L 1159 0 
L 581 0 
L 581 4863 
z
" transform="scale(0.015625)"/>
      <path id="DejaVuSans-64" d="M 2906 2969 
L 2906 4863 
L 3481 4863 
L 3481 0 
L 2906 0 
L 2906 525 
Q 2725 213 2448 61 
Q 2172 -91 1784 -91 
Q 1150 -91 751 415 
Q 353 922 353 1747 
Q 353 2572 751 3078 
Q 1150 3584 1784 3584 
Q 2172 3584 2448 3432 
Q 2725 3281 2906 2969 
z
M 947 1747 
Q 947 1113 1208 752 
Q 1469 391 1925 391 
Q 2381 391 2643 752 
Q 2906 1113 2906 1747 
Q 2906 2381 2643 2742 
Q 2381 3103 1925 3103 
Q 1469 3103 1208 2742 
Q 947 2381 947 1747 
z
" transform="scale(0.015625)"/>
      <path id="DejaVuSans-63" d="M 3122 3366 
L 3122 2828 
Q 2878 2963 2633 3030 
Q 2388 3097 2138 3097 
Q 1578 3097 1268 2742 
Q 959 2388 959 1747 
Q 959 1106 1268 751 
Q 1578 397 2138 397 
Q 2388 397 2633 464 
Q 2878 531 3122 666 
L 3122 134 
Q 2881 22 2623 -34 
Q 2366 -91 2075 -91 
Q 1284 -91 818 406 
Q 353 903 353 1747 
Q 353 2603 823 3093 
Q 1294 3584 2113 3584 
Q 2378 3584 2631 3529 
Q 2884 3475 3122 3366 
z
" transform="scale(0.015625)"/>
      <path id="DejaVuSans-6d" d="M 3328 2828 
Q 3544 3216 3844 3400 
Q 4144 3584 4550 3584 
Q 5097 3584 5394 3201 
Q 5691 2819 5691 2113 
L 5691 0 
L 5113 0 
L 5113 2094 
Q 5113 2597 4934 2840 
Q 4756 3084 4391 3084 
Q 3944 3084 3684 2787 
Q 3425 2491 3425 1978 
L 3425 0 
L 2847 0 
L 2847 2094 
Q 2847 2600 2669 2842 
Q 2491 3084 2119 3084 
Q 1678 3084 1418 2786 
Q 1159 2488 1159 1978 
L 1159 0 
L 581 0 
L 581 3500 
L 1159 3500 
L 1159 2956 
Q 1356 3278 1631 3431 
Q 1906 3584 2284 3584 
Q 2666 3584 2933 3390 
Q 3200 3197 3328 2828 
z
" transform="scale(0.015625)"/>
      <path id="DejaVuSans-70" d="M 1159 525 
L 1159 -1331 
L 581 -1331 
L 581 3500 
L 1159 3500 
L 1159 2969 
Q 1341 3281 1617 3432 
Q 1894 3584 2278 3584 
Q 2916 3584 3314 3078 
Q 3713 2572 3713 1747 
Q 3713 922 3314 415 
Q 2916 -91 2278 -91 
Q 1894 -91 1617 61 
Q 1341 213 1159 525 
z
M 3116 1747 
Q 3116 2381 2855 2742 
Q 2594 3103 2138 3103 
Q 1681 3103 1420 2742 
Q 1159 2381 1159 1747 
Q 1159 1113 1420 752 
Q 1681 391 2138 391 
Q 2594 391 2855 752 
Q 3116 1113 3116 1747 
z
" transform="scale(0.015625)"/>
      <path id="DejaVuSans-62" d="M 3116 1747 
Q 3116 2381 2855 2742 
Q 2594 3103 2138 3103 
Q 1681 3103 1420 2742 
Q 1159 2381 1159 1747 
Q 1159 1113 1420 752 
Q 1681 391 2138 391 
Q 2594 391 2855 752 
Q 3116 1113 3116 1747 
z
M 1159 2969 
Q 1341 3281 1617 3432 
Q 1894 3584 2278 3584 
Q 2916 3584 3314 3078 
Q 3713 2572 3713 1747 
Q 3713 922 3314 415 
Q 2916 -91 2278 -91 
Q 1894 -91 1617 61 
Q 1341 213 1159 525 
L 1159 0 
L 581 0 
L 581 4863 
L 1159 4863 
L 1159 2969 
z
" transform="scale(0.015625)"/>
      <path id="DejaVuSans-68" d="M 3513 2113 
L 3513 0 
L 2938 0 
L 2938 2094 
Q 2938 2591 2744 2837 
Q 2550 3084 2163 3084 
Q 1697 3084 1428 2787 
Q 1159 2491 1159 1978 
L 1159 0 
L 581 0 
L 581 4863 
L 1159 4863 
L 1159 2956 
Q 1366 3272 1645 3428 
Q 1925 3584 2291 3584 
Q 2894 3584 3203 3211 
Q 3513 2838 3513 2113 
z
" transform="scale(0.015625)"/>
     </defs>
     <use xlink:href="#DejaVuSans-54"/>
     <use xlink:href="#DejaVuSans-65" x="44.083984"/>
     <use xlink:href="#DejaVuSans-6e" x="105.607422"/>
     <use xlink:href="#DejaVuSans-73" x="168.986328"/>
     <use xlink:href="#DejaVuSans-6f" x="221.085938"/>
     <use xlink:href="#DejaVuSans-72" x="282.267578"/>
     <use xlink:href="#DejaVuSans-20" x="323.380859"/>
     <use xlink:href="#DejaVuSans-72" x="355.167969"/>
     <use xlink:href="#DejaVuSans-61" x="396.28125"/>
     <use xlink:href="#DejaVuSans-6e" x="457.560547"/>
     <use xlink:href="#DejaVuSans-6b" x="520.939453"/>
     <use xlink:href="#DejaVuSans-20" x="578.849609"/>
     <use xlink:href="#DejaVuSans-64" x="610.636719"/>
     <use xlink:href="#DejaVuSans-65" x="674.113281"/>
     <use xlink:href="#DejaVuSans-63" x="735.636719"/>
     <use xlink:href="#DejaVuSans-6f" x="790.617188"/>
     <use xlink:href="#DejaVuSans-6d" x="851.798828"/>
     <use xlink:href="#DejaVuSans-70" x="949.210938"/>
     <use xlink:href="#DejaVuSans-6f" x="1012.6875"/>
     <use xlink:href="#DejaVuSans-73" x="1073.869141"/>
     <use xlink:href="#DejaVuSans-69" x="1125.96875"/>
     <use xlink:href="#DejaVuSans-74" x="1153.751953"/>
     <use xlink:href="#DejaVuSans-69" x="1192.960938"/>
     <use xlink:href="#DejaVuSans-6f" x="1220.744141"/>
     <use xlink:href="#DejaVuSans-6e" x="1281.925781"/>
     <use xlink:href="#DejaVuSans-20" x="1345.304688"/>
     <use xlink:href="#DejaVuSans-62" x="1377.091797"/>
     <use xlink:href="#DejaVuSans-65" x="1440.568359"/>
     <use xlink:href="#DejaVuSans-6e" x="1502.091797"/>
     <use xlink:href="#DejaVuSans-63" x="1565.470703"/>
     <use xlink:href="#DejaVuSans-68" x="1620.451172"/>
     <use xlink:href="#DejaVuSans-6d" x="1683.830078"/>
     <use xlink:href="#DejaVuSans-61" x="1781.242188"/>
     <use xlink:href="#DejaVuSans-72" x="1842.521484"/>
     <use xlink:href="#DejaVuSans-6b" x="1883.634766"/>
    </g>
   </g>
   <g id="legend_1">
    <g id="patch_7">
     <path d="M 97.558381 115.950625 
L 199.181818 115.950625 
Q 201.181818 115.950625 201.181818 113.950625 
L 201.181818 41.56 
Q 201.181818 39.56 199.181818 39.56 
L 97.558381 39.56 
Q 95.558381 39.56 95.558381 41.56 
L 95.558381 113.950625 
Q 95.558381 115.950625 97.558381 115.950625 
z
" style="fill: #ffffff; opacity: 0.8; stroke: #cccccc; stroke-linejoin: miter"/>
    </g>
    <g id="line2d_33">
     <path d="M 99.558381 47.658437 
L 109.558381 47.658437 
L 119.558381 47.658437 
" style="fill: none; stroke: #1f77b4; stroke-width: 1.5; stroke-linecap: square"/>
    </g>
    <g id="text_12">
     <!-- LM-BFGS -->
     <g transform="translate(127.558381 51.158437)scale(0.1 -0.1)">
      <defs>
       <path id="DejaVuSans-4c" d="M 628 4666 
L 1259 4666 
L 1259 531 
L 3531 531 
L 3531 0 
L 628 0 
L 628 4666 
z
" transform="scale(0.015625)"/>
       <path id="DejaVuSans-4d" d="M 628 4666 
L 1569 4666 
L 2759 1491 
L 3956 4666 
L 4897 4666 
L 4897 0 
L 4281 0 
L 4281 4097 
L 3078 897 
L 2444 897 
L 1241 4097 
L 1241 0 
L 628 0 
L 628 4666 
z
" transform="scale(0.015625)"/>
       <path id="DejaVuSans-2d" d="M 313 2009 
L 1997 2009 
L 1997 1497 
L 313 1497 
L 313 2009 
z
" transform="scale(0.015625)"/>
       <path id="DejaVuSans-42" d="M 1259 2228 
L 1259 519 
L 2272 519 
Q 2781 519 3026 730 
Q 3272 941 3272 1375 
Q 3272 1813 3026 2020 
Q 2781 2228 2272 2228 
L 1259 2228 
z
M 1259 4147 
L 1259 2741 
L 2194 2741 
Q 2656 2741 2882 2914 
Q 3109 3088 3109 3444 
Q 3109 3797 2882 3972 
Q 2656 4147 2194 4147 
L 1259 4147 
z
M 628 4666 
L 2241 4666 
Q 2963 4666 3353 4366 
Q 3744 4066 3744 3513 
Q 3744 3084 3544 2831 
Q 3344 2578 2956 2516 
Q 3422 2416 3680 2098 
Q 3938 1781 3938 1306 
Q 3938 681 3513 340 
Q 3088 0 2303 0 
L 628 0 
L 628 4666 
z
" transform="scale(0.015625)"/>
       <path id="DejaVuSans-47" d="M 3809 666 
L 3809 1919 
L 2778 1919 
L 2778 2438 
L 4434 2438 
L 4434 434 
Q 4069 175 3628 42 
Q 3188 -91 2688 -91 
Q 1594 -91 976 548 
Q 359 1188 359 2328 
Q 359 3472 976 4111 
Q 1594 4750 2688 4750 
Q 3144 4750 3555 4637 
Q 3966 4525 4313 4306 
L 4313 3634 
Q 3963 3931 3569 4081 
Q 3175 4231 2741 4231 
Q 1884 4231 1454 3753 
Q 1025 3275 1025 2328 
Q 1025 1384 1454 906 
Q 1884 428 2741 428 
Q 3075 428 3337 486 
Q 3600 544 3809 666 
z
" transform="scale(0.015625)"/>
       <path id="DejaVuSans-53" d="M 3425 4513 
L 3425 3897 
Q 3066 4069 2747 4153 
Q 2428 4238 2131 4238 
Q 1616 4238 1336 4038 
Q 1056 3838 1056 3469 
Q 1056 3159 1242 3001 
Q 1428 2844 1947 2747 
L 2328 2669 
Q 3034 2534 3370 2195 
Q 3706 1856 3706 1288 
Q 3706 609 3251 259 
Q 2797 -91 1919 -91 
Q 1588 -91 1214 -16 
Q 841 59 441 206 
L 441 856 
Q 825 641 1194 531 
Q 1563 422 1919 422 
Q 2459 422 2753 634 
Q 3047 847 3047 1241 
Q 3047 1584 2836 1778 
Q 2625 1972 2144 2069 
L 1759 2144 
Q 1053 2284 737 2584 
Q 422 2884 422 3419 
Q 422 4038 858 4394 
Q 1294 4750 2059 4750 
Q 2388 4750 2728 4690 
Q 3069 4631 3425 4513 
z
" transform="scale(0.015625)"/>
      </defs>
      <use xlink:href="#DejaVuSans-4c"/>
      <use xlink:href="#DejaVuSans-4d" x="55.712891"/>
      <use xlink:href="#DejaVuSans-2d" x="141.992188"/>
      <use xlink:href="#DejaVuSans-42" x="174.451172"/>
      <use xlink:href="#DejaVuSans-46" x="243.054688"/>
      <use xlink:href="#DejaVuSans-47" x="300.574219"/>
      <use xlink:href="#DejaVuSans-53" x="378.064453"/>
     </g>
    </g>
    <g id="line2d_34">
     <path d="M 99.558381 62.336562 
L 109.558381 62.336562 
L 119.558381 62.336562 
" style="fill: none; stroke: #ff7f0e; stroke-width: 1.5; stroke-linecap: square"/>
    </g>
    <g id="text_13">
     <!-- PSGD-Xmat -->
     <g transform="translate(127.558381 65.836562)scale(0.1 -0.1)">
      <defs>
       <path id="DejaVuSans-50" d="M 1259 4147 
L 1259 2394 
L 2053 2394 
Q 2494 2394 2734 2622 
Q 2975 2850 2975 3272 
Q 2975 3691 2734 3919 
Q 2494 4147 2053 4147 
L 1259 4147 
z
M 628 4666 
L 2053 4666 
Q 2838 4666 3239 4311 
Q 3641 3956 3641 3272 
Q 3641 2581 3239 2228 
Q 2838 1875 2053 1875 
L 1259 1875 
L 1259 0 
L 628 0 
L 628 4666 
z
" transform="scale(0.015625)"/>
       <path id="DejaVuSans-44" d="M 1259 4147 
L 1259 519 
L 2022 519 
Q 2988 519 3436 956 
Q 3884 1394 3884 2338 
Q 3884 3275 3436 3711 
Q 2988 4147 2022 4147 
L 1259 4147 
z
M 628 4666 
L 1925 4666 
Q 3281 4666 3915 4102 
Q 4550 3538 4550 2338 
Q 4550 1131 3912 565 
Q 3275 0 1925 0 
L 628 0 
L 628 4666 
z
" transform="scale(0.015625)"/>
       <path id="DejaVuSans-58" d="M 403 4666 
L 1081 4666 
L 2241 2931 
L 3406 4666 
L 4084 4666 
L 2584 2425 
L 4184 0 
L 3506 0 
L 2194 1984 
L 872 0 
L 191 0 
L 1856 2491 
L 403 4666 
z
" transform="scale(0.015625)"/>
      </defs>
      <use xlink:href="#DejaVuSans-50"/>
      <use xlink:href="#DejaVuSans-53" x="60.302734"/>
      <use xlink:href="#DejaVuSans-47" x="123.779297"/>
      <use xlink:href="#DejaVuSans-44" x="201.269531"/>
      <use xlink:href="#DejaVuSans-2d" x="278.271484"/>
      <use xlink:href="#DejaVuSans-58" x="309.355469"/>
      <use xlink:href="#DejaVuSans-6d" x="377.861328"/>
      <use xlink:href="#DejaVuSans-61" x="475.273438"/>
      <use xlink:href="#DejaVuSans-74" x="536.552734"/>
     </g>
    </g>
    <g id="line2d_35">
     <path d="M 99.558381 77.014687 
L 109.558381 77.014687 
L 119.558381 77.014687 
" style="fill: none; stroke: #2ca02c; stroke-width: 1.5; stroke-linecap: square"/>
    </g>
    <g id="text_14">
     <!-- PSGD-Newton -->
     <g transform="translate(127.558381 80.514687)scale(0.1 -0.1)">
      <defs>
       <path id="DejaVuSans-4e" d="M 628 4666 
L 1478 4666 
L 3547 763 
L 3547 4666 
L 4159 4666 
L 4159 0 
L 3309 0 
L 1241 3903 
L 1241 0 
L 628 0 
L 628 4666 
z
" transform="scale(0.015625)"/>
       <path id="DejaVuSans-77" d="M 269 3500 
L 844 3500 
L 1563 769 
L 2278 3500 
L 2956 3500 
L 3675 769 
L 4391 3500 
L 4966 3500 
L 4050 0 
L 3372 0 
L 2619 2869 
L 1863 0 
L 1184 0 
L 269 3500 
z
" transform="scale(0.015625)"/>
      </defs>
      <use xlink:href="#DejaVuSans-50"/>
      <use xlink:href="#DejaVuSans-53" x="60.302734"/>
      <use xlink:href="#DejaVuSans-47" x="123.779297"/>
      <use xlink:href="#DejaVuSans-44" x="201.269531"/>
      <use xlink:href="#DejaVuSans-2d" x="278.271484"/>
      <use xlink:href="#DejaVuSans-4e" x="314.355469"/>
      <use xlink:href="#DejaVuSans-65" x="389.160156"/>
      <use xlink:href="#DejaVuSans-77" x="450.683594"/>
      <use xlink:href="#DejaVuSans-74" x="532.470703"/>
      <use xlink:href="#DejaVuSans-6f" x="571.679688"/>
      <use xlink:href="#DejaVuSans-6e" x="632.861328"/>
     </g>
    </g>
    <g id="line2d_36">
     <path d="M 99.558381 91.692813 
L 109.558381 91.692813 
L 119.558381 91.692813 
" style="fill: none; stroke: #d62728; stroke-width: 1.5; stroke-linecap: square"/>
    </g>
    <g id="text_15">
     <!-- PSGD-LRA -->
     <g transform="translate(127.558381 95.192813)scale(0.1 -0.1)">
      <defs>
       <path id="DejaVuSans-52" d="M 2841 2188 
Q 3044 2119 3236 1894 
Q 3428 1669 3622 1275 
L 4263 0 
L 3584 0 
L 2988 1197 
Q 2756 1666 2539 1819 
Q 2322 1972 1947 1972 
L 1259 1972 
L 1259 0 
L 628 0 
L 628 4666 
L 2053 4666 
Q 2853 4666 3247 4331 
Q 3641 3997 3641 3322 
Q 3641 2881 3436 2590 
Q 3231 2300 2841 2188 
z
M 1259 4147 
L 1259 2491 
L 2053 2491 
Q 2509 2491 2742 2702 
Q 2975 2913 2975 3322 
Q 2975 3731 2742 3939 
Q 2509 4147 2053 4147 
L 1259 4147 
z
" transform="scale(0.015625)"/>
       <path id="DejaVuSans-41" d="M 2188 4044 
L 1331 1722 
L 3047 1722 
L 2188 4044 
z
M 1831 4666 
L 2547 4666 
L 4325 0 
L 3669 0 
L 3244 1197 
L 1141 1197 
L 716 0 
L 50 0 
L 1831 4666 
z
" transform="scale(0.015625)"/>
      </defs>
      <use xlink:href="#DejaVuSans-50"/>
      <use xlink:href="#DejaVuSans-53" x="60.302734"/>
      <use xlink:href="#DejaVuSans-47" x="123.779297"/>
      <use xlink:href="#DejaVuSans-44" x="201.269531"/>
      <use xlink:href="#DejaVuSans-2d" x="278.271484"/>
      <use xlink:href="#DejaVuSans-4c" x="314.355469"/>
      <use xlink:href="#DejaVuSans-52" x="370.068359"/>
      <use xlink:href="#DejaVuSans-41" x="435.550781"/>
     </g>
    </g>
    <g id="line2d_37">
     <path d="M 99.558381 106.370937 
L 109.558381 106.370937 
L 119.558381 106.370937 
" style="fill: none; stroke: #9467bd; stroke-width: 1.5; stroke-linecap: square"/>
    </g>
    <g id="text_16">
     <!-- PSGD-Affine -->
     <g transform="translate(127.558381 109.870937)scale(0.1 -0.1)">
      <defs>
       <path id="DejaVuSans-66" d="M 2375 4863 
L 2375 4384 
L 1825 4384 
Q 1516 4384 1395 4259 
Q 1275 4134 1275 3809 
L 1275 3500 
L 2222 3500 
L 2222 3053 
L 1275 3053 
L 1275 0 
L 697 0 
L 697 3053 
L 147 3053 
L 147 3500 
L 697 3500 
L 697 3744 
Q 697 4328 969 4595 
Q 1241 4863 1831 4863 
L 2375 4863 
z
" transform="scale(0.015625)"/>
      </defs>
      <use xlink:href="#DejaVuSans-50"/>
      <use xlink:href="#DejaVuSans-53" x="60.302734"/>
      <use xlink:href="#DejaVuSans-47" x="123.779297"/>
      <use xlink:href="#DejaVuSans-44" x="201.269531"/>
      <use xlink:href="#DejaVuSans-2d" x="278.271484"/>
      <use xlink:href="#DejaVuSans-41" x="312.105469"/>
      <use xlink:href="#DejaVuSans-66" x="376.888672"/>
      <use xlink:href="#DejaVuSans-66" x="412.09375"/>
      <use xlink:href="#DejaVuSans-69" x="447.298828"/>
      <use xlink:href="#DejaVuSans-6e" x="475.082031"/>
      <use xlink:href="#DejaVuSans-65" x="538.460938"/>
     </g>
    </g>
   </g>
  </g>
  <g id="axes_2">
   <g id="patch_8">
    <path d="M 236.618182 252 
L 388.8 252 
L 388.8 34.56 
L 236.618182 34.56 
z
" style="fill: #ffffff"/>
   </g>
   <g id="matplotlib.axis_3">
    <g id="xtick_6">
     <g id="line2d_38">
      <g>
       <use xlink:href="#mcac3eaef07" x="258.362871" y="252" style="stroke: #000000; stroke-width: 0.8"/>
      </g>
     </g>
     <g id="text_17">
      <!-- $\mathdefault{10^{-2}}$ -->
      <g transform="translate(246.612871 266.598437)scale(0.1 -0.1)">
       <defs>
        <path id="DejaVuSans-2212" d="M 678 2272 
L 4684 2272 
L 4684 1741 
L 678 1741 
L 678 2272 
z
" transform="scale(0.015625)"/>
       </defs>
       <use xlink:href="#DejaVuSans-31" transform="translate(0 0.765625)"/>
       <use xlink:href="#DejaVuSans-30" transform="translate(63.623047 0.765625)"/>
       <use xlink:href="#DejaVuSans-2212" transform="translate(128.203125 39.046875)scale(0.7)"/>
       <use xlink:href="#DejaVuSans-32" transform="translate(186.855469 39.046875)scale(0.7)"/>
      </g>
     </g>
    </g>
    <g id="xtick_7">
     <g id="line2d_39">
      <g>
       <use xlink:href="#mcac3eaef07" x="291.599086" y="252" style="stroke: #000000; stroke-width: 0.8"/>
      </g>
     </g>
     <g id="text_18">
      <!-- $\mathdefault{10^{-1}}$ -->
      <g transform="translate(279.849086 266.598437)scale(0.1 -0.1)">
       <use xlink:href="#DejaVuSans-31" transform="translate(0 0.684375)"/>
       <use xlink:href="#DejaVuSans-30" transform="translate(63.623047 0.684375)"/>
       <use xlink:href="#DejaVuSans-2212" transform="translate(128.203125 38.965625)scale(0.7)"/>
       <use xlink:href="#DejaVuSans-31" transform="translate(186.855469 38.965625)scale(0.7)"/>
      </g>
     </g>
    </g>
    <g id="xtick_8">
     <g id="line2d_40">
      <g>
       <use xlink:href="#mcac3eaef07" x="324.8353" y="252" style="stroke: #000000; stroke-width: 0.8"/>
      </g>
     </g>
     <g id="text_19">
      <!-- $\mathdefault{10^{0}}$ -->
      <g transform="translate(316.0353 266.598437)scale(0.1 -0.1)">
       <use xlink:href="#DejaVuSans-31" transform="translate(0 0.765625)"/>
       <use xlink:href="#DejaVuSans-30" transform="translate(63.623047 0.765625)"/>
       <use xlink:href="#DejaVuSans-30" transform="translate(128.203125 39.046875)scale(0.7)"/>
      </g>
     </g>
    </g>
    <g id="xtick_9">
     <g id="line2d_41">
      <g>
       <use xlink:href="#mcac3eaef07" x="358.071515" y="252" style="stroke: #000000; stroke-width: 0.8"/>
      </g>
     </g>
     <g id="text_20">
      <!-- $\mathdefault{10^{1}}$ -->
      <g transform="translate(349.271515 266.598437)scale(0.1 -0.1)">
       <use xlink:href="#DejaVuSans-31" transform="translate(0 0.684375)"/>
       <use xlink:href="#DejaVuSans-30" transform="translate(63.623047 0.684375)"/>
       <use xlink:href="#DejaVuSans-31" transform="translate(128.203125 38.965625)scale(0.7)"/>
      </g>
     </g>
    </g>
    <g id="xtick_10">
     <g id="line2d_42">
      <defs>
       <path id="mba87e208f6" d="M 0 0 
L 0 2 
" style="stroke: #000000; stroke-width: 0.6"/>
      </defs>
      <g>
       <use xlink:href="#mba87e208f6" x="240.984361" y="252" style="stroke: #000000; stroke-width: 0.6"/>
      </g>
     </g>
    </g>
    <g id="xtick_11">
     <g id="line2d_43">
      <g>
       <use xlink:href="#mba87e208f6" x="245.136852" y="252" style="stroke: #000000; stroke-width: 0.6"/>
      </g>
     </g>
    </g>
    <g id="xtick_12">
     <g id="line2d_44">
      <g>
       <use xlink:href="#mba87e208f6" x="248.357774" y="252" style="stroke: #000000; stroke-width: 0.6"/>
      </g>
     </g>
    </g>
    <g id="xtick_13">
     <g id="line2d_45">
      <g>
       <use xlink:href="#mba87e208f6" x="250.989459" y="252" style="stroke: #000000; stroke-width: 0.6"/>
      </g>
     </g>
    </g>
    <g id="xtick_14">
     <g id="line2d_46">
      <g>
       <use xlink:href="#mba87e208f6" x="253.214517" y="252" style="stroke: #000000; stroke-width: 0.6"/>
      </g>
     </g>
    </g>
    <g id="xtick_15">
     <g id="line2d_47">
      <g>
       <use xlink:href="#mba87e208f6" x="255.141949" y="252" style="stroke: #000000; stroke-width: 0.6"/>
      </g>
     </g>
    </g>
    <g id="xtick_16">
     <g id="line2d_48">
      <g>
       <use xlink:href="#mba87e208f6" x="256.842066" y="252" style="stroke: #000000; stroke-width: 0.6"/>
      </g>
     </g>
    </g>
    <g id="xtick_17">
     <g id="line2d_49">
      <g>
       <use xlink:href="#mba87e208f6" x="268.367969" y="252" style="stroke: #000000; stroke-width: 0.6"/>
      </g>
     </g>
    </g>
    <g id="xtick_18">
     <g id="line2d_50">
      <g>
       <use xlink:href="#mba87e208f6" x="274.220576" y="252" style="stroke: #000000; stroke-width: 0.6"/>
      </g>
     </g>
    </g>
    <g id="xtick_19">
     <g id="line2d_51">
      <g>
       <use xlink:href="#mba87e208f6" x="278.373066" y="252" style="stroke: #000000; stroke-width: 0.6"/>
      </g>
     </g>
    </g>
    <g id="xtick_20">
     <g id="line2d_52">
      <g>
       <use xlink:href="#mba87e208f6" x="281.593988" y="252" style="stroke: #000000; stroke-width: 0.6"/>
      </g>
     </g>
    </g>
    <g id="xtick_21">
     <g id="line2d_53">
      <g>
       <use xlink:href="#mba87e208f6" x="284.225673" y="252" style="stroke: #000000; stroke-width: 0.6"/>
      </g>
     </g>
    </g>
    <g id="xtick_22">
     <g id="line2d_54">
      <g>
       <use xlink:href="#mba87e208f6" x="286.450731" y="252" style="stroke: #000000; stroke-width: 0.6"/>
      </g>
     </g>
    </g>
    <g id="xtick_23">
     <g id="line2d_55">
      <g>
       <use xlink:href="#mba87e208f6" x="288.378164" y="252" style="stroke: #000000; stroke-width: 0.6"/>
      </g>
     </g>
    </g>
    <g id="xtick_24">
     <g id="line2d_56">
      <g>
       <use xlink:href="#mba87e208f6" x="290.07828" y="252" style="stroke: #000000; stroke-width: 0.6"/>
      </g>
     </g>
    </g>
    <g id="xtick_25">
     <g id="line2d_57">
      <g>
       <use xlink:href="#mba87e208f6" x="301.604183" y="252" style="stroke: #000000; stroke-width: 0.6"/>
      </g>
     </g>
    </g>
    <g id="xtick_26">
     <g id="line2d_58">
      <g>
       <use xlink:href="#mba87e208f6" x="307.45679" y="252" style="stroke: #000000; stroke-width: 0.6"/>
      </g>
     </g>
    </g>
    <g id="xtick_27">
     <g id="line2d_59">
      <g>
       <use xlink:href="#mba87e208f6" x="311.609281" y="252" style="stroke: #000000; stroke-width: 0.6"/>
      </g>
     </g>
    </g>
    <g id="xtick_28">
     <g id="line2d_60">
      <g>
       <use xlink:href="#mba87e208f6" x="314.830203" y="252" style="stroke: #000000; stroke-width: 0.6"/>
      </g>
     </g>
    </g>
    <g id="xtick_29">
     <g id="line2d_61">
      <g>
       <use xlink:href="#mba87e208f6" x="317.461888" y="252" style="stroke: #000000; stroke-width: 0.6"/>
      </g>
     </g>
    </g>
    <g id="xtick_30">
     <g id="line2d_62">
      <g>
       <use xlink:href="#mba87e208f6" x="319.686946" y="252" style="stroke: #000000; stroke-width: 0.6"/>
      </g>
     </g>
    </g>
    <g id="xtick_31">
     <g id="line2d_63">
      <g>
       <use xlink:href="#mba87e208f6" x="321.614378" y="252" style="stroke: #000000; stroke-width: 0.6"/>
      </g>
     </g>
    </g>
    <g id="xtick_32">
     <g id="line2d_64">
      <g>
       <use xlink:href="#mba87e208f6" x="323.314495" y="252" style="stroke: #000000; stroke-width: 0.6"/>
      </g>
     </g>
    </g>
    <g id="xtick_33">
     <g id="line2d_65">
      <g>
       <use xlink:href="#mba87e208f6" x="334.840398" y="252" style="stroke: #000000; stroke-width: 0.6"/>
      </g>
     </g>
    </g>
    <g id="xtick_34">
     <g id="line2d_66">
      <g>
       <use xlink:href="#mba87e208f6" x="340.693005" y="252" style="stroke: #000000; stroke-width: 0.6"/>
      </g>
     </g>
    </g>
    <g id="xtick_35">
     <g id="line2d_67">
      <g>
       <use xlink:href="#mba87e208f6" x="344.845495" y="252" style="stroke: #000000; stroke-width: 0.6"/>
      </g>
     </g>
    </g>
    <g id="xtick_36">
     <g id="line2d_68">
      <g>
       <use xlink:href="#mba87e208f6" x="348.066417" y="252" style="stroke: #000000; stroke-width: 0.6"/>
      </g>
     </g>
    </g>
    <g id="xtick_37">
     <g id="line2d_69">
      <g>
       <use xlink:href="#mba87e208f6" x="350.698102" y="252" style="stroke: #000000; stroke-width: 0.6"/>
      </g>
     </g>
    </g>
    <g id="xtick_38">
     <g id="line2d_70">
      <g>
       <use xlink:href="#mba87e208f6" x="352.92316" y="252" style="stroke: #000000; stroke-width: 0.6"/>
      </g>
     </g>
    </g>
    <g id="xtick_39">
     <g id="line2d_71">
      <g>
       <use xlink:href="#mba87e208f6" x="354.850593" y="252" style="stroke: #000000; stroke-width: 0.6"/>
      </g>
     </g>
    </g>
    <g id="xtick_40">
     <g id="line2d_72">
      <g>
       <use xlink:href="#mba87e208f6" x="356.550709" y="252" style="stroke: #000000; stroke-width: 0.6"/>
      </g>
     </g>
    </g>
    <g id="xtick_41">
     <g id="line2d_73">
      <g>
       <use xlink:href="#mba87e208f6" x="368.076612" y="252" style="stroke: #000000; stroke-width: 0.6"/>
      </g>
     </g>
    </g>
    <g id="xtick_42">
     <g id="line2d_74">
      <g>
       <use xlink:href="#mba87e208f6" x="373.929219" y="252" style="stroke: #000000; stroke-width: 0.6"/>
      </g>
     </g>
    </g>
    <g id="xtick_43">
     <g id="line2d_75">
      <g>
       <use xlink:href="#mba87e208f6" x="378.08171" y="252" style="stroke: #000000; stroke-width: 0.6"/>
      </g>
     </g>
    </g>
    <g id="xtick_44">
     <g id="line2d_76">
      <g>
       <use xlink:href="#mba87e208f6" x="381.302632" y="252" style="stroke: #000000; stroke-width: 0.6"/>
      </g>
     </g>
    </g>
    <g id="xtick_45">
     <g id="line2d_77">
      <g>
       <use xlink:href="#mba87e208f6" x="383.934317" y="252" style="stroke: #000000; stroke-width: 0.6"/>
      </g>
     </g>
    </g>
    <g id="xtick_46">
     <g id="line2d_78">
      <g>
       <use xlink:href="#mba87e208f6" x="386.159374" y="252" style="stroke: #000000; stroke-width: 0.6"/>
      </g>
     </g>
    </g>
    <g id="xtick_47">
     <g id="line2d_79">
      <g>
       <use xlink:href="#mba87e208f6" x="388.086807" y="252" style="stroke: #000000; stroke-width: 0.6"/>
      </g>
     </g>
    </g>
    <g id="text_21">
     <!-- Wall time (s) -->
     <g transform="translate(281.261435 280.276563)scale(0.1 -0.1)">
      <defs>
       <path id="DejaVuSans-57" d="M 213 4666 
L 850 4666 
L 1831 722 
L 2809 4666 
L 3519 4666 
L 4500 722 
L 5478 4666 
L 6119 4666 
L 4947 0 
L 4153 0 
L 3169 4050 
L 2175 0 
L 1381 0 
L 213 4666 
z
" transform="scale(0.015625)"/>
       <path id="DejaVuSans-28" d="M 1984 4856 
Q 1566 4138 1362 3434 
Q 1159 2731 1159 2009 
Q 1159 1288 1364 580 
Q 1569 -128 1984 -844 
L 1484 -844 
Q 1016 -109 783 600 
Q 550 1309 550 2009 
Q 550 2706 781 3412 
Q 1013 4119 1484 4856 
L 1984 4856 
z
" transform="scale(0.015625)"/>
       <path id="DejaVuSans-29" d="M 513 4856 
L 1013 4856 
Q 1481 4119 1714 3412 
Q 1947 2706 1947 2009 
Q 1947 1309 1714 600 
Q 1481 -109 1013 -844 
L 513 -844 
Q 928 -128 1133 580 
Q 1338 1288 1338 2009 
Q 1338 2731 1133 3434 
Q 928 4138 513 4856 
z
" transform="scale(0.015625)"/>
      </defs>
      <use xlink:href="#DejaVuSans-57"/>
      <use xlink:href="#DejaVuSans-61" x="92.501953"/>
      <use xlink:href="#DejaVuSans-6c" x="153.78125"/>
      <use xlink:href="#DejaVuSans-6c" x="181.564453"/>
      <use xlink:href="#DejaVuSans-20" x="209.347656"/>
      <use xlink:href="#DejaVuSans-74" x="241.134766"/>
      <use xlink:href="#DejaVuSans-69" x="280.34375"/>
      <use xlink:href="#DejaVuSans-6d" x="308.126953"/>
      <use xlink:href="#DejaVuSans-65" x="405.539062"/>
      <use xlink:href="#DejaVuSans-20" x="467.0625"/>
      <use xlink:href="#DejaVuSans-28" x="498.849609"/>
      <use xlink:href="#DejaVuSans-73" x="537.863281"/>
      <use xlink:href="#DejaVuSans-29" x="589.962891"/>
     </g>
    </g>
   </g>
   <g id="matplotlib.axis_4">
    <g id="ytick_23">
     <g id="line2d_80">
      <defs>
       <path id="mf3503d50e3" d="M 0 0 
L 3.5 0 
" style="stroke: #000000; stroke-width: 0.8"/>
      </defs>
      <g>
       <use xlink:href="#mf3503d50e3" x="388.8" y="233.456472" style="stroke: #000000; stroke-width: 0.8"/>
      </g>
     </g>
     <g id="text_22">
      <!-- $\mathdefault{10^{4}}$ -->
      <g transform="translate(395.8 237.25569)scale(0.1 -0.1)">
       <use xlink:href="#DejaVuSans-31" transform="translate(0 0.684375)"/>
       <use xlink:href="#DejaVuSans-30" transform="translate(63.623047 0.684375)"/>
       <use xlink:href="#DejaVuSans-34" transform="translate(128.203125 38.965625)scale(0.7)"/>
      </g>
     </g>
    </g>
    <g id="ytick_24">
     <g id="line2d_81">
      <g>
       <use xlink:href="#mf3503d50e3" x="388.8" y="137.979303" style="stroke: #000000; stroke-width: 0.8"/>
      </g>
     </g>
     <g id="text_23">
      <!-- $\mathdefault{10^{5}}$ -->
      <g transform="translate(395.8 141.778522)scale(0.1 -0.1)">
       <use xlink:href="#DejaVuSans-31" transform="translate(0 0.684375)"/>
       <use xlink:href="#DejaVuSans-30" transform="translate(63.623047 0.684375)"/>
       <use xlink:href="#DejaVuSans-35" transform="translate(128.203125 38.965625)scale(0.7)"/>
      </g>
     </g>
    </g>
    <g id="ytick_25">
     <g id="line2d_82">
      <g>
       <use xlink:href="#mf3503d50e3" x="388.8" y="42.502134" style="stroke: #000000; stroke-width: 0.8"/>
      </g>
     </g>
     <g id="text_24">
      <!-- $\mathdefault{10^{6}}$ -->
      <g transform="translate(395.8 46.301353)scale(0.1 -0.1)">
       <use xlink:href="#DejaVuSans-31" transform="translate(0 0.765625)"/>
       <use xlink:href="#DejaVuSans-30" transform="translate(63.623047 0.765625)"/>
       <use xlink:href="#DejaVuSans-36" transform="translate(128.203125 39.046875)scale(0.7)"/>
      </g>
     </g>
    </g>
    <g id="ytick_26">
     <g id="line2d_83">
      <defs>
       <path id="m026c842446" d="M 0 0 
L 2 0 
" style="stroke: #000000; stroke-width: 0.6"/>
      </defs>
      <g>
       <use xlink:href="#m026c842446" x="388.8" y="248.246072" style="stroke: #000000; stroke-width: 0.6"/>
      </g>
     </g>
    </g>
    <g id="ytick_27">
     <g id="line2d_84">
      <g>
       <use xlink:href="#m026c842446" x="388.8" y="242.709165" style="stroke: #000000; stroke-width: 0.6"/>
      </g>
     </g>
    </g>
    <g id="ytick_28">
     <g id="line2d_85">
      <g>
       <use xlink:href="#m026c842446" x="388.8" y="237.825267" style="stroke: #000000; stroke-width: 0.6"/>
      </g>
     </g>
    </g>
    <g id="ytick_29">
     <g id="line2d_86">
      <g>
       <use xlink:href="#m026c842446" x="388.8" y="204.71498" style="stroke: #000000; stroke-width: 0.6"/>
      </g>
     </g>
    </g>
    <g id="ytick_30">
     <g id="line2d_87">
      <g>
       <use xlink:href="#m026c842446" x="388.8" y="187.902285" style="stroke: #000000; stroke-width: 0.6"/>
      </g>
     </g>
    </g>
    <g id="ytick_31">
     <g id="line2d_88">
      <g>
       <use xlink:href="#m026c842446" x="388.8" y="175.973488" style="stroke: #000000; stroke-width: 0.6"/>
      </g>
     </g>
    </g>
    <g id="ytick_32">
     <g id="line2d_89">
      <g>
       <use xlink:href="#m026c842446" x="388.8" y="166.720795" style="stroke: #000000; stroke-width: 0.6"/>
      </g>
     </g>
    </g>
    <g id="ytick_33">
     <g id="line2d_90">
      <g>
       <use xlink:href="#m026c842446" x="388.8" y="159.160793" style="stroke: #000000; stroke-width: 0.6"/>
      </g>
     </g>
    </g>
    <g id="ytick_34">
     <g id="line2d_91">
      <g>
       <use xlink:href="#m026c842446" x="388.8" y="152.768903" style="stroke: #000000; stroke-width: 0.6"/>
      </g>
     </g>
    </g>
    <g id="ytick_35">
     <g id="line2d_92">
      <g>
       <use xlink:href="#m026c842446" x="388.8" y="147.231996" style="stroke: #000000; stroke-width: 0.6"/>
      </g>
     </g>
    </g>
    <g id="ytick_36">
     <g id="line2d_93">
      <g>
       <use xlink:href="#m026c842446" x="388.8" y="142.348098" style="stroke: #000000; stroke-width: 0.6"/>
      </g>
     </g>
    </g>
    <g id="ytick_37">
     <g id="line2d_94">
      <g>
       <use xlink:href="#m026c842446" x="388.8" y="109.237811" style="stroke: #000000; stroke-width: 0.6"/>
      </g>
     </g>
    </g>
    <g id="ytick_38">
     <g id="line2d_95">
      <g>
       <use xlink:href="#m026c842446" x="388.8" y="92.425116" style="stroke: #000000; stroke-width: 0.6"/>
      </g>
     </g>
    </g>
    <g id="ytick_39">
     <g id="line2d_96">
      <g>
       <use xlink:href="#m026c842446" x="388.8" y="80.496319" style="stroke: #000000; stroke-width: 0.6"/>
      </g>
     </g>
    </g>
    <g id="ytick_40">
     <g id="line2d_97">
      <g>
       <use xlink:href="#m026c842446" x="388.8" y="71.243626" style="stroke: #000000; stroke-width: 0.6"/>
      </g>
     </g>
    </g>
    <g id="ytick_41">
     <g id="line2d_98">
      <g>
       <use xlink:href="#m026c842446" x="388.8" y="63.683624" style="stroke: #000000; stroke-width: 0.6"/>
      </g>
     </g>
    </g>
    <g id="ytick_42">
     <g id="line2d_99">
      <g>
       <use xlink:href="#m026c842446" x="388.8" y="57.291734" style="stroke: #000000; stroke-width: 0.6"/>
      </g>
     </g>
    </g>
    <g id="ytick_43">
     <g id="line2d_100">
      <g>
       <use xlink:href="#m026c842446" x="388.8" y="51.754828" style="stroke: #000000; stroke-width: 0.6"/>
      </g>
     </g>
    </g>
    <g id="ytick_44">
     <g id="line2d_101">
      <g>
       <use xlink:href="#m026c842446" x="388.8" y="46.870929" style="stroke: #000000; stroke-width: 0.6"/>
      </g>
     </g>
    </g>
    <g id="text_25">
     <!-- Fitting loss -->
     <g transform="translate(230.538494 170.081563)rotate(-90)scale(0.1 -0.1)">
      <use xlink:href="#DejaVuSans-46"/>
      <use xlink:href="#DejaVuSans-69" x="50.269531"/>
      <use xlink:href="#DejaVuSans-74" x="78.052734"/>
      <use xlink:href="#DejaVuSans-74" x="117.261719"/>
      <use xlink:href="#DejaVuSans-69" x="156.470703"/>
      <use xlink:href="#DejaVuSans-6e" x="184.253906"/>
      <use xlink:href="#DejaVuSans-67" x="247.632812"/>
      <use xlink:href="#DejaVuSans-20" x="311.109375"/>
      <use xlink:href="#DejaVuSans-6c" x="342.896484"/>
      <use xlink:href="#DejaVuSans-6f" x="370.679688"/>
      <use xlink:href="#DejaVuSans-73" x="431.861328"/>
      <use xlink:href="#DejaVuSans-73" x="483.960938"/>
     </g>
    </g>
   </g>
   <g id="line2d_102">
    <path d="M 315.410216 44.443636 
L 325.415313 174.275318 
L 331.267919 183.514268 
L 335.420411 183.663489 
L 338.641333 181.026925 
L 341.273017 189.509776 
L 343.498076 223.847578 
L 345.425508 239.586396 
L 347.125625 241.067143 
L 348.64643 241.145049 
L 350.022167 241.147964 
L 351.278114 241.148525 
L 352.433475 241.168033 
L 353.503174 241.388286 
L 354.499037 241.498632 
L 355.430606 241.509616 
L 356.305679 241.51207 
L 357.130722 241.512498 
L 357.911146 241.51535 
L 358.651528 241.539962 
L 359.355779 241.65283 
L 360.027264 241.742112 
L 360.668894 241.766753 
L 361.283212 241.7897 
L 361.87245 241.811722 
L 362.438573 241.823403 
L 362.983329 241.830643 
L 363.508271 241.833267 
L 364.014789 241.834875 
L 364.504134 241.835361 
L 364.977433 241.835541 
L 365.435703 241.835767 
L 365.87987 241.836272 
L 366.310777 241.836996 
L 366.729193 241.842597 
L 367.13582 241.868138 
L 367.531304 241.913116 
L 367.916243 241.923316 
L 368.291181 241.927493 
L 368.656625 241.928983 
L 369.013046 241.929828 
L 369.360877 241.931194 
L 369.700523 241.934592 
L 370.032362 241.942782 
L 370.356741 241.950062 
L 370.673991 241.958423 
L 370.984418 241.96804 
L 371.288309 241.9832 
L 371.585934 241.991129 
L 371.877547 241.997198 
L 372.163384 241.999184 
L 372.44367 241.999624 
L 372.718618 242.00003 
L 372.988426 242.000458 
L 373.253284 242.001194 
L 373.513369 242.002239 
L 373.768849 242.003289 
L 374.019887 242.00416 
L 374.266633 242.004473 
L 374.509232 242.004824 
L 374.747821 242.005302 
L 374.982531 242.00567 
L 375.213484 242.005897 
L 375.440801 242.006021 
L 375.664593 242.006223 
L 375.884968 242.006255 
L 376.102029 242.00626 
L 376.315874 242.006262 
L 376.526598 242.006265 
L 376.73429 242.00627 
L 376.939035 242.006272 
L 377.140917 242.00628 
L 377.340014 242.00629 
L 377.536402 242.006295 
L 377.730155 242.0063 
L 377.921341 242.006394 
L 378.110027 242.006494 
L 378.296278 242.006506 
L 378.480156 242.006618 
L 378.661723 242.00682 
L 378.841032 242.007131 
L 379.018143 242.00724 
L 379.193107 242.007464 
L 379.365974 242.00783 
L 379.536796 242.008731 
L 379.705621 242.014868 
L 379.872494 242.028429 
L 380.037459 242.054117 
L 380.20056 242.081494 
L 380.361839 242.095414 
L 380.521336 242.102843 
L 380.679089 242.107338 
L 380.835138 242.109214 
L 380.989516 242.112093 
L 381.142262 242.112804 
L 381.293407 242.114086 
L 381.442988 242.115366 
L 381.591032 242.115815 
L 381.737575 242.116199 
L 381.882645 242.116364 
" clip-path="url(#p197fd15580)" style="fill: none; stroke: #1f77b4; stroke-width: 1.5; stroke-linecap: square"/>
   </g>
   <g id="line2d_103">
    <path d="M 243.535537 44.443636 
L 253.540635 175.491442 
L 259.393242 179.000773 
L 263.545732 180.873544 
L 266.766654 181.946959 
L 269.39834 182.574597 
L 271.623397 182.956696 
L 273.55083 183.19738 
L 275.250947 183.355633 
L 276.771751 183.456311 
L 278.147488 183.520504 
L 279.403437 183.562802 
L 280.558798 183.590709 
L 281.628495 183.609719 
L 282.624358 183.623645 
L 283.555927 183.634613 
L 284.431003 183.644117 
L 285.256044 183.653015 
L 286.036466 183.66191 
L 286.776849 183.671142 
L 287.481102 183.681128 
L 288.152585 183.692034 
L 288.794215 183.70423 
L 289.408535 183.717928 
L 289.997771 183.73355 
L 290.563896 183.751547 
L 291.10865 183.772371 
L 291.633592 183.796345 
L 292.140112 183.824316 
L 292.629456 183.857301 
L 293.102755 183.896626 
L 293.561025 183.944172 
L 294.005193 184.002142 
L 294.4361 184.074255 
L 294.854513 184.16511 
L 295.261142 184.280808 
L 295.656626 184.430418 
L 296.041564 184.62876 
L 296.416502 184.894557 
L 296.781946 185.25809 
L 297.138368 185.767272 
L 297.486199 186.499124 
L 297.825846 187.575413 
L 298.157683 189.19427 
L 298.482063 191.647903 
L 298.799313 195.338713 
L 299.10974 200.560825 
L 299.413632 207.402094 
L 299.711257 215.042258 
L 300.002869 222.364261 
L 300.288707 228.530015 
L 300.568993 233.150662 
L 300.843939 236.293443 
L 301.113747 238.304211 
L 301.378605 239.525066 
L 301.63869 240.235904 
L 301.894171 240.637599 
L 302.145209 240.865507 
L 302.391955 240.990039 
L 302.634553 241.059452 
L 302.873142 241.097065 
L 303.107852 241.117596 
L 303.338806 241.128982 
L 303.566122 241.135321 
L 303.789915 241.138918 
L 304.01029 241.141013 
L 304.227351 241.142242 
L 304.441198 241.143002 
L 304.65192 241.143489 
L 304.859611 241.14383 
L 305.064357 241.144084 
L 305.266239 241.144284 
L 305.465336 241.144445 
L 305.661724 241.144591 
L 305.855476 241.144722 
L 306.046661 241.144854 
L 306.235348 241.144971 
L 306.421599 241.145103 
L 306.605478 241.145224 
L 306.787044 241.145351 
L 306.966356 241.145483 
L 307.143466 241.145614 
L 307.318429 241.145746 
L 307.491297 241.145887 
L 307.662119 241.146024 
L 307.830943 241.146165 
L 307.997815 241.146316 
L 308.16278 241.146463 
L 308.325882 241.146609 
L 308.48716 241.146765 
L 308.646657 241.146926 
L 308.80441 241.147087 
L 308.960458 241.147257 
L 309.114837 241.147423 
L 309.267584 241.147598 
L 309.41873 241.147774 
L 309.568309 241.147954 
L 309.716355 241.148135 
L 309.862897 241.148325 
L 310.007966 241.148515 
" clip-path="url(#p197fd15580)" style="fill: none; stroke: #ff7f0e; stroke-width: 1.5; stroke-linecap: square"/>
   </g>
   <g id="line2d_104">
    <path d="M 253.855738 44.443636 
L 263.860836 155.580216 
L 269.713442 176.600618 
L 273.865933 179.661195 
L 277.086855 181.112046 
L 279.71854 181.922469 
L 281.943599 182.421047 
L 283.871031 182.752329 
L 285.571146 182.988528 
L 287.091952 183.168167 
L 288.467689 183.313869 
L 289.723637 183.439936 
L 290.878998 183.556083 
L 291.948696 183.67005 
L 292.94456 183.788581 
L 293.876128 183.918514 
L 294.751202 184.067683 
L 295.576244 184.245465 
L 296.356667 184.464264 
L 297.09705 184.740918 
L 297.801302 185.099311 
L 298.472786 185.572738 
L 299.114416 186.209878 
L 299.728735 187.079916 
L 300.317972 188.282425 
L 300.884096 189.955299 
L 301.428851 192.279474 
L 301.953794 195.464275 
L 302.460312 199.687491 
L 302.949657 204.974482 
L 303.422954 211.053374 
L 303.881226 217.367941 
L 304.325393 223.260852 
L 304.756299 228.265525 
L 305.174715 232.198675 
L 305.581341 235.097319 
L 305.976827 237.137801 
L 306.361764 238.527678 
L 306.736701 239.455112 
L 307.102147 240.063934 
L 307.458569 240.459658 
L 307.806399 240.715844 
L 308.146046 240.881662 
L 308.477884 240.989068 
L 308.802264 241.059569 
L 309.119514 241.105713 
L 309.429942 241.136383 
L 309.733832 241.157183 
L 310.031457 241.171652 
L 310.32307 241.182032 
L 310.608907 241.189741 
L 310.889193 241.195685 
L 311.164141 241.200419 
L 311.433949 241.204334 
L 311.698805 241.207663 
L 311.958891 241.210553 
L 312.214372 241.213121 
L 312.465409 241.215425 
L 312.712155 241.217515 
L 312.954755 241.219429 
L 313.193343 241.221187 
L 313.428052 241.222813 
L 313.659007 241.224322 
L 313.886323 241.225724 
L 314.110115 241.227028 
L 314.330491 241.228239 
L 314.547552 241.229382 
L 314.761397 241.230437 
L 314.972122 241.231433 
L 315.179813 241.232362 
L 315.384558 241.233231 
L 315.586439 241.234052 
L 315.785537 241.234823 
L 315.981925 241.235546 
L 316.175676 241.23622 
L 316.366862 241.236865 
L 316.555548 241.237466 
L 316.741799 241.238038 
L 316.925679 241.238575 
L 317.107245 241.239083 
L 317.286555 241.239567 
L 317.463666 241.240016 
L 317.638629 241.240451 
L 317.811497 241.240862 
L 317.98232 241.241252 
L 318.151144 241.241614 
L 318.318016 241.241971 
L 318.482981 241.242308 
L 318.646082 241.242625 
L 318.807362 241.242933 
L 318.966858 241.243216 
L 319.124611 241.2435 
L 319.28066 241.243764 
L 319.435039 241.244018 
L 319.587784 241.244262 
L 319.73893 241.244506 
L 319.888509 241.244731 
L 320.036554 241.244951 
L 320.183096 241.245161 
L 320.328167 241.245361 
" clip-path="url(#p197fd15580)" style="fill: none; stroke: #2ca02c; stroke-width: 1.5; stroke-linecap: square"/>
   </g>
   <g id="line2d_105">
    <path d="M 247.434616 44.443636 
L 257.439714 174.75488 
L 263.292321 178.807433 
L 267.444811 180.848104 
L 270.665733 181.942245 
L 273.297418 182.578168 
L 275.522475 182.962907 
L 277.449909 183.200369 
L 279.150025 183.350615 
L 280.67083 183.44764 
L 282.046567 183.512704 
L 283.302516 183.555475 
L 284.457876 183.584792 
L 285.527573 183.605825 
L 286.523438 183.621921 
L 287.455006 183.635115 
L 288.33008 183.646968 
L 289.155123 183.658152 
L 289.935546 183.669246 
L 290.675928 183.680792 
L 291.38018 183.693229 
L 292.051664 183.706904 
L 292.693295 183.722136 
L 293.307613 183.739669 
L 293.896849 183.75991 
L 294.462974 183.78332 
L 295.00773 183.810598 
L 295.53267 183.842622 
L 296.039189 183.880933 
L 296.528535 183.926882 
L 297.001833 183.982783 
L 297.460104 184.052486 
L 297.904271 184.140685 
L 298.335177 184.253539 
L 298.753593 184.401876 
L 299.16022 184.601198 
L 299.555705 184.873614 
L 299.940644 185.258384 
L 300.315582 185.8184 
L 300.681025 186.650716 
L 301.037446 187.923099 
L 301.385277 189.916354 
L 301.724924 193.052737 
L 302.056762 197.801914 
L 302.381142 204.454931 
L 302.698393 212.611303 
L 303.00882 220.936871 
L 303.312711 227.995679 
L 303.610336 233.108539 
L 303.901947 236.446668 
L 304.187785 238.464914 
L 304.468071 239.645508 
L 304.743018 240.318211 
L 305.012828 240.690868 
L 305.277685 240.896064 
L 305.537768 241.007714 
L 305.793249 241.068642 
L 306.044286 241.101686 
L 306.291034 241.120022 
L 306.533633 241.130131 
L 306.772222 241.135784 
L 307.006931 241.139005 
L 307.237885 241.140887 
L 307.465201 241.142008 
L 307.688993 241.142709 
L 307.909368 241.143177 
L 308.126431 241.143499 
L 308.340275 241.143743 
L 308.550998 241.143938 
L 308.758691 241.144113 
L 308.963435 241.144269 
L 309.165318 241.144425 
L 309.364415 241.144571 
L 309.560803 241.144713 
L 309.754555 241.144859 
L 309.945741 241.145005 
L 310.134426 241.145156 
L 310.320679 241.145312 
L 310.504557 241.145468 
L 310.686123 241.145624 
L 310.865434 241.14579 
L 311.042543 241.145956 
L 311.217508 241.146131 
L 311.390375 241.146307 
L 311.561198 241.146492 
L 311.730022 241.146677 
L 311.896893 241.146862 
L 312.061859 241.147048 
L 312.224962 241.147247 
L 312.386239 241.147442 
L 312.545736 241.147647 
L 312.70349 241.147847 
L 312.859537 241.148061 
L 313.013917 241.148276 
L 313.166662 241.148495 
L 313.317808 241.148715 
L 313.467388 241.148944 
L 313.615433 241.149173 
L 313.761976 241.149402 
L 313.907044 241.149641 
" clip-path="url(#p197fd15580)" style="fill: none; stroke: #d62728; stroke-width: 1.5; stroke-linecap: square"/>
   </g>
   <g id="line2d_106">
    <path d="M 252.166947 44.443636 
L 262.172044 85.160604 
L 268.02465 106.154115 
L 272.177142 121.675691 
L 275.398063 134.107103 
L 278.029748 144.176181 
L 280.254805 152.300819 
L 282.182239 158.811836 
L 283.882355 164.050654 
L 285.403161 168.33496 
L 286.778897 171.793427 
L 288.034845 174.588048 
L 289.190207 176.814078 
L 290.259903 178.60032 
L 291.255767 180.084769 
L 292.187337 181.438052 
L 293.06241 182.899288 
L 293.887453 185.013432 
L 294.667875 189.664995 
L 295.408258 202.787089 
L 296.112511 224.434072 
L 296.783995 235.873649 
L 297.425624 238.556957 
L 298.039943 239.406444 
L 298.62918 239.81546 
L 299.195304 240.073756 
L 299.74006 240.26359 
L 300.265 240.411104 
L 300.771519 240.542405 
L 301.260865 240.656777 
L 301.734163 240.753557 
L 302.192434 240.832825 
L 302.636601 240.898821 
L 303.067508 240.955245 
L 303.485923 241.002604 
L 303.89255 241.042066 
L 304.288035 241.073527 
L 304.672972 241.1006 
L 305.047911 241.123379 
L 305.413356 241.142943 
L 305.769776 241.159792 
L 306.117608 241.174588 
L 306.457254 241.187633 
L 306.789092 241.199448 
L 307.113472 241.210016 
L 307.430721 241.219839 
L 307.741149 241.229372 
L 308.04504 241.238453 
L 308.342666 241.247208 
L 308.634278 241.255843 
L 308.920114 241.264299 
L 309.200402 241.272757 
L 309.475349 241.281094 
L 309.745157 241.289492 
L 310.010014 241.298033 
L 310.270098 241.306678 
L 310.52558 241.315355 
L 310.776617 241.324176 
L 311.023364 241.333077 
L 311.265962 241.342165 
L 311.504551 241.351477 
L 311.739261 241.360917 
L 311.970214 241.370591 
L 312.197532 241.380413 
L 312.421323 241.390258 
L 312.641698 241.400163 
L 312.85876 241.41014 
L 313.072605 241.420143 
L 313.283329 241.430213 
L 313.49102 241.440271 
L 313.695765 241.450306 
L 313.897648 241.460388 
L 314.096744 241.470532 
L 314.293133 241.480629 
L 314.486884 241.49064 
L 314.67807 241.50053 
L 314.866756 241.510236 
L 315.053009 241.519826 
L 315.236887 241.529251 
L 315.418453 241.53854 
L 315.597763 241.547896 
L 315.774873 241.55714 
L 315.949838 241.566327 
L 316.122706 241.575359 
L 316.293527 241.58425 
L 316.462351 241.592901 
L 316.629223 241.601471 
L 316.79419 241.609894 
L 316.957291 241.618245 
L 317.118569 241.62643 
L 317.278066 241.634508 
L 317.435819 241.642435 
L 317.591868 241.650254 
L 317.746247 241.657927 
L 317.898992 241.665503 
L 318.050138 241.672937 
L 318.199717 241.680294 
L 318.347764 241.687533 
L 318.494304 241.694699 
L 318.639375 241.701758 
" clip-path="url(#p197fd15580)" style="fill: none; stroke: #9467bd; stroke-width: 1.5; stroke-linecap: square"/>
   </g>
   <g id="patch_9">
    <path d="M 236.618182 252 
L 236.618182 34.56 
" style="fill: none; stroke: #000000; stroke-width: 0.8; stroke-linejoin: miter; stroke-linecap: square"/>
   </g>
   <g id="patch_10">
    <path d="M 388.8 252 
L 388.8 34.56 
" style="fill: none; stroke: #000000; stroke-width: 0.8; stroke-linejoin: miter; stroke-linecap: square"/>
   </g>
   <g id="patch_11">
    <path d="M 236.618182 252 
L 388.8 252 
" style="fill: none; stroke: #000000; stroke-width: 0.8; stroke-linejoin: miter; stroke-linecap: square"/>
   </g>
   <g id="patch_12">
    <path d="M 236.618182 34.56 
L 388.8 34.56 
" style="fill: none; stroke: #000000; stroke-width: 0.8; stroke-linejoin: miter; stroke-linecap: square"/>
   </g>
   <g id="legend_2">
    <g id="patch_13">
     <path d="M 280.176562 115.950625 
L 381.8 115.950625 
Q 383.8 115.950625 383.8 113.950625 
L 383.8 41.56 
Q 383.8 39.56 381.8 39.56 
L 280.176562 39.56 
Q 278.176562 39.56 278.176562 41.56 
L 278.176562 113.950625 
Q 278.176562 115.950625 280.176562 115.950625 
z
" style="fill: #ffffff; opacity: 0.8; stroke: #cccccc; stroke-linejoin: miter"/>
    </g>
    <g id="line2d_107">
     <path d="M 282.176562 47.658437 
L 292.176562 47.658437 
L 302.176562 47.658437 
" style="fill: none; stroke: #1f77b4; stroke-width: 1.5; stroke-linecap: square"/>
    </g>
    <g id="text_26">
     <!-- LM-BFGS -->
     <g transform="translate(310.176562 51.158437)scale(0.1 -0.1)">
      <use xlink:href="#DejaVuSans-4c"/>
      <use xlink:href="#DejaVuSans-4d" x="55.712891"/>
      <use xlink:href="#DejaVuSans-2d" x="141.992188"/>
      <use xlink:href="#DejaVuSans-42" x="174.451172"/>
      <use xlink:href="#DejaVuSans-46" x="243.054688"/>
      <use xlink:href="#DejaVuSans-47" x="300.574219"/>
      <use xlink:href="#DejaVuSans-53" x="378.064453"/>
     </g>
    </g>
    <g id="line2d_108">
     <path d="M 282.176562 62.336562 
L 292.176562 62.336562 
L 302.176562 62.336562 
" style="fill: none; stroke: #ff7f0e; stroke-width: 1.5; stroke-linecap: square"/>
    </g>
    <g id="text_27">
     <!-- PSGD-Xmat -->
     <g transform="translate(310.176562 65.836562)scale(0.1 -0.1)">
      <use xlink:href="#DejaVuSans-50"/>
      <use xlink:href="#DejaVuSans-53" x="60.302734"/>
      <use xlink:href="#DejaVuSans-47" x="123.779297"/>
      <use xlink:href="#DejaVuSans-44" x="201.269531"/>
      <use xlink:href="#DejaVuSans-2d" x="278.271484"/>
      <use xlink:href="#DejaVuSans-58" x="309.355469"/>
      <use xlink:href="#DejaVuSans-6d" x="377.861328"/>
      <use xlink:href="#DejaVuSans-61" x="475.273438"/>
      <use xlink:href="#DejaVuSans-74" x="536.552734"/>
     </g>
    </g>
    <g id="line2d_109">
     <path d="M 282.176562 77.014687 
L 292.176562 77.014687 
L 302.176562 77.014687 
" style="fill: none; stroke: #2ca02c; stroke-width: 1.5; stroke-linecap: square"/>
    </g>
    <g id="text_28">
     <!-- PSGD-Newton -->
     <g transform="translate(310.176562 80.514687)scale(0.1 -0.1)">
      <use xlink:href="#DejaVuSans-50"/>
      <use xlink:href="#DejaVuSans-53" x="60.302734"/>
      <use xlink:href="#DejaVuSans-47" x="123.779297"/>
      <use xlink:href="#DejaVuSans-44" x="201.269531"/>
      <use xlink:href="#DejaVuSans-2d" x="278.271484"/>
      <use xlink:href="#DejaVuSans-4e" x="314.355469"/>
      <use xlink:href="#DejaVuSans-65" x="389.160156"/>
      <use xlink:href="#DejaVuSans-77" x="450.683594"/>
      <use xlink:href="#DejaVuSans-74" x="532.470703"/>
      <use xlink:href="#DejaVuSans-6f" x="571.679688"/>
      <use xlink:href="#DejaVuSans-6e" x="632.861328"/>
     </g>
    </g>
    <g id="line2d_110">
     <path d="M 282.176562 91.692813 
L 292.176562 91.692813 
L 302.176562 91.692813 
" style="fill: none; stroke: #d62728; stroke-width: 1.5; stroke-linecap: square"/>
    </g>
    <g id="text_29">
     <!-- PSGD-LRA -->
     <g transform="translate(310.176562 95.192813)scale(0.1 -0.1)">
      <use xlink:href="#DejaVuSans-50"/>
      <use xlink:href="#DejaVuSans-53" x="60.302734"/>
      <use xlink:href="#DejaVuSans-47" x="123.779297"/>
      <use xlink:href="#DejaVuSans-44" x="201.269531"/>
      <use xlink:href="#DejaVuSans-2d" x="278.271484"/>
      <use xlink:href="#DejaVuSans-4c" x="314.355469"/>
      <use xlink:href="#DejaVuSans-52" x="370.068359"/>
      <use xlink:href="#DejaVuSans-41" x="435.550781"/>
     </g>
    </g>
    <g id="line2d_111">
     <path d="M 282.176562 106.370937 
L 292.176562 106.370937 
L 302.176562 106.370937 
" style="fill: none; stroke: #9467bd; stroke-width: 1.5; stroke-linecap: square"/>
    </g>
    <g id="text_30">
     <!-- PSGD-Affine -->
     <g transform="translate(310.176562 109.870937)scale(0.1 -0.1)">
      <use xlink:href="#DejaVuSans-50"/>
      <use xlink:href="#DejaVuSans-53" x="60.302734"/>
      <use xlink:href="#DejaVuSans-47" x="123.779297"/>
      <use xlink:href="#DejaVuSans-44" x="201.269531"/>
      <use xlink:href="#DejaVuSans-2d" x="278.271484"/>
      <use xlink:href="#DejaVuSans-41" x="312.105469"/>
      <use xlink:href="#DejaVuSans-66" x="376.888672"/>
      <use xlink:href="#DejaVuSans-66" x="412.09375"/>
      <use xlink:href="#DejaVuSans-69" x="447.298828"/>
      <use xlink:href="#DejaVuSans-6e" x="475.082031"/>
      <use xlink:href="#DejaVuSans-65" x="538.460938"/>
     </g>
    </g>
   </g>
  </g>
 </g>
 <defs>
  <clipPath id="p4d6189f747">
   <rect x="54" y="34.56" width="152.181818" height="217.44"/>
  </clipPath>
  <clipPath id="p197fd15580">
   <rect x="236.618182" y="34.56" width="152.181818" height="217.44"/>
  </clipPath>
 </defs>
</svg>
